<?xml version="1.0" encoding="utf-8"?>
<!-- Generator: Adobe Illustrator 26.0.1, SVG Export Plug-In . SVG Version: 6.00 Build 0)  -->
<svg version="1.1" id="Layer_1" xmlns="http://www.w3.org/2000/svg" xmlns:xlink="http://www.w3.org/1999/xlink" x="0px" y="0px"
	 viewBox="0 0 281.4 155.8" style="enable-background:new 0 0 281.4 155.8;" xml:space="preserve">
<path d="M106.6,124.8c-0.5,0-1.1,0-1.7,0c0.1,0.6-0.6,1.2,0.2,1.7c-0.2,0.2-0.5,0.4-0.7,0.6c-0.3-0.1-0.7-0.4-1.1-0.4
	c-0.7-0.1-1.5-0.2-2.1,0.4c-0.1,0.1-0.2,0.2-0.4,0.3c-0.7,0.6-0.8,0.9-0.4,1.8c0.2,0.5,0.5,1,0.8,1.6c0,0,0,0,0,0
	c-0.3,0-0.5,0.1-0.8,0.1c-0.4-0.4-0.8-0.9-1.3-1.3c-1.2,0.3-1.5,1.3-2.1,2.1c-0.7-0.2-1.4-0.4-2.1-0.6c-0.1,0.5-0.1,0.8-0.2,1.2
	c-0.3-0.2-0.5-0.4-0.8-0.7c-0.4,0.5-0.8,1-1.3,1.5c0.4,0.5,0.6,1,0.5,1.6c-0.1,0.4,0.1,0.8,0.6,0.8c0.5,0,0.5,0.4,0.5,0.8
	c0,0.4-0.1,0.8-0.2,1.2c-0.9,0-1.2-0.2-1.9-1.9c0.1-0.2,0.3-0.4,0.4-0.5c-1-1-2-1.9-3-2.9c-0.6,0.4-0.3,1-0.4,1.5c0,0.5,0,1,0,1.8
	c-0.4-0.2-0.8-0.3-0.9-0.5c-0.2-0.8-0.7-0.8-1.4-0.8c-0.1-0.3-0.2-0.6-0.3-0.9c-0.4,0-0.8,0-1.3,0c-0.1,1.2-0.3,2.4-0.5,3.7
	c-0.7-0.7-1.3-1.2-1.9-1.8c-0.4,0.7-0.7,1.3-1.1,2c-0.6-0.7-1.1-1.2-1.7-1.9c-0.8,0.6-1.5,1.1-2.2,1.6c-0.4,0.3-0.8,0.4-1.2,0.1
	c-0.6-0.4-1-0.3-1.4,0.2c-0.2,0.2-0.4,0.4-0.7,0.5c-0.8-0.4-1.9-0.3-2.1-1.4l0,0c0,0,0-0.1,0-0.1c0-0.1,0-0.1,0-0.2l0,0
	c-0.1,0-0.2,0-0.2,0c0,0,0,0,0,0c-0.3-0.2-0.6-0.3-0.9-0.5c0.1-0.1,0.1-0.2,0.2-0.3c-0.2,0.2-0.4,0.4-0.6,0.6l0,0
	c-0.1,0-0.2,0-0.2,0l0,0c-0.1,0.1-0.1,0.3-0.2,0.4l0,0c0,0.1,0,0.2,0,0.2c0,0,0,0,0,0c-0.1,0.2-0.2,0.4-0.4,0.7
	c-0.9-0.7-1.8-1.4-2.7-2.1c-0.5,0.6-1,1.2-1.6,1.9c-0.4-0.6-0.8-1.2-1.2-1.7c-1.6,0-1.7,1.3-2.1,2.4c-0.8-0.5-0.8-0.7-0.4-2
	c-0.5-0.3-1.1-0.7-1.8-1.1c-0.6,0.6-1.2,1.3-1.9,2.1c-0.2-1.2-0.4-2.1-0.7-3.3c-0.8,0.9-1.4,1.6-2.2,2.4c-0.3-0.2-0.5-0.4-0.7-0.6
	c-0.3,0.2-0.5,0.5-0.8,0.6c-1,0.6-1.5,0.4-1.7-0.9c0.4-0.2,0.8-0.5,1.2-0.7c0.2,0.2,0.5,0.3,0.7,0.5c0.1,0,0.1-0.1,0.2-0.1
	c-0.3-0.7-0.5-1.3-0.8-2c-1,0.3-2,0.6-3,0.9c-0.7-1-0.2-2.2-0.5-3.4c-0.8-0.2-1.5-0.1-2.2,0.4c-0.2,0.2-0.5,0.3-0.7,0.4
	c-0.7,0.6-1.5,0.5-2.2-0.1c0-0.4,0-0.9,0.1-1.4c-0.2-0.1-0.4-0.3-0.7-0.4c0.2-0.2,0.4-0.3,0.5-0.4c0.1-0.2,0.3-0.4,0.3-0.5
	c-0.1-0.2-0.3-0.5-0.5-0.5c-0.8,0.1-1.1-0.5-1.5-1.1c-0.2-0.3-0.6-0.5-0.9-0.7c-0.4-0.2-0.9-0.4-1.3-0.6c-0.8-0.3-1.2-0.2-1.6,0.6
	c-0.1,0.1-0.2,0.1-0.3,0.2c0,0,0,0,0,0c-0.1-0.1-0.2-0.4-0.3-0.4c-0.2,0-0.5,0.1-0.9,0.2c0.1-0.9,0.2-1.7,0.4-2.6
	c-0.3,0-0.5-0.1-0.7-0.1c-0.7,0.1-1.4,0-2-0.5c-0.2-0.2-0.7-0.2-1-0.2c-0.5,0-1,0.1-1.5,0.1c0.2-1.1,0.9-2,1.1-3.3
	c-1.1,0.4-2,0.7-3.1,1c0.6-1.2,1.1-2.2,1.6-3.2c0-0.1-0.1-0.1-0.1-0.2c-1.1,0.4-2.2,0.7-3.5,1.1c0.5-1.5,1.4-2.8,1.1-4.5
	c-0.6-0.1-1.2-0.2-1.8-0.3c-0.1-0.5-0.2-1-0.3-1.5c-1,0.1-2,0.1-2.9,0.2c-0.5-0.8-0.5-1.6,0.1-2.4c0.6-0.8,1.1-1.7,0.4-2.8
	c-0.9,0-1.9,0-3.1,0c0.4-0.8,0.7-1.4,1.1-2.2c-0.6-0.2-1.1-0.3-1.6-0.5c-0.2-0.1-0.6-0.3-0.6-0.5c-0.1-0.9-0.7-1.5-1.4-2.1
	c0.1-0.3,0.2-0.6,0.3-0.9c-0.5-0.1-0.9-0.2-1.3-0.4c0.1-0.7,0.3-1,1-1c1.1,0,1.8-0.7,2.6-1.6c-1.2-0.2-2.2-0.4-3.4-0.6
	c0.3-0.5,0.6-0.9,0.9-1.2c0.3-0.4,0.3-0.7,0-1.1c-0.4-0.5-0.3-1.1-0.1-1.6c0.2-0.6,0.4-1.3,0.6-2c-0.8-0.4-1.6-0.8-2.4-1.2
	c0.2-0.4,0.5-0.7,0.7-1.1c-0.7,0-1.3,0-2,0c0.6-1.2,1.7-0.6,2.4-0.9c0.3-1.2-0.3-2.1-1.4-2.2c0.3-0.5,0.3-0.5-0.2-1.1
	c-0.2,0.4-0.4,0.8-0.6,1.1c-0.2,0.3-0.4,0.6-0.7,0.7c-0.6,0.2-0.8,0.5-0.6,1.1c0.1,0.2,0,0.4,0,0.6c-1,0.2-1.8,0.6-2.8,1
	c0,0-0.2-0.1-0.4-0.3c-0.3,0.3-0.7,0.5-0.8,0.8c-0.4,0.6-0.8,0.7-1.4,0.5c-0.3-0.1-0.6-0.2-0.9-0.3c0.1-0.8,0.3-1.5,0.4-2.3
	c0-0.1,0.2-0.2,0.3-0.2c0.5-0.4,1-0.9,1.5-1.3c0.5-0.4,1.1-0.4,1.8-0.1c-0.2,0.6-0.5,1.2-0.7,1.8c1.2,0.3,1.6,0.2,2-0.5l0,0
	c0.8-0.3,1.3-1.1,1.1-1.8c-0.1-0.3-0.2-0.6-0.3-0.8c-0.1-0.2-0.1-0.5-0.2-0.7c0.5-0.4,0.9-0.2,1.3,0c1.1,0.4,1.4,0.3,1.8-0.8
	c0.1-0.1,0.1-0.3,0.2-0.4c0.6-0.7,0.6-1.5,0.3-2.4c-0.1-0.4,0-0.9,0-1.3c0,0,0,0,0,0c-0.1,0.1-0.3,0.1-0.5,0.2c0-0.7,0.7-0.3,1-0.8
	c-0.5-0.5-0.9-1.1-1.5-1.7c0.6-0.3,1.1-0.5,1.7-0.8c0.7-0.3,0.9-1,0.4-1.6c-0.1-0.2-0.2-0.4-0.2-0.6c-0.1-0.7-0.5-1.1-1.3-1.1
	c-0.3,0-0.6,0.1-0.8-0.4c-0.1-0.1-0.4-0.2-0.6-0.3c-0.3-0.1-0.5-0.1-0.8-0.2c0.3-1,0.5-1.1,1.3-1c0.5,0.1,1.1,0.3,1.6,0.4
	c0.3,0.1,0.7,0,1-0.1c0.2-0.9-0.6-0.8-1-1.2c0.3-0.2,0.6-0.4,0.8-0.6c-0.4-0.7-0.7-1.4-1.1-2.1l0,0c0.2-0.1,0.4-0.2,0.6-0.2
	C20,67,20,66.8,19.8,66.6c-0.1-0.2-0.4-0.3-0.6-0.4c0.2-0.4,0.4-0.4,0.7-0.2c0.2,0.1,0.4,0.3,0.6,0.3c0.4-0.1,0.9-0.2,1.1-0.5
	c0.2-0.4-0.1-0.8-0.5-1c-0.3-0.2-0.6-0.3-0.8-0.5c0.2-0.5,0.4-0.9,0.6-1.4c0.3,0.2,0.5,0.3,0.8,0.5c0.2-0.8,0.6-1.5,1.2-2
	c-0.2,0.8-0.1,0.9,0.9,0.9c-0.4-0.3-0.6-0.6-0.9-0.8c-0.2-0.3-0.4-0.6-0.6-1c0.4,0,0.6,0,0.9,0c0-0.9,1.1-0.7,1.4-1.3
	c0-0.6-0.6-0.1-0.8-0.4c0.2-0.4,0.5-0.8,0.8-1.3c0.1,0,0.3-0.1,0.6-0.1c0.2-0.4,0.2-0.8-0.1-1.1c-0.3-0.3-0.5-0.6-0.8-0.8
	c0.4-0.3,0.7-0.6,1.2-1c-1.1-0.4-0.6-1.2-0.7-1.8c-0.3-0.1-0.6-0.1-0.9-0.2c0.6-0.7,0.9-0.7,1.6-0.4c0.2,0.1,0.5-0.1,0.7-0.1
	c0-0.1,0-0.2,0-0.3c-0.3-0.1-0.5-0.1-0.8-0.2c0.1-0.5,0.2-0.8,0.8-0.6c1.3,0.5,2.1,0.1,2.3-1.4c0-0.1,0.1-0.2,0.1-0.4
	c0.3,0,0.7-0.1,1-0.1c0.4-0.8-0.5-1.1-0.8-1.6c0.2-0.6,0.7-0.5,1.2-0.4c0.4,0.1,0.7,0.3,1.1,0.4c0.7,0.2,1.2-0.1,1-0.8
	c-0.1-0.7,0-1.2,0.7-1.5c0.2-0.1,0.3-0.4,0.3-0.7c0-0.2-0.1-0.5-0.2-0.8c0.4-0.4,0.9-0.4,1.4-0.3c0.5,0,0.7-0.1,0.8-0.5
	c0.2-0.6,0.4-1.2,0.6-1.9c-0.7-0.5-0.7-1.2-0.7-1.9c0-0.6-0.1-1.3-0.1-2c0.5,0.1,0.7,0.4,0.6,0.9c-0.1,1.1,0.5,1.7,1.5,2
	c0.1-0.1,0.1-0.2,0.1-0.3c-0.1-0.9-0.3-1.9-0.7-2.7c-0.3-0.8-0.5-1.5-0.5-2.3c-0.1-0.7,0-1.4-0.6-1.9c-0.2-0.2-0.1-0.6-0.2-1.1
	c1,0.1,1.4,0.9,2.2,1.4c0.1-0.2,0.3-0.3,0.5-0.6c0.2,0.2,0.3,0.3,0.5,0.4c0,0,0.1,0,0.1,0c0.4-0.8,1-0.6,1.7-0.4
	c0.1,0,0.3-0.2,0.4-0.3c0.1-0.2,0.1-0.4,0.2-0.7c0.3,0.2,0.6,0.3,0.9,0.5c0.4-0.2,0.2-1,0.8-0.9c0.3,0,0.6,0.2,0.9,0.4
	c0.3-0.5,0.7-0.5,1.1,0.1c0.1-0.1,0.1-0.2,0.2-0.3c0.6-1.2,0.6-1.2-0.7-1.5c-0.4-0.1-0.8-0.4-1-0.7c-0.4-0.8-0.7-1.7-1.6-2.2
	c-0.3-0.2-0.5-0.7-0.7-1.1c0.5-0.5,0.9,0.2,1.4,0.2c0-0.3,0.1-0.5,0.2-1c0.4,0.5,0.9,0.8,1,1.2c0.4,1,1,1.7,2.2,1.9
	c0.5-0.4,0-0.7-0.1-0.9c0.2-0.4,0.5-0.8,0.6-1.2c0.1-0.5,0.5-0.8,1-0.8c0.5-0.1,0.9,0.2,1.1,0.7c0.1,0.3,0.2,0.7,0.4,1
	c0.1,0.3,0.4,0.7,0.6,0.7c0.3,0,0.6-0.3,0.9-0.5c-0.5-0.4-0.8-0.7-1.3-1.1c0.5-0.1,0.7-0.1,1-0.2c0,0,0.1-0.1,0.1-0.1
	c0-0.2,0-0.4-0.1-0.5c-0.8-0.8-1-2-1.6-3c-0.1-0.2-0.1-0.4-0.1-0.5c0-0.2,0-0.5-0.1-0.5c-0.7-0.5-0.4-1.2-0.3-1.9
	c0-0.3,0.2-0.6,0.3-0.8c0.6-1.2,0.7-2.4,0.3-3.7c-0.2-0.6-0.2-1.2-0.2-1.7c0-0.3-0.2-0.8,0.4-0.9c0.1,0,0.2-0.2,0.1-0.2
	c-0.2-0.8,0.3-0.9,0.9-1.1c0-0.6,0-1.2,0-1.7c0-0.5-0.1-0.9,0.6-1c0.7-0.1,1.1,0,1.4,0.6c0.1,0.3,0.2,0.5,0.3,0.8
	c0.3,1.1,0.8,1.9,1.7,2.6c0.6,0.5,0.7,0.9,0.3,1.6c-0.2,0.3-0.5,0.6-0.6,0.9c-0.3,0.6,0,1.2,0.7,1.1c1-0.1,1.6,0.3,2,1.2
	c0.1,0.1,0.2,0.4,0.3,0.4c0.8,0.1,0.7,0.7,0.8,1.2c0,0.2,0,0.3,0,0.5c0.1,0.9,0.2,1,1.1,1c0.5,0,1,0.1,1.5,0.2
	c-0.2,1.1-0.2,1.1-1.4,1.2c-0.1,1,0.7,1.6,0.9,2.4c0.2-0.1,0.4-0.1,0.4-0.1c0.4-0.6,0.9-1.1,1.7-1.2c0.5,0,0.6-0.4,0.4-0.9
	c-0.1-0.2-0.2-0.4-0.2-0.6c0.6-0.5,1.3-0.5,1.7-0.2c0.5,0.3,0.7,0.9,1.1,1.5c0.2-0.2,0.3-0.5,0.4-0.6c0.4-0.3,0.8-0.6,1.2-0.7
	c0.7-0.2,1,0.1,1.1,0.8c0,0.3,0.1,0.5,0.1,0.8c0,0.6,0.2,1,0.7,1.3c0.2,0.2,0.4,0.5,0.6,0.8c0.6,0,1.2,0,1.9,0.4
	c0.7,0.4,1.4-0.1,1.9-0.8c0.6-0.8,0.4-1.4-0.1-2.1c0-0.1-0.1-0.1-0.1-0.2c-0.7-1.3-0.4-2,1.1-2.3c0.2,0.4,0.1,0.8-0.1,1.2
	c-0.2,0.3-0.3,0.7-0.4,1.1c1,0.1,1.4-0.2,1.7-0.9c0.3-0.6,0.4-1.3,0.7-1.8c0.2-0.4,0.6-0.8,1-1c0.3-0.2,0.8-0.1,0.9,0.4
	c0.1,0.3,0.3,0.6,0.5,1c0.3,1,1.1,1.5,1.9,2c0.1,0.1,0.4,0.1,0.6,0.1c0.5,0.1,1.1,0.1,1.8,0.2c0.2-0.6,0.3-1.3,0.5-1.9
	c0.5-0.4,0.9-0.7,1.2-1c0.9-1.1,1-1.1,2-0.1c0.1,0.1,0.3,0.3,0.3,0.4c-0.3,0.7-0.6,1.4-0.8,2.1c-0.2,0.5-0.2,1,0.4,1.4
	c0.3,0.2,0.5,0.5,0.4,1c-0.1,0.6,0.3,0.7,0.8,0.4c0.3-0.2,0.6-0.5,0.9-0.7c0.3-0.2,0.6-0.4,0.9,0c0.4,0.5,0.8-0.1,1.3-0.2
	c0,0.3,0,0.5,0.1,0.8c0.3,0,0.6,0.1,1,0.1c0,0.5,0,1,0,1.7c0.7-0.3,1.2-0.5,1.8-0.7c0.6,0.6,1.4,0.8,2.4,0.8c1.4,0,1.8,0.3,1.7,1.8
	c0,0.1,0,0.3,0.1,0.4c0.6,0.3,1.1,0,1.6-0.2c1-0.4,1.5,0,1.4,1.1c-0.1,1.2,0.4,1.7,1.6,1.8c0.9,0,0.9,0,0.9,0.9
	c0,0.1,0.1,0.3,0.1,0.6c0.2-0.2,0.4-0.4,0.4-0.4c0.6,0.1,1.1,0.3,1.6,0.3c1.2,0,2.3,0,3.5,0.4c0.5,0.2,1.2-0.1,1.7-0.2
	c0.7,0.3,1.4,0.8,1.7,1.6c0.2,0.5,0.5,0.9,1.2,0.7c0.2-0.1,0.6,0.3,0.9,0.5c0.4,0.4,0.8,0.6,1.2,0.4c0.3,0.3,0.4,0.7,0.7,0.8
	c0.8,0.4,1,1.2,1.5,1.8c0.1,0.1,0.1,0.4,0.1,0.7c0.1,0.6,0.1,1.2,0.3,1.8c0.2,0.6,0.4,1.2-0.4,1.5c0.2,0.4,0.4,0.8,0.5,1.1
	c-0.9,1.5-0.7,2.6,0.6,3.8c0.7,0.6,0.8,0.6,1.4,0.1c0.5,0.2,0.9,0.3,1.5,0.6c0,0.2,0,0.6-0.2,0.8c-0.5,0.9-0.4,1.7,0.1,2.6
	c0.6,1.2,1.2,2.4,1.7,3.6c0.4,0.9,0.6,1.1,1.3,1.4c0,0.1,0,0.3,0,0.5c0,0.1,0,0.2,0,0.3c0.1,0.1,0.1,0.1,0.1,0.1
	c1-0.1,1.5,0.8,2.3,1c0.8,0.2,1.6-0.1,2.1-0.9c0.3-0.5,0.6-1,0.9-1.5c1.2,0.4,1.3,0.9,0.7,1.8c-0.1,0.1-0.2,0.3-0.1,0.4
	c0.2,0.7-0.3,0.9-0.8,1.1c-0.2,0.1-0.4,0.1-0.6,0.2c-0.5,0.2-0.9,0.5-0.8,1.1c0,0.7-0.2,1.2-0.7,1.7c-0.2,0.2-0.3,0.6-0.5,0.8
	c-0.2,0.3-0.3,0.6-0.5,0.9c0.4,0.3,0.4,0.8,0.5,1.3c0.1,0.8,0.5,1.7,0.6,2.5c0.1,0.6,0.6,1,0.8,1.6c0.1,0.2,0,0.5-0.1,0.6
	c-0.6,1.1-0.5,2.2,0.2,3.4c-0.7,0.5-0.3,1,0,1.5c0.5,0.8,1,1.5,1.6,2.3c-0.2,0.3-0.4,0.5-0.6,0.8c0.1,0.2,0.3,0.5,0.4,0.7
	c0.1,0.1,0.1,0.3,0.1,0.5c-0.3,0.6-0.6,1.2-0.9,1.8c0.1,0.1,0.3,0.3,0.3,0.3c-0.1,0.7-0.2,1.4-0.3,2c0,0.1,0,0.3,0,0.3
	c-0.8,0.4-0.4,1.3-0.8,1.8c-0.4,0.7-0.5,1.4,0.3,2c-0.2,0.2-0.3,0.4-0.5,0.6c0.6,0.5,0.5,1.1,0.2,1.8c-0.3,0.7-0.2,0.8,0.5,1.1
	c0.9,0.4,0.9,0.4,0.6,1.4c-0.2-0.1-0.5-0.2-0.7-0.3c-0.6-0.3-0.8-0.2-1.1,0.3c-0.3,0.7-0.7,1.4-1,2.1c-0.1,0.3-0.1,0.6-0.2,0.9
	c0,0.3,0,0.5,0,0.8c0,2.3,0,2.3-1.2,4.2c-0.4,0.7-0.8,1.4-1.2,2.1c-0.1,0.2,0,0.6,0,0.9c0,0.4,0.2,0.9-0.4,1.1
	c-0.1,0-0.1,0.3-0.1,0.4c-0.1,0.2-0.1,0.4-0.2,0.6c-0.1,0.3-0.3,0.6-0.3,0.9c-0.1,0.6-0.4,1.1-1,1.2c-0.6,0.2-0.7,0.6-0.8,1.1
	c-0.1,0.5-0.1,1.1-0.2,1.6c-0.4,0-0.7,0-1,0c0,0.3,0,0.6,0,0.8c-0.3,0.2-0.6,0.4-0.8,0.6c-0.6,0.7-1.1,1.4-1.6,2.1
	c-0.1,0.2-0.2,0.5-0.2,0.8c0.1,1,0,1.9-0.6,2.7c-0.2,0.2-0.5,0.5-0.8,0.5c-1.1,0-1.8,0.3-1.9,1.6c-0.5,0-1,0-1.5,0.1
	c-0.7,0.2-0.8,0.4-0.6,1.1c0.2,0.5,0.4,1.1,0.6,1.7c-0.7,0.1-1.3,0.2-1.9,0.4c0,0.4,0.1,0.7,0.1,1.1c-0.5-0.1-1-0.3-1.4-0.3
	c-0.5,0.1-1,0.5-1.6,0.5c-0.3,0-0.5,0.4-0.4,0.7C106.3,124.3,106.5,124.5,106.6,124.8L106.6,124.8z M25.8,53.2c-0.1,0-0.2,0-0.3-0.1
	c0,0,0,0.1,0,0.1C25.6,53.3,25.7,53.2,25.8,53.2c-0.2,0.4-0.1,0.8,0.3,1.1c0.4-0.3,0.7-0.5,1-0.7c0-0.1,0-0.1-0.1-0.2
	C26.7,53.3,26.2,53.3,25.8,53.2z M36.2,40.4c0.2,0.3,0.3,0.6,0.4,0.8c-0.2,0.4-0.4,0.7-0.6,1c1,0.1,2-0.6,2.2-1.4
	c0.1-0.6-0.4-1-1-0.9C37,40.1,36.6,40.2,36.2,40.4z M22.2,64.7c0.1,0.1,0.1,0.1,0.2,0.2c0.1-0.1,0.3-0.3,0.4-0.4
	c-0.1,0-0.1-0.1-0.2-0.1C22.5,64.4,22.3,64.6,22.2,64.7z M28,52c-0.3-0.3-0.4-0.3-0.5-0.4c-0.1,0.1-0.2,0.2-0.2,0.3
	c0,0.1,0.1,0.2,0.2,0.2C27.6,52.1,27.8,52,28,52z M42.7,32.1c0,0.1,0,0.1,0.1,0.2c0.1,0,0.3-0.1,0.4-0.1c0,0,0-0.2-0.1-0.2
	C43,32,42.8,32.1,42.7,32.1z M23.8,62.4L23.8,62.4L23.8,62.4L23.8,62.4z"/>
<path d="M178.4,125.8c-0.4-1-0.5-1.1-1.5-0.9c-0.3,0.1-0.5,0.1-0.8,0.1c-0.1-0.3-0.2-0.5-0.1-0.7c0.1-0.7-0.3-1-0.8-1.1
	c-0.5-0.1-0.9-0.3-0.9-1.1c-0.3,0.8-0.5,1.3-0.7,1.9c0.3,0.3,0.6,0.6,1.1,1.1c-0.9,0.3-1.6-0.4-2.3,0.1l0,0c-0.1-0.4-0.3-0.2-0.4,0
	l0,0c-0.5,0.1-0.5-0.2-0.5-0.7c1,0.1,0.9-1.1,1.7-1.4c-0.2-0.7-0.5-1.3-0.7-2c-0.6,0.5-1,0.8-1.5,1.2c0,0,0,0,0,0
	c-0.1-0.2-0.3-0.4-0.4-0.6c-0.5,0.2-1,0.4-1.4,0.7c-0.1-0.1-0.1-0.1-0.2-0.2c0.2-0.4,0.4-0.9,0.7-1.3c0.3,0.2,0.4,0.3,0.7,0.5
	c0-0.4,0-0.7,0-1c-0.3,0-0.6-0.1-1-0.1c0.2-0.3,0.3-0.4,0.4-0.6c0.2-0.3,0.1-0.7-0.3-0.6c-0.6,0.2-0.4-0.4-0.8-0.6
	c-0.5,0.3-0.4,0.8-0.2,1.2c0.3,0.6-0.1,1.8-0.7,2.1c-0.1,0-0.3,0-0.4,0c-0.1-0.2-0.2-0.4-0.2-0.6c0.1-0.4,0.3-0.8,0.5-1.2
	c-0.3-0.1-0.6-0.1-1-0.2c0.3-0.6,0.5-1.1,0.8-1.6c0.6-0.9,0.3-1.8-0.1-2.6c-0.3-0.6-0.9-0.8-1.5-0.6c-0.1-0.5-0.1-1-0.4-1.4
	c-0.2-0.4-0.7-0.6-1-0.9c-0.3-0.5-0.6-0.9-1.2-1.2c-0.1-0.1-0.2-0.3-0.2-0.5c-0.1-0.4-0.1-0.7-0.2-1.1c-0.2-1-0.5-1.2-1.6-0.8
	c0.2,0.2,0.3,0.4,0.4,0.5c0.1,0.1,0.3,0.2,0.5,0.3c-0.5,0.7-1,0.3-1.4,0.2c-0.1,0.4-0.2,0.7-0.3,1.1c-0.1,0-0.2,0.1-0.2,0.1
	c-0.2-0.2-0.5-0.5-0.4-0.7c0.1-0.3,0.4-0.6,0.8-0.8c0-0.3,0-0.6,0-0.9c0-0.4,0.1-0.7,0.4-1c0.6-0.5,0.6-0.7,0.1-1.4
	c-0.5-0.8-1.1-1.5-1.6-2.3c-0.1-0.2-0.2-0.6-0.2-0.8c-0.1-0.4,0-0.9-0.6-1.1c-0.1,0-0.1-0.5-0.2-0.7c-0.2-0.2-0.5-0.3-0.6-0.6
	c-0.3-0.8-0.9-1.2-1.8-1.2c-0.8,0.1-1.7,0.2-2.5-0.3c-0.5,1.3-0.5,1.3-1.9,0.8c0.1-0.7,0.4-0.9,1.1-1c0.3,0,0.7-0.1,1-0.3
	c0.5-0.3,0.8-0.3,1.3,0c0.3,0.2,0.5,0.4,0.8,0.5c0.3,0.1,0.6,0.1,0.9,0c0.4-0.1,0.4-0.5,0.3-0.8c-0.3-1.3-0.6-2.6-0.9-3.9
	c-0.1-0.6-0.4-1.1-1.1-1.1c0.1-0.3,0.3-0.5,0.3-0.8c0.1-0.3,0.1-0.7,0-0.8c-0.6-0.5-0.5-1.1-0.5-1.7c-0.1-0.9-0.3-0.8-1-1.2
	c-1.2-0.7-2.5-0.3-3.7-0.4c-0.1,0-0.3,0-0.4,0c0,0,0,0-0.1-0.1c0.2-0.6,0.7-0.7,1.2-0.7c0.7,0,1.4-0.1,2.1-0.1
	c0.1,0,0.2-0.1,0.4-0.1c0-0.6-0.3-0.8-0.7-0.9c-0.5-0.1-0.7-0.4-0.7-0.9c0-0.5,0.3-0.7,0.7-0.8c0.1,0,0.3,0,0.4-0.1
	c0.1-0.1,0.4-0.3,0.4-0.4c-0.1-0.2-0.2-0.4-0.4-0.5c-0.1-0.1-0.3-0.1-0.5-0.1c-0.4-0.1-0.6-0.3-0.6-0.7c0.2-0.2,0.5-0.3,0.5-0.6
	c0.1-0.2-0.1-0.5-0.5-0.4c0,0.3,0,0.6,0,1c-0.3,0.1-0.6,0.2-0.9,0.3c-0.1-0.6,0.3-1.1,0.6-1.5c0.2-0.3,0.4-0.7,0.3-0.9
	c-0.1-0.7,0.1-1,0.8-1.2c0.2-0.1,0.5-0.2,0.7-0.3c-0.2-0.8-1.2-0.9-1.6-1.7c0.2-0.1,0.4-0.2,0.7-0.4c-0.4-0.2-0.7-0.3-1-0.5
	c0-0.1,0-0.2,0-0.2c0.7,0,1.1-0.3,1.2-1c0.1-0.6,0.3-1.1-0.1-1.7c-0.3-0.4-0.2-1-0.2-1.6c-0.3,0-0.5,0-0.8,0c-0.5,0-1,0.2-1.3-0.4
	c-0.1-0.3-0.8-0.2-1.3-0.3c0.2-1,0.5-1.2,1.3-0.9c0.4,0.1,0.9,0.3,1.3,0.3c0.5,0.1,1,0.2,1.4-0.2c0-0.7-0.7-0.6-1-1
	c0.3-0.3,0.6-0.6,0.8-0.9c0.3,0,0.6,0,1.1,0.1c-0.7-0.7-0.7-0.7-1.1,0c-0.4-0.6-0.9-1.1-1.3-1.8c0.2-0.3,1-0.1,0.7-0.7
	c-0.1-0.3-0.5-0.5-0.8-0.7c0.2-0.4,0.4-0.3,0.7-0.2c0.2,0.1,0.5,0.4,0.6,0.3c0.4-0.1,0.7-0.4,1-0.6c-0.2-0.3-0.4-0.7-0.6-1
	c-0.2-0.2-0.5-0.3-0.8-0.5c0.1-0.3,0.2-0.5,0.3-0.7c0.1-0.2,0.2-0.4,0.3-0.7c0.3,0.1,0.5,0.3,1,0.5c-0.4-1,0.8-1.1,0.7-2
	c0.3,0.4,0.3,1,1.2,0.8c-0.5-0.6-1-1.2-1.5-1.8c1-0.3,1.6,0.3,2.3,0.4c0-0.4,0-0.7,0.1-1.1c0.3-1,0.3-1-0.8-1.1
	c0-0.6,0.4-0.7,0.8-0.7c0.4,0,0.8-0.1,1.3-0.1c-0.4-0.5-0.8-0.8-0.6-1.3c0-0.1-0.2-0.4-0.3-0.6c-0.2-0.3-0.4-0.5-0.6-0.7
	c0.3-0.3,0.6-0.6,0.8-0.8c-0.1-0.8-0.2-1.4-0.3-2c-0.3-0.1-0.6-0.1-0.9-0.2c0.3-0.5,0.8-0.5,1.3-0.6c0.1,0,0.2,0.2,0.3,0.3l0,0l0,0
	c0.4,0.1,0.7,0.1,0.7-0.3c0-0.2-0.3-0.4-0.6-0.7c0.1-0.3,0.3-0.4,0.7-0.2c0.4,0.1,0.9,0.2,1.3,0.1c0.8-0.2,0.9-0.4,0.9-1.2
	c0-0.2,0-0.3,0.1-0.5c0.3,0,0.5,0,0.8-0.1c0.6-0.1,0.7-0.4,0.4-0.9c-0.2-0.3-0.6-0.5-0.8-0.8c0.6-0.7,1.2-0.7,2,0.1l0,0
	c0.1,0,0.2,0,0.2,0l0,0c1.1-0.1,1.2-0.3,1.1-1.2c-0.1-0.6,0.1-1,0.7-1.1c0.5-0.1,0.6-0.4,0.5-0.8c0.1,0,0.2,0,0.3,0
	c0,0.1,0,0.1,0,0.2c0-0.1,0-0.1,0-0.2c-0.1,0-0.2,0-0.3,0c-0.1-0.2-0.2-0.4-0.4-0.7c0.6-0.5,1.3-0.3,1.9-0.4
	c0.3-0.7,0.5-1.4,0.8-2.1c0-0.1,0-0.4,0-0.5c-0.7-0.6-0.5-1.4-0.6-2.2c0-0.5-0.1-1-0.1-1.8c0.2,0.2,0.5,0.3,0.6,0.5
	c0.1,0.2,0.1,0.4,0.1,0.6c0.1,1.3,0.3,1.5,1.7,1.9c0-0.3,0.1-0.8-0.1-0.9c-0.4-0.5-0.5-1-0.4-1.5c0-0.2,0-0.4-0.1-0.5
	c-0.8-0.8-0.5-1.9-0.7-2.9c-0.1-0.5-0.1-0.9-0.5-1.3c-0.4-0.3-0.3-0.8,0-1.3c0.7,0.5,1.3,1,2,1.5c0.1-0.1,0.2-0.1,0.3-0.2
	c0.1-0.1,0.1-0.2,0.2-0.3c0.1,0.1,0.2,0.1,0.3,0.2c0.1,0.1,0.1,0.1,0.2,0.2c0,0,0.1,0,0.1,0c0.5-0.8,1.1-0.4,1.8-0.4
	c0.2,0,0.4-0.5,0.6-0.9c0.2,0.1,0.5,0.2,0.8,0.4c0.3-0.3,0.5-0.7,0.9-0.9c0.2-0.1,0.5,0.2,0.9,0.4c0.1-0.1,0.3-0.2,0.5-0.4
	c0.2,0.1,0.4,0.3,0.7,0.5c0.1-0.2,0.2-0.3,0.3-0.5c0.5-1,0.4-1.2-0.6-1.2c-0.7,0-1.2-0.3-1.4-1c-0.2-0.7-0.6-1.3-1.3-1.8
	c-0.4-0.2-0.6-0.8-0.8-1.2c0.5-0.6,0.9,0.2,1.4,0.1c0.1-0.2,0.1-0.5,0.2-0.8c0.5,0.1,0.9,0.4,1,0.8c0.4,1,0.9,1.8,2.1,2
	c0.3-0.4,0.3-0.4-0.1-1c0.2-0.4,0.4-0.8,0.5-1.2c0.1-0.5,0.4-0.7,0.9-0.8c0.5-0.1,0.9,0.1,1.1,0.6c0.2,0.4,0.3,0.8,0.4,1.2
	c0.1,0.2,0.3,0.6,0.5,0.6c0.3,0,0.6-0.3,0.9-0.4c-0.4-0.4-0.8-0.7-1.2-1.2c0.5,0,0.8-0.1,1.3-0.1c-1.2-1.6-1.8-3.4-2.5-5.2
	c0.3,0.2,0.5,0.3,0.7,0.5c0.8,0.7,1.7,1,2.7,0.6c0.4-0.2,0.9-0.2,1.4-0.3c0-0.5,0-1,0-1.5c0-0.3,0-0.7,0.1-1
	c0.2-0.7,0.3-0.9,1.1-0.8c0.7,0.1,1.3,0.3,2,0.5c0.3-0.4,0.7-0.7,1-1.1c0.5,0.5,0.3,1,0.3,1.4c0,0.8,0,0.9,0.9,0.9
	c0.3,0,0.7,0.1,1,0.1c0.3,0,0.7,0.1,0.6,0.5c-0.1,0.3-0.4,0.6-0.6,0.7c-0.1,0.1-0.4,0-0.7,0c-0.1,0.8,0.4,1.9,1.1,2.6
	c0.2-0.2,0.4-0.4,0.5-0.6c0.2-0.4,0.5-0.5,0.9-0.6c1-0.1,1.1-0.4,0.7-1.3c0-0.1-0.1-0.2-0.1-0.3c0.6-0.4,1.3-0.4,1.7-0.1
	c0.5,0.3,0.7,0.9,1.1,1.4c0.4-0.4,0.7-0.7,1-1c1-0.7,1.8-0.3,1.8,0.9c0,0.8,0.1,1.5,1,2c0.2,0.1,0.2,0.4,0.3,0.6
	c0.6,0,1.3-0.1,1.9,0.4c0.6,0.5,1.6,0,2-0.7c0.1-0.2,0.2-0.4,0.3-0.6c0.1-0.3,0.1-0.6,0.1-0.8c-0.1-0.4-0.4-0.7-0.5-1
	c-0.7-1.2-0.3-1.9,1.2-2.2c0.5,0.9-0.6,1.5-0.4,2.2c0.8,0.1,1.2-0.1,1.6-0.8c0.2-0.6,0.4-1.2,0.6-1.8c0.2-0.5,0.4-1,1-1.2
	c0.5-0.2,0.8-0.1,1.1,0.4c0.2,0.5,0.5,0.9,0.7,1.4c0.6,1.1,1.4,1.7,2.7,1.6c0.4,0,0.7,0.2,1.1,0.3c0.4-0.4,0.4-1,0.5-1.5
	c0.1-0.4,0.1-0.8,0.7-0.9c0.2-0.1,0.4-0.4,0.6-0.6c0.8-1,1.1-1,2-0.2c0.2,0.2,0.3,0.3,0.4,0.5c-0.3,0.7-0.6,1.3-0.8,2
	c-0.2,0.6-0.2,1.2,0.4,1.5c0.6,0.3,0.3,1,0.6,1.5c0.6,0.2,0.8-0.3,1.2-0.5c0.8-0.5,0.9-0.5,1.7,0c0.3-0.1,0.6-0.3,1-0.4
	c0,0.3,0,0.6,0,0.9c0.3,0,0.6,0,0.9,0.1c0,0.5,0,0.9,0.1,1.6c0.5-0.1,0.8-0.3,1.2-0.4c0.3-0.1,0.6-0.2,0.8-0.1
	c0.7,0.6,1.6,0.6,2.4,0.6c0.2,0,0.4,0,0.6,0.1c0.6,0.1,1,0.6,1,1.2c0,0.3,0,0.6,0,0.9c0.6,0.3,1.1,0.1,1.6-0.1
	c0.3-0.1,0.6-0.2,0.8-0.1c0.4,0.1,0.7,0.3,0.6,0.8c0,0.2-0.1,0.3-0.1,0.5c0,1,0.4,1.5,1.5,1.6c0.3,0,0.6,0.1,1,0.1
	c0,0.4,0.1,0.8,0.1,1.2c0.2-0.2,0.4-0.3,0.4-0.3c0.6,0.1,1.1,0.3,1.5,0.3c1.2-0.1,2.3,0.1,3.5,0.4c0.6,0.2,1.2,0,1.9-0.2
	c0.8,0.3,1.4,0.8,1.8,1.7c0.2,0.4,0.4,0.7,1,0.6c0.4-0.1,0.6,0.2,0.9,0.5c0.4,0.4,0.8,0.7,1.4,0.5c0.2,0.3,0.3,0.7,0.5,0.8
	c0.8,0.4,1.1,1.2,1.6,1.8c0.1,0.2,0.1,0.5,0.1,0.7c0.1,0.6,0.1,1.2,0.3,1.7c0.2,0.7,0.4,1.3-0.3,1.7c0.2,0.3,0.3,0.6,0.4,0.8
	c0.1,0.2,0.1,0.4,0,0.5c-0.8,0.9-0.5,1.8,0,2.6c0.2,0.4,0.6,0.7,0.9,1c0.4,0.4,0.9,0.5,1.2,0c0.4,0.1,0.7,0.3,1.1,0.3
	c0.5,0.1,0.7,0.4,0.4,0.7c-0.9,1.3-0.4,2.4,0.3,3.6c0.5,0.9,0.8,1.9,1.3,2.9c0.4,1,0.6,1.2,1.4,1.4c0,0.3,0,0.5,0,0.8
	c0.1,0.1,0.1,0.1,0.2,0.1c0.5-0.1,0.8,0.1,1.2,0.4c1.4,1,2.4,0.7,3.3-0.7c0.2-0.4,0.5-0.8,0.7-1.1c1.1,0.5,1.2,0.9,0.7,1.9
	c-0.1,0.1-0.1,0.3-0.1,0.4c0.2,0.8-0.4,1.1-1,1.2c-1,0.2-1.3,0.8-1.3,1.7c0,0.2,0,0.4-0.1,0.6c-0.3,0.4-0.6,0.8-0.9,1.2
	c-0.2,0.4-0.4,0.8-0.7,1.2c0.1,0.1,0.4,0.3,0.4,0.4c0,0.8,0.1,1.6,0.6,2.3c-0.3,1,0.5,1.8,0.8,2.6c0.1,0.3,0,0.6-0.1,0.9
	c-0.5,1.1-0.4,2.2,0.2,3.3c-0.6,0.4-0.3,0.9,0,1.4c0.3,0.5,0.7,1,1.1,1.5c0.3,0.5,0.7,1.1-0.1,1.6c0.1,0.3,0.3,0.4,0.4,0.6
	c0.1,0.1,0.2,0.3,0.1,0.5c-0.3,0.6-0.6,1.2-0.9,1.9c0.1,0.1,0.2,0.2,0.3,0.3c-0.1,0.8-0.2,1.4-0.3,2.1c0,0.1,0,0.2,0,0.2
	c-0.7,0.4-0.4,1.2-0.7,1.8c-0.5,1-0.5,1.3,0.2,2.2c-0.1,0.2-0.3,0.3-0.5,0.5c0.4,0.5,0.6,1,0.3,1.6c-0.4,0.9-0.3,0.9,0.5,1.3
	c0.8,0.4,0.8,0.5,0.5,1.4c-0.3-0.1-0.6-0.1-0.8-0.3c-0.5-0.3-0.7-0.1-0.9,0.3c-0.6,1.5-1.6,2.9-1.3,4.7c0,0.2,0,0.4,0,0.6
	c-0.1,0.7,0,1.3-0.7,1.9c-0.5,0.5-0.7,1.4-1,2.1c-0.1,0.3-0.3,0.5-0.4,0.7c-0.1,0.4-0.2,0.8-0.2,1.2c0,0.3,0.2,0.7-0.3,0.9
	c-0.1,0-0.2,0.3-0.2,0.4c0,0.3,0,0.6-0.3,0.8c-0.1,0.1-0.2,0.2-0.2,0.3c0.2,1-0.4,1.3-1.1,1.6c-0.6,0.3-0.7,0.8-0.7,1.4
	c-0.1,0.4-0.1,0.9-0.1,1.4c-0.4,0-0.7,0.1-1,0.1c0,0.3-0.1,0.6-0.1,0.8c-0.2,0.1-0.5,0.2-0.6,0.4c-0.6,0.8-1.3,1.6-1.9,2.4
	c-0.2,0.2-0.2,0.6-0.2,0.9c-0.1,1-0.1,1.2-1,1.2c-0.6,0-0.8,0.5-1.1,0.8c-0.6,0.5-0.9,1.1-1.6,1.5c-0.1,0.1-0.2,0.3-0.3,0.5
	c-0.1,0.2-0.2,0.5-0.4,0.5c-0.8,0.2-0.9,0.7-0.8,1.5c-0.3,0.1-0.6,0.1-0.9,0.2c-0.6,0.1-0.7,0.2-0.6,0.9c0.1,0.3,0.2,0.7,0.3,1
	c0.1,0.3,0.1,0.5,0.2,1c-0.7-0.5-1.2-0.8-1.8-1.2c-0.1,0.4-0.2,0.7-0.3,1c-0.4,0.1-1,0.1-1.2,0.4c-0.2,0.2,0,0.8,0,1.3
	c-0.1,0-0.3,0-0.6,0c-1.2-0.1-1.2-0.1-1.7,1c-0.3,0-0.6,0-1,0.1c-0.2,0.6-0.5,1-1.4,1c-0.5,0-1.1,0.5-1.4,0.9
	c-0.4,0.5-0.2,1,0.1,1.6c0.2,0.5,0.4,1.1,0.6,1.6l0,0c-0.3,0-0.6,0.1-0.8-0.1c-0.4-0.4-1-0.7-1.1-1.5c0-0.2,0-0.4,0-0.7
	c-0.4,0.2-0.6,0.4-0.9,0.5c-0.7-0.6-0.9-0.6-1.2,0.2c-0.1,0.3-0.3,0.6-0.4,0.9c-0.4-0.2-0.7-0.5-1.1-0.5c-0.4-0.1-0.8,0-1.1,0.2
	c-0.1,0.1,0,0.6,0,0.9c0.1,0.5,0.5,0.9,0,1.4c-0.3-0.4-0.6-0.7-0.9-1.1c-0.4,0.2-0.7,0.4-1.3,0.7c0.4,0.2,0.6,0.4,0.8,0.5
	c-0.2,0.3-0.3,0.6-0.6,0.9c0.5,0.4,0.6,0.9,0.5,1.6c-0.1,0.6,0.4,0.8,1.1,0.7c0,0.7-0.1,1.4-0.1,2c-0.5,0.2-0.8,0-1.1-0.3
	c-0.3-0.4-0.6-0.8-0.7-1.2c-0.1-0.3,0.1-0.7,0.2-1.1c-0.5-0.2-0.5-0.8-0.5-1.3c0-0.2,0-0.3,0-0.5c0-0.9-0.4-1.1-1.2-0.7
	c-0.1,0-0.2,0.1-0.2,0.2c-1.1-0.6-1.8-0.3-2.3,0.9c-0.1,0.2-0.1,0.4-0.2,0.7l0,0c-0.4,0-0.8,0-1.2,0.1c-0.1-0.3-0.2-0.6-0.3-1
	c-0.7,0-1.3,0-2,0c-0.1,0.3-0.2,0.6-0.3,0.8c-0.7,0.5-1.4,0.2-2.3-0.9c-0.3,0.6-1.2,0.4-1.5,0.7c-0.6,0.5-1.2,0-1.9,0.4
	c0,0.3,0,0.6,0,1c0,0.3,0,0.6,0,0.9c-0.1,0-0.2,0-0.3,0c-0.1-0.3-0.2-0.6-0.3-1c-0.3-1-0.6-1.2-1.5-1c-0.2,0-0.3,0.1-0.5,0.1
	c-0.1,0-0.2,0.1-0.4,0.3c0.4,0.1,0.6,0.2,0.8,0.3c0.2,0.1,0.4,0.3,0.7,0.6c-1.4,0.1-1.4,0.1-1.8-0.7c-0.7-0.3-1.1,0.1-1.6,0.7
	c-0.1-0.3-0.2-0.5-0.3-0.8c-0.3-1-0.4-1.1-1.5-1.1c-0.9,0-1.8,0.1-2.6,0.1c-0.8,0-1.6-0.1-2.4-0.4c-1-0.4-1.3-0.3-1.5,0.8
	c-0.1,0.4-0.2,0.7-0.8,0.5c0-0.1,0-0.2,0-0.2c0.4-1.1,0-1.5-1.2-1.3c-0.4,0.1-0.6,0.2-0.6,0.6c0,0.2,0,0.5-0.1,0.7
	c-0.1,0.2-0.3,0.4-0.4,0.4c-0.2,0-0.4-0.2-0.5-0.3c-0.1-0.1,0-0.4,0-0.6c0-0.7-0.2-1.2-1-1.4c-0.3-0.1-0.5-0.4-0.8-0.6
	c-0.3-0.2-0.6-0.5-1-0.7c-1-0.5-1.4-0.4-2.1,0.5c-0.1,0.1-0.2,0.2-0.3,0.3c-0.6-0.2-0.9-0.6-1.2-1.1c-0.2-0.3-0.4-0.5-0.8-0.5
	c-0.1,0-0.3,0-0.4,0c-0.1-0.6-0.6-0.4-1.1-0.4c0-0.3,0-0.6-0.1-0.9c-0.7-0.3-0.8,0.4-1.3,0.6c-0.1-0.2-0.2-0.4-0.3-0.6
	c-0.2-0.5-0.5-0.7-1.1-0.6c-0.7,0.2-1-0.1-1.3-0.7c-0.2-0.4-0.5-0.9-0.7-1.3c-1-0.3-1.2,1.1-2.1,0.9
	C179.8,126.3,179.5,125.9,178.4,125.8L178.4,125.8z M216.7,129.2c-0.1,0-0.1,0-0.2,0c0.1,0,0.1,0.1,0.2,0.1l0,0l-0.1,0
	C216.6,129.2,216.6,129.2,216.7,129.2C216.7,129.1,216.7,129.1,216.7,129.2C216.7,129.1,216.7,129.2,216.7,129.2z M228.1,124.2
	c0,0,0-0.1,0.1-0.1C228.1,124.1,228.1,124.1,228.1,124.2L228.1,124.2L228.1,124.2z M224.3,126.1L224.3,126.1
	c-0.1-0.1-0.3-0.3-0.4-0.4c0.3-0.4,0.5-1,1.2-1c0,0.5,0.2,0.6,0.6,0.4c0.1-0.1,0.3-0.3,0.2-0.4c-0.2-0.4-0.4-0.3-0.7-0.1
	c-0.1,0-0.1,0.1-0.2,0.1c0.2-0.1,0.3-0.3,0.5-0.3c0.6,0,1-0.1,1.3-0.7c0.3-0.6,0.7-0.6,1.3-0.3c0.2,0.1,0.6,0.2,0.8,0.1
	c0.9-0.3,1.8-0.6,2.2-1.7c0.3-0.9,0.8-1,1.8-0.7c0.2,0.1,0.5,0.1,0.8,0.2c0.2-1.4,1.1-1.8,2.3-1.9c1-0.1,1.5-0.7,1.5-1.7
	c0-0.3,0-0.6,0-0.9c2.4,0.1,3.1-0.8,3.7-3.1c0.3,0,0.7,0,1,0c0.5,0.1,0.8-0.2,1.1-0.6c0.4-0.4,0.2-0.9,0.1-1.3
	c-0.2-1.1,0.3-1.8,1.4-1.9c0.3,0,0.6-0.1,1-0.1c-0.5-1.1-0.1-2,0.7-2.7c0.1-0.1,0.1-0.2,0.2-0.3c0.2-0.2,0.4-0.6,0.7-0.6
	c1-0.2,1.3-0.9,1.5-1.8c0.1-0.3,0.1-0.6,0.2-0.9c0.5-0.2,1-0.4,1.3-0.5c0.2-0.8,0.3-1.5,0.5-2c0.6-1.3,1.6-2.4,1.1-3.9
	c0.5-0.3,0.9-0.5,1.4-0.8c-0.1-0.2-0.1-0.3-0.2-0.4c-0.7-0.8-0.5-1.7,0-2.5c0.2-0.4,0.4-0.9,0.3-1.3c0-0.6,0.2-0.9,0.6-1.2
	c0.2-0.2,0.4-0.4,0.7-0.6c0.9-0.7,0.9-1.5,0.6-2.4c-0.1-0.2-0.2-0.4-0.2-0.6c0-0.2-0.1-0.6,0.1-0.7c0.5-0.6,0.4-1.1,0-1.6
	c-0.1-0.1-0.1-0.3-0.2-0.4c0.5-0.4,0.9-0.7,1.4-1.1c-0.5-0.5-1-0.9-1.4-1.3c0.2-0.4,0.4-0.8,0.5-1.1c-0.2-0.4-0.4-0.8-0.6-1.2
	c0.4-0.4,0.7-0.8,1-1.2c-0.3-0.4-0.6-0.8-0.8-1.1c1-1.6,1.3-3.2-0.1-4.8c0.1-0.1,0.1-0.3,0.2-0.4c0.5-0.6,0.7-1.1,0.2-1.8
	c-0.1-0.2-0.2-0.4-0.1-0.7c0.1-0.7-0.2-1.1-0.7-1.5c-0.8-0.7-1.4-1.4-0.6-2.5c0.1-0.1,0.1-0.3,0.1-0.5c0.2-1.1-0.2-2.3-1.5-2.5
	c-0.3,0-0.5-0.2-0.8-0.3c0.1-0.2,0.1-0.4,0.2-0.5c0.4-0.6,0.4-1.2-0.1-1.8c-0.6-0.6-0.9-1.4-0.9-2.3c0-0.6-0.3-1.2-0.5-1.8
	c-0.2-0.5-0.5-0.8-1-0.9c-1-0.3-1.4-0.8-1.3-1.9c0.1-0.7-0.2-1.1-0.8-1.4c-0.6-0.3-1.2-0.7-1.6-1.2c-0.4-0.7-0.9-1.2-1.6-1.6
	c-1-0.5-1.5-1.3-1.4-2.4c0-0.6-0.3-0.8-0.7-1c-0.3-0.1-0.6-0.4-0.8-0.7c-0.2-0.5-0.6-0.7-1.1-0.7c-0.3,0-0.8,0-0.9-0.2
	c-0.4-0.7-1-1-1.7-1.2c-0.1-0.6-0.2-1.1-0.3-1.6c-0.5-0.1-0.9-0.1-1.3-0.2c-0.5-1-0.5-1-1.6-1.7c-0.1-0.1-0.3-0.2-0.4-0.3
	c-0.3-0.6-0.7-0.7-1.4-0.5c-1,0.3-1.5,0-1.9-0.9c-0.1-0.3-0.2-0.7-0.4-1c-0.3,0-0.5,0-0.7,0c-0.5,0.1-0.9,0-1.1-0.6
	c-0.4-1-1.4-1.3-2.3-1.8c-0.3-0.2-1,0.2-1.5,0.3c-0.1,0-0.1,0-0.2,0c-0.1-0.1-0.2-0.2-0.2-0.3c-0.2-0.9-0.9-1.3-1.8-1.1
	c-0.9,0.1-1.6-0.2-2.1-0.9c0,0-0.1,0-0.2-0.1c-0.1,0.1-0.2,0.2-0.4,0.2c-1.1,0.7-1.5,0.6-2.3-0.3c-0.2-0.2-0.3-0.4-0.4-0.5
	c-0.1-0.1-0.3-0.3-0.5-0.3c-1.6-0.1-3.3-0.7-4.9,0.3c-0.6,0.3-1.1,0.6-1.8,0.3c-0.3-0.1-0.6,0-1,0c-0.4,0-0.9,0-1.2-0.2
	c-1-0.5-1.9-0.9-3-0.1c-0.6,0.4-1.3,0.4-1.9-0.1c-0.3-0.2-0.6-0.3-1-0.4c-1.8-0.2-3.4,0.2-4.6,1.6c-0.2,0.2-0.4,0.3-0.5,0.5
	c-0.5-0.3-1-0.6-1.5-1c-0.9,0.6-1.7,1.1-2.4,1.6c-0.4,0.3-0.8,0.5-1.3,0.3c-0.5-0.2-0.8,0.1-1.2,0.5c-0.6,0.7-1.3,0.8-2.1,0.5
	c-0.4-0.2-0.7-0.3-1.1-0.5c-0.5,0.5-1.1,0.9-1.6,1.4c-0.4,0.5-0.7,1.1-1,1.7c-0.5,0-1-0.2-1.5-0.1c-1.3,0.5-2.7,1-3.5,2.3
	c-0.1,0.3-0.5,0.5-0.8,0.6c-0.5,0.2-0.7,0.4-0.8,0.9c-0.1,0.2-0.1,0.5-0.2,0.8c-0.5,0.1-1,0.1-1.5,0.1c-0.1,0.3-0.2,0.5-0.3,0.8
	c-0.4,1-0.8,1.2-1.8,1.2c-0.3,0-0.6,0-0.8,0c0,0.4,0,0.6,0,0.9c0,0.2,0,0.5,0,0.8c-0.3,0-0.5,0-0.7,0c-1.1,0-1.6,0.4-1.6,1.5
	c0,1.2-0.7,2.1-1.4,2.8c-1,0.8-1.8,1.8-2.3,2.9c-0.5,1-1.2,1.2-2.1,1.4c-0.1,0-0.1,0.1-0.2,0.2c0,0.5,0.1,1,0.1,1.6
	c0,0.5,0,1.1-0.5,1.3c-0.8,0.4-1.2,1.2-1.3,1.9c-0.3,1.4-0.9,2.6-2.1,3.3c-0.2,0.1-0.3,0.4-0.3,0.6c0.1,0.4,0.4,0.9,0.4,1.3
	c0,0.4-0.3,0.8-0.4,1.2c-0.1,0.2,0,0.5-0.3,0.6c-0.1,0-0.2,0.2-0.2,0.4c0,0.6,0,1.2-0.1,1.7c0,0.4-0.2,0.9-0.3,1.4
	c0,0.1,0.2,0.2,0.3,0.4c-0.4,0.3-0.8,0.6-1.2,1c0.2,1-0.3,1.7-0.9,2.3c0.3,0.4,0.7,0.7,0.7,1.1c0,0.9,0,1.9-0.2,2.8
	c-0.2,1-0.5,1.9,0.3,2.8c-0.8,0.6-0.3,1.3-0.4,2c-0.2,1,1,0.9,1.1,1.7c-0.7,0.2-0.8,0.8-0.7,1.5c0.1,0.4,0.1,0.9,0.3,1.3
	c0.2,0.5,0.2,0.9,0,1.4c-0.1,0.2-0.2,0.7-0.1,0.8c0.6,0.7,0.4,1.4,0.3,2.1c0,0.3-0.1,0.7,0.1,0.8c0.4,0.3,0.4,0.8,0.5,1.2
	c0.1,0.3,0.2,0.7,0.4,0.8c0.2,0.1,0.6,0,1.1,0c-0.4,0.5-0.7,0.9-1.1,1.2c0.1,0.3,0.2,0.7,0.4,1c0.4,1.1,0.6,2.3,1,3.4
	c0.7,2.1,2,3.8,3,5.7c0.1,0.2,0.3,0.4,0.4,0.5c0.5,0.4,0.8,1,0.7,1.7c0.7,0,1,0.2,1.1,0.9c0.1,0.6,0.4,1.4,1.3,1.6
	c0.2,0,0.4,0.4,0.5,0.6c0.2,0.3,0.3,0.6,0.5,0.9c0.2,0.2,0.5,0.5,0.7,0.6c0.3,0,0.5-0.3,0.9-0.5c-0.3,1.4,0.4,2.2,1.4,3
	c0.5,0.4,1,0.9,1.5,1.4c1.1,0.9,1.9,2.2,3.3,2.6c0.1,0,0.2,0.1,0.3,0.2c0.3,0.7,1,0.9,1.7,1.3c0.4,0.2,0.8,0.5,1,0.8
	c0.2,0.4,0.4,0.7,1,0.6c0.2,0,0.5,0.2,0.7,0.4c0.6,0.6,1.3,1.1,2.2,1.1l0,0c0,0.8,0,0.8,0.7,0.8c0.4,0,1.1,0,1.2,0.2
	c0.3,0.8,1,0.6,1.5,0.8c0.4,0.1,0.9,0.1,1.2,0.4c0.7,0.6,1.4,0.9,2.3,1c0.6,0.1,1.2,0.2,1.4,1c1-0.4,1.8,0,2.7,0.3
	c0.4,0.1,0.7,0.3,1.1,0.4c0.6,0.2,1.2,0.3,1.6-0.4c0.1-0.1,0.3-0.1,0.4-0.2c0.2,0.4,0.3,0.8,0.5,1.2c0.8,0,1.6,0,2.3,0
	c0.9,0,1.8,0,2.7,0.4c0.6,0.2,1.4,0.2,2.1,0.1c0.9-0.1,1.8-0.4,2.7-0.6c0.1,0.4,0.3,0.6,0.7,0.6c1.3-0.1,2.7-0.1,4-0.3
	c0.8-0.1,1.5-0.5,2.2-0.7c0.1,0,0.2-0.1,0.2-0.2c0.1-0.6,0.6-0.8,1-1c0.3,0.2,0.5,0.2,0.7,0.4c0.4,0.4,0.7,0.2,1-0.2c0,0,0,0,0,0
	c0,0,0,0,0,0c0-0.1,0-0.2,0.1-0.3c0.3-0.8,0.5-0.8,1.1-0.1c0,0,0.1,0.1,0.1,0.2l0,0l0-0.1c0.3,0.1,0.5,0.2,0.8,0.3
	c0.1-0.2,0.3-0.4,0.4-0.5c0.3-0.7,0.8-0.9,1.6-0.8c0.5,0,1,0,1.4-0.1C224.1,125.9,224.2,126,224.3,126.1z M158.4,52.8
	c-0.1,0-0.3-0.1-0.4-0.1c0,0,0,0.1,0,0.1C158.1,52.8,158.3,52.8,158.4,52.8c-0.2,0.4-0.1,0.8,0.3,1.1c0.4-0.2,0.7-0.5,1.2-0.8
	C159.3,53,158.8,52.9,158.4,52.8z M168.7,41.8c1.1,0.1,2.1-0.7,2.2-1.6c0-0.5-0.4-0.8-0.9-0.7c-0.4,0.1-0.7,0.3-1.1,0.4
	c0.2,0.3,0.3,0.6,0.4,0.8C169.1,41.2,168.9,41.5,168.7,41.8z M170.1,117.7c-0.3,0.1-0.5,0.1-0.6,0.1c-0.1,0.1-0.1,0.2-0.1,0.4
	c0,0,0.1,0,0.1,0.1C169.6,118.1,169.8,118,170.1,117.7z M175.9,31.6c-0.1-0.1-0.1-0.2-0.2-0.2c-0.1,0.1-0.3,0.3-0.4,0.4
	c0,0.1,0.1,0.1,0.1,0.2C175.6,31.8,175.8,31.7,175.9,31.6z M160.4,51.5c-0.2-0.1-0.2-0.2-0.3-0.2c-0.1,0.1-0.1,0.2-0.1,0.3
	c0,0.1,0.1,0.2,0.2,0.2C160.1,51.7,160.2,51.6,160.4,51.5z M154.8,64.3c0.1,0.1,0.1,0.1,0.2,0.2c0.1-0.1,0.2-0.2,0.4-0.4
	c0,0-0.1-0.1-0.1-0.1C155,64.1,154.9,64.2,154.8,64.3z M158.3,51.9C158.3,51.8,158.3,51.8,158.3,51.9c-0.1,0-0.1,0-0.1,0
	C158.2,51.9,158.3,51.9,158.3,51.9C158.3,51.9,158.3,51.9,158.3,51.9z M156.5,62.1C156.5,62.1,156.5,62.1,156.5,62.1
	C156.5,62.1,156.5,62.2,156.5,62.1C156.5,62.2,156.5,62.2,156.5,62.1z"/>
<path d="M135.9,72.9c0.9-0.2,1.6,0.3,2.1,1.1c0.9,1.7,0.9,1.7,2.6,2.4c0.1,0.9-0.5,1.3-1.4,1.5c0.1,0.4,0.2,0.8,0.3,1.2
	c-0.1,0.2-0.3,0.4-0.4,0.6c-0.4,0.6-0.7,0.6-1.3,0.3c-0.3-0.2-0.8-0.3-1.2-0.4c-0.8-0.2-1.3-0.7-1.5-1.4c0-0.2-0.2-0.3-0.3-0.4
	c-0.1-0.2-0.3-0.4-0.3-0.5c0.1-0.4-0.2-0.7-0.4-0.9c-0.4-0.3-0.6-0.5-0.6-1c0.1-0.6,0.2-1.1,0.7-1.5c0.2-0.1,0.4-0.2,0.6-0.3
	C135.2,73.3,135.6,73.1,135.9,72.9z"/>
<path d="M147.7,87.1c0.6-0.2,1.2-1.1,1.1-1.6c0-0.3-0.2-0.6-0.2-0.8c-0.1-0.4-0.3-0.9-0.1-1.1c0.3-0.4,0.8,0,1.2,0.1
	c0.4,0.1,0.8,0.1,1.2,0.2l0,0c-0.3,1-0.5,2.1-1.7,2.5c-0.2,0.1-0.3,0.5-0.3,0.7c0,0.3,0.1,0.6,0.1,0.9c-1,0.2-1.9,0.6-2.9,1
	c0,0-0.2-0.2-0.4-0.4c-0.3,0.3-0.6,0.5-0.8,0.8c-0.6,0.8-0.6,0.8-1.5,0.5c-0.2-0.1-0.5-0.2-0.8-0.3c0.1-0.7,0.2-1.4,0.4-2.1
	c0-0.2,0.2-0.3,0.3-0.4c0.5-0.4,1-0.9,1.5-1.3c0.5-0.4,1.1-0.3,1.8-0.1c-0.3,0.6-0.5,1.2-0.8,2C146.5,87.7,147.2,87.8,147.7,87.1
	L147.7,87.1z"/>
<path d="M1.3,74.3c-0.1,0.3-0.2,0.6-0.4,0.8c-0.1,0.1-0.5,0.1-0.5,0c-0.1-0.5-0.6-1-0.3-1.6c0.3-0.6,0.5-1.1,0.7-1.7
	c0.7-1.8,1.6-2,3.4-1.8c0.6,0.1,0.9,0.8,0.5,1.4c-0.2,0.3-0.3,0.6-0.4,1c0,0.3-0.4,0.6-0.7,0.8c-0.4,0.2-0.5,0.9-1.1,0.5
	c-0.1,0-0.3,0.4-0.5,0.5C1.8,74.4,1.5,74.3,1.3,74.3z"/>
<path d="M49,142.3c0.1-0.6,0.1-1,0.3-1.4c0.3-0.7,0.4-1.5,0.4-2.3c0-0.8,0.3-1.6,0.5-2.5c0.7,0.1,1.3,0.2,1.8,0.4
	c0.7,0.3,0.9,1,0.4,1.6c-0.4,0.4-0.2,0.9-0.2,1.3c0,0.5,0,1-0.7,1.2c-0.2,0.1-0.4,0.5-0.5,0.7c-0.2,0.9-0.2,0.9-1.1,1
	C49.7,142.3,49.5,142.3,49,142.3z"/>
<path d="M183.1,136.2c0.6-0.1,1.2-0.1,1.8,0.3c0.6,0.4,0.8,1,0.3,1.5c-0.4,0.4-0.4,0.8-0.3,1.3c0.1,0.6,0.1,1.2-0.7,1.4
	c-0.4,0.1-0.4,0.5-0.5,0.9c-0.1,0.3-0.2,0.7-0.4,0.7c-0.5,0.1-1,0.1-1.4,0c-0.1,0-0.2-0.4-0.1-0.6c0.1-0.3,0.2-0.7,0.3-1
	c0.1-0.5,0.3-0.9,0.3-1.4C182.4,138.1,182.5,137.2,183.1,136.2z"/>
<path d="M55.1,6.9c-0.3-0.2-0.5-0.4-0.7-0.6c-0.8-1.1-0.8-2.4-0.7-3.7c0-0.3,0.4-0.6,0.8-0.7c1-0.3,2.1,0.4,2.1,1.5
	c0,0.8-0.1,1.5-0.7,2.1C55.5,5.9,55.4,6.4,55.1,6.9z"/>
<path d="M130.6,83.3c1.2,0,2.3-0.2,3,0.9c0.1,0.2,0.6,0.2,1,0.3c0,0.4-0.1,0.8-0.1,1.3c-1.8-0.4-3.4,0.1-5,0.7
	c-0.3-0.8-0.2-0.7,0.4-1.5C130.2,84.5,130.9,84.1,130.6,83.3z"/>
<path d="M262.6,86.1c-0.4-0.4-0.4-0.8,0.1-1.2c0.5-0.4,1-0.7,1-1.5c0-0.1,0.2-0.3,0.4-0.4c0.9-0.1,1.7,0.1,2.4,0.5
	c0.2,0.1,0.2,0.4,0.3,0.6c0.3,0,0.5,0,0.9,0c0,0.5-0.1,0.9-0.1,1.4C265.8,85,264.2,85.8,262.6,86.1L262.6,86.1z"/>
<path d="M257.4,48.1c0.4,0.1,1,0.2,1.2,0.5c0.3,0.5-0.1,1-0.5,1.4c-0.6,0.8-1.3,1.4-2.3,1.6c-0.3,0.1-0.9,0.1-1.1-0.1
	c-0.2-0.2-0.3-0.8-0.1-1.1c0.3-0.7,0.6-1.4,1.1-2C256.1,48.2,256.8,48.2,257.4,48.1z"/>
<path d="M122.4,52.1c-0.6,0-0.9-0.2-0.8-0.8c0.1-0.5,0.3-0.9,0.5-1.4c0.1-0.3,0.4-0.6,0.6-0.9c0.1-0.1,0.2-0.3,0.4-0.3
	c0.7-0.1,1.4-0.1,2.1-0.1c0.4,0,0.6,0.3,0.5,0.8C125.5,50.4,123.4,52.1,122.4,52.1z"/>
<path d="M139.7,81c0.8,0.2,1.6,0.4,2.5,0.6c-0.1,0.2-0.2,0.5-0.4,0.6c-0.8,0.5-1.6,1-2.4,1.4c-0.7,0.4-1.1,0.1-1.1-0.7
	c-0.1-0.8,0.5-1.1,1-1.6C139.4,81.2,139.6,81.1,139.7,81z"/>
<path d="M226.1,22.1c0.5-0.3,0.9-0.9,1.6-0.7c0.4,0.1,1,0.1,1.2,0.4c0.4,0.6-0.1,1.3-0.3,1.9c-0.2,0.5-0.8,0.5-1.3,0.4
	C226.4,23.9,226.1,23.3,226.1,22.1z"/>
<path d="M93.1,22.6c0.7-0.4,1.2-0.9,2.1-0.7c0.8,0.2,1,0.4,0.8,1.2c-0.2,1.2-0.5,1.5-1.3,1.5c-0.8,0-1.4-0.6-1.6-1.7
	C93.1,22.8,93.1,22.7,93.1,22.6z"/>
<path d="M97.2,5.8c0.3,0.2,0.7,0.3,0.9,0.6c0.2,0.3,0,0.7-0.3,0.9c-0.1,0.1-0.1,0.2-0.2,0.3c-0.2,0.3-0.3,0.6-0.5,0.7
	c-0.4,0.2-0.9,0.3-1.3,0.3c-0.4,0-0.7-0.4-0.7-1C95.2,6.9,96.3,5.9,97.2,5.8z"/>
<path d="M265,81.6c0.2-0.5,0.4-0.8,0.6-1.2c-0.2-0.3-0.5-0.6-0.8-0.9c0.4-0.3,0.8-0.5,1.2-0.8c0,0,0.1,0,0.2,0.1
	c0.8,0.5,1.4,1.7,1.1,2.1C266.7,81.5,265.9,81.5,265,81.6z"/>
<path d="M152.5,62.5c-0.6-0.2-1.1-0.3-1.7-0.5c0-0.1,0-0.1,0-0.2c0.7-0.3,1.3-0.6,2-0.9c-0.3-0.5-0.7-0.3-1-0.3c-0.3,0-0.6,0-1.2,0
	c0.3-0.2,0.4-0.4,0.5-0.4c0.9-0.2,1.8-0.1,2.7,0.2c0.2,0.1,0.4,0.2,0.5,0.4c0.1,0.2,0.1,0.5,0,0.6c-0.1,0.1-0.4,0.3-0.6,0.2
	c-0.3-0.1-0.6-0.2-1-0.4C152.7,61.6,152.6,62,152.5,62.5L152.5,62.5z"/>
<path d="M131.7,79.7c0.5-0.3,0.8-0.5,1.3-0.8c0.3,0.1,0.6,0.4,0.9,0.9c0.6,1.2,0.5,1.7-0.8,1.9c-0.3,0.1-0.6,0.1-1.1,0.2
	c0.3-0.5,0.5-0.9,0.6-1.2C132.3,80.4,132,80.1,131.7,79.7z"/>
<path d="M62.1,15.9c-0.6-0.4-0.4-0.8-0.4-1.2c0-0.6,0.3-1.2-0.4-1.7c-0.4-0.3,0-1.4,0.5-2.1c0.8,0.5-0.4,1.7,0.8,2
	c-0.4,0.5-0.6,1-0.3,1.6C62.6,15,62.3,15.4,62.1,15.9z"/>
<path d="M31.9,2.8c0,0.5-0.3,0.9-0.8,0.9c-0.5,0-0.9-0.5-0.9-1.2c0-0.7,0.3-1.2,0.7-1.2C31.4,1.3,31.9,2.1,31.9,2.8z"/>
<path d="M18.2,73.9c-0.2,0.5-0.4,1-0.6,1.4c-0.2,0.4-0.6,0.5-1,0.2c-0.4-0.2-0.4-0.6-0.2-0.9c0.2-0.4,0.4-0.8,0.7-1.1
	c0.2-0.2,0.5-0.3,0.7-0.3C17.9,73.2,18,73.6,18.2,73.9z"/>
<path d="M150.3,72.8c0.4,0.8,0.3,2-0.4,2.4c-0.2,0.1-0.6,0.1-0.9,0.1c-0.4-0.1-0.4-0.5-0.2-0.8C149.2,73.6,149.5,73.2,150.3,72.8z"
	/>
<path d="M186.6,134.3c0.5,0.2,0.8,0.5,1.2,0.7c-0.3,0.7-1.1,1.3-1.7,1.2c-0.5-0.1-0.7-0.4-0.7-1.2
	C185.9,134.7,186.3,134.5,186.6,134.3z"/>
<path d="M154.6,97.4c-0.5-0.4-0.3-0.7-0.2-1.1c0-0.9,0.2-1.9-0.8-2.4c-0.1-0.1-0.2-0.3-0.3-0.7c0.5,0.2,0.8,0.4,1.1,0.5
	c0.3,0.1,0.6,0.1,1,0.2c0.2,0.7-0.2,1.3-0.4,1.9C154.7,96.2,154.7,96.8,154.6,97.4z"/>
<path d="M73.7,147.3c0.7,0.9,0.7,2.3-0.1,3.3C72.9,149.9,72.9,148.6,73.7,147.3z"/>
<path d="M206.5,147.4c0.7,0.9,0.6,2.4-0.2,3.3C205.7,149.9,205.7,148.6,206.5,147.4z"/>
<path d="M20.2,61.3c0.1-0.6-0.4-0.5-0.7-0.5c-0.4,0-0.8,0-1.2,0.1c0-0.1,0-0.1-0.1-0.2c0.1-0.1,0.2-0.2,0.3-0.2
	c0.9-0.2,1.8-0.2,2.7,0.2c0.2,0.1,0.4,0.2,0.5,0.3c0.1,0.2,0.1,0.5,0,0.7c-0.1,0.1-0.4,0.2-0.5,0.2C20.9,61.7,20.6,61.5,20.2,61.3
	C20.2,61.3,20.2,61.3,20.2,61.3z"/>
<path d="M170.8,28.3c-1-0.4-1-1.3-1.3-2.1c0-0.1,0.1-0.4,0.3-0.4c0.2-0.1,0.5,0,0.7,0.1c0.5,0.4,0.6,1,0.6,1.6
	C171,27.8,170.9,28,170.8,28.3z"/>
<path d="M32,18.2c1.1-0.5,2,0.1,2.2,1.4c-0.2,0-0.4,0-0.6,0C32.3,19.5,32.3,19.5,32,18.2z"/>
<path d="M38.2,28.8c-1-0.4-1-1.3-1.3-2.1c-0.1-0.3,0.5-0.7,0.8-0.5c0.3,0.2,0.5,0.5,0.7,0.8C38.5,27.6,38.4,28.2,38.2,28.8z"/>
<path d="M11.1,82.9c0.1-0.3,0.1-0.5,0.3-0.7c0.3-0.4,1.1-0.6,1.4-0.3c0.3,0.3,0.2,0.7-0.3,1.2c-0.1,0.1-0.2,0.2-0.3,0.3
	c-0.2,0.1-0.5,0.2-0.7,0.1C11.3,83.4,11.2,83.1,11.1,82.9z"/>
<path d="M148.9,83.3c-0.4-1-0.1-1.6,0.7-1.8c0.2,0,0.5,0,0.6,0.1c0.1,0.2,0.2,0.5,0.1,0.7C150,82.9,149.7,83.4,148.9,83.3z"/>
<path d="M225.8,17.8c0.4,0.2,0.8,0.4,1.3,0.6c-0.3,0.7-0.8,1.1-1.4,1.1c-0.2,0-0.5-0.1-0.6-0.2c-0.1-0.1,0-0.4,0.1-0.6
	C225.3,18.4,225.5,18.1,225.8,17.8z"/>
<path d="M195.5,137.8c-0.7-0.6-0.7-1.1-0.5-1.7c0.2-0.6,0.5-1,1.3-0.9C196.1,136.1,195.8,136.9,195.5,137.8z"/>
<path d="M92.9,18.3c0.4,0.2,0.8,0.3,1.2,0.5c-0.3,0.8-0.8,1-1.4,1.1c-0.1,0-0.4-0.1-0.5-0.2c-0.1-0.2,0-0.4,0.1-0.6
	C92.4,18.9,92.6,18.7,92.9,18.3z"/>
<path d="M130,80.8c-0.4-0.2-0.8-0.4-1.2-0.7c-0.1-0.1-0.2-0.4-0.2-0.6c0.1-0.1,0.4-0.3,0.5-0.3c0.3,0.1,0.7,0.2,0.9,0.4
	C130.4,79.9,130.4,80.4,130,80.8z"/>
<path d="M263.2,80.5c-1.3-0.3-1.5-0.5-1.5-1.4c0.5-0.2,1-0.2,1.4,0.2C263.4,79.6,263.5,80,263.2,80.5z"/>
<path d="M41.7,28.9c-0.1,0.6-0.5,0.8-1,0.8c-0.5-0.1-0.8-0.5-0.9-1.2C40.5,28.2,41,28.6,41.7,28.9z"/>
<path d="M212,19.8c0-0.5-0.1-0.9,0-1.3c0-0.2,0.3-0.4,0.5-0.4c0.1,0,0.3,0.2,0.5,0.4c0.1,0.1,0.1,0.3,0.1,0.5
	C213.2,19.7,213,19.9,212,19.8z"/>
<path d="M174.3,28.4c-0.1,0.7-0.5,0.8-1,0.8c-0.6-0.1-0.9-0.5-1-1.2C173.2,27.6,173.7,28.2,174.3,28.4z"/>
<path d="M80.2,20.3c-0.4,0-0.7,0-1,0c0-0.4-0.1-0.9,0-1.3c0-0.2,0.3-0.5,0.5-0.5c0.2,0,0.5,0.3,0.5,0.5
	C80.2,19.4,80.2,19.8,80.2,20.3z"/>
<path d="M178.8,129c-0.5,0.4-0.5,0.4-1.4,0.2c0-0.6,0.6-0.5,0.8-0.8c-0.1-0.3-0.2-0.6-0.2-0.9c0-0.1,0.4-0.1,0.6-0.2
	C178.7,127.9,178.7,128.4,178.8,129z"/>
<path d="M169.7,123.8c0.3,0.4,0.6,0.8,0.9,1.2c-0.5,0.2-0.9,0.4-1.3,0.6c-0.6-0.7,0.1-1.2,0.2-1.7
	C169.5,123.8,169.6,123.8,169.7,123.8z"/>
<path d="M36.6,125.7c-0.6-0.8,0.2-1.3,0.2-1.9c0.5,0.3,1,0.6,0.9,1.1C37.6,125.2,37,125.4,36.6,125.7z"/>
<path d="M20.2,61.3c-0.1,0.5-0.2,0.9-0.3,1.5c-0.6-0.2-1.1-0.3-1.6-0.5c0-0.1,0-0.2,0-0.2C18.9,61.8,19.6,61.6,20.2,61.3L20.2,61.3z
	"/>
<path d="M150.5,49.2c-0.2,0.6-0.6,0.9-1.2,0.8c-0.1,0-0.3-0.2-0.4-0.3c0-0.1,0-0.3,0.1-0.4C149.3,48.9,149.9,48.8,150.5,49.2z"/>
<path d="M133,102.4c-0.1-0.1-0.3-0.2-0.4-0.4c-0.1-0.3,0.5-0.7,1-0.7c0.2,0,0.5,0.2,0.5,0.4C134.3,102,133.7,102.4,133,102.4z"/>
<path d="M266.1,102.2c-0.1-0.1-0.3-0.2-0.4-0.4c-0.1-0.3,0.4-0.8,1-0.7c0.2,0,0.5,0.2,0.6,0.4C267.4,101.8,266.8,102.2,266.1,102.2z
	"/>
<path d="M273.5,114c-0.5,0-0.8-0.1-0.9-0.6c0-0.4,0.3-0.6,0.6-0.6c0.4,0,0.8,0.1,0.9,0.6C274.2,113.9,273.9,114,273.5,114z"/>
<path d="M107.6,140.1c-0.1,0.4-0.4,0.5-0.8,0.5c-0.4,0-0.7-0.1-0.7-0.6c0-0.4,0.3-0.6,0.7-0.6C107.3,139.4,107.6,139.7,107.6,140.1z
	"/>
<path d="M141.1,113.8c-0.2,0.1-0.5,0.3-0.8,0.4c-0.4,0-0.7-0.2-0.7-0.6c0-0.5,0.4-0.6,0.8-0.5C140.8,113,141.1,113.1,141.1,113.8z"
	/>
<path d="M239.9,139.4c0.4,0.1,0.7,0.2,0.7,0.6c0,0.5-0.4,0.6-0.8,0.6c-0.4,0-0.7-0.2-0.7-0.6C239.1,139.5,239.5,139.5,239.9,139.4z"
	/>
<path d="M26.8,23.8c0.9-0.1,1.5,0.5,2.3,0.7C28.2,25.1,27.3,24.8,26.8,23.8L26.8,23.8z"/>
<path d="M40.7,23.7c0.1-0.6,0.5-0.7,1-0.6c0.5,0.1,0.6,0.4,0.4,1.2C41.7,24.1,41.2,23.9,40.7,23.7z"/>
<path d="M174.8,23.7c-0.5-0.2-1-0.3-1.4-0.4c0.1-0.5,0.4-0.8,0.9-0.7C174.7,22.6,174.9,22.9,174.8,23.7z"/>
<path d="M15.1,48.2c0.2,0.5,0.5,0.8,0.6,1.2c0,0.2-0.1,0.4-0.2,0.6c-0.2-0.1-0.4-0.2-0.5-0.3C14.8,49.2,14.6,48.8,15.1,48.2z"/>
<path d="M272.6,145.3c-0.6-0.2-0.8-0.6-0.9-1.1c0-0.1,0.1-0.3,0.2-0.4c0.1-0.1,0.2,0,0.3,0C272.6,144,272.8,144.6,272.6,145.3z"/>
<path d="M147.5,47.9c0.6,0.2,0.8,0.7,0.8,1.2c0,0.1-0.1,0.3-0.2,0.4c-0.1,0-0.3,0-0.4-0.1C147.3,49,147.2,48.5,147.5,47.9z"/>
<path d="M23.8,48.4c0.5,0.4,0.9,0.7,1.4,1.1c-0.1,0.4-0.4,0.5-0.7,0.3C23.9,49.5,23.6,49.1,23.8,48.4z"/>
<path d="M5.3,115.3c-0.7-0.2-1.4,0-2-0.6C3.9,114.1,4.5,114.3,5.3,115.3L5.3,115.3z"/>
<path d="M139.5,145.4c-0.4-0.5-0.7-0.8-0.8-1.1c-0.1-0.1,0.1-0.4,0.1-0.6c0.2,0.1,0.4,0.1,0.5,0.2
	C139.6,144.2,139.8,144.7,139.5,145.4z"/>
<path d="M151.5,115.2c-0.7,0.1-1.3,0-1.9-0.5C150.2,114,150.7,114.1,151.5,115.2L151.5,115.2z"/>
<path d="M183.6,133.7c-0.1-0.4-0.1-0.8-0.2-1.5c0.4,0.1,0.8,0.1,0.8,0.2c0.3,0.5-0.1,0.9-0.3,1.3
	C183.8,133.7,183.7,133.7,183.6,133.7z"/>
<path d="M17.7,49.6c-0.3,0.6-0.7,0.7-1.3,0.7c-0.2-0.4-0.1-0.6,0.2-0.8C17,49.3,17.4,49.1,17.7,49.6z M17.3,49.8L17.3,49.8
	L17.3,49.8L17.3,49.8L17.3,49.8z"/>
<path d="M156.3,47.9c0.6,0.5,1,0.8,1.4,1.2C156.8,49.5,156.3,49.1,156.3,47.9z"/>
<path d="M21.8,52.2c-0.1-0.4-0.1-0.8-0.1-1.1c0.1,0,0.2-0.1,0.2-0.1c0.2,0.2,0.5,0.3,0.6,0.5C22.6,51.8,22.4,52.1,21.8,52.2z"/>
<path d="M42.7,5.2c0.4-0.7-1-1-0.2-1.8C43.2,4.9,43.2,4.9,42.7,5.2z"/>
<path d="M194.9,15.4c-0.7-0.3-0.5-0.8-0.4-1.1c0.1-0.1,0.4-0.2,0.5-0.3c0.1,0.1,0.1,0.1,0.2,0.2C195.1,14.5,195,14.9,194.9,15.4z"/>
<path d="M149.9,89.5c-0.4,0.2-0.6,0.4-0.9,0.5c0,0-0.2-0.2-0.3-0.3c0-0.3,0.4-0.7,0.7-0.6C149.5,89.1,149.6,89.3,149.9,89.5z"/>
<path d="M8.3,89.2c-0.1,0.3-0.1,0.6-0.2,0.7c-0.1,0.2-0.4,0.2-0.6,0.3c-0.1,0-0.3-0.2-0.2-0.2c0.1-0.2,0.2-0.4,0.3-0.5
	C7.8,89.3,8,89.3,8.3,89.2z"/>
<path d="M269.4,140.1c-0.4,0.3-0.6,0.5-0.9,0.6c0,0-0.2-0.2-0.3-0.2c0.2-0.2,0.4-0.5,0.7-0.7C269,139.7,269.2,139.9,269.4,140.1z"/>
<path d="M49.6,135.8c-0.3-0.9-0.1-1,0.8-0.9C50.1,135.3,49.8,135.6,49.6,135.8z"/>
<path d="M136.1,139.7c0,0.2,0.1,0.5,0,0.6c-0.2,0.2-0.4,0.3-0.6,0.4c0,0-0.3-0.2-0.3-0.2c0.1-0.2,0.2-0.4,0.4-0.6
	C135.6,139.8,135.8,139.8,136.1,139.7z"/>
<path d="M33.8,134c0.2-0.2,0.4-0.5,0.6-0.7c0.4,0.1,0.5,0.4,0.3,0.6c-0.2,0.2-0.6,0.2-0.9,0.3C33.9,134.2,33.9,134.1,33.8,134z"/>
<path d="M182.9,134.8c0.1,0.6-0.2,0.8-0.6,0.9c-0.1,0-0.3-0.2-0.3-0.4C181.9,135,182.2,134.9,182.9,134.8z"/>
<path d="M167.4,133.3c0,0.2,0.1,0.6,0.1,0.7c-0.3,0.2-0.6,0.2-0.9,0.3c0-0.1-0.1-0.1-0.1-0.2c0.2-0.3,0.5-0.5,0.7-0.8
	C167.2,133.3,167.3,133.3,167.4,133.3z"/>
<path d="M164.2,41.4c-0.1-0.5-0.2-0.9-0.3-1.4c0.1,0,0.2,0,0.2-0.1c0.2,0.4,0.6,0.8,0.4,1.4C164.3,41.4,164.3,41.4,164.2,41.4z"/>
<path d="M31.5,40.4c0.1,0.4,0.6,0.8,0.1,1.4c-0.1-0.5-0.2-0.9-0.4-1.4C31.3,40.4,31.4,40.4,31.5,40.4z"/>
<path d="M221,134.2c0.2,0.1,0.5,0.2,0.7,0.3c0.1,0.1,0.1,0.3,0.1,0.5c0,0.1-0.2,0.2-0.3,0.2c-0.1,0-0.3-0.1-0.3-0.3
	C221,134.7,221,134.4,221,134.2L221,134.2z"/>
<path d="M160,118c0.3-0.4,0.7-0.5,1.2,0.2c-0.5,0-0.8,0.1-1.2,0.1C160,118.2,160,118.1,160,118z"/>
<path d="M154.8,51.3c-0.1,0.1-0.3,0.1-0.4,0.2c0-0.3-0.1-0.5-0.2-0.9C154.9,50.7,155.1,50.9,154.8,51.3c-0.1-0.1-0.2-0.2-0.2-0.4
	l0-0.1l0,0C154.7,51.1,154.7,51.2,154.8,51.3z"/>
<path d="M150.4,67c0.7-0.7,0.7-0.7,1.2,0C151.3,67,150.9,67,150.4,67z"/>
<path d="M19,67.3c-0.3,0-0.7,0-1.1,0C18.4,66.7,18.5,66.7,19,67.3z"/>
<path d="M131.2,87.2c0.3-0.3,0.4-0.5,0.6-0.7c0.1,0.1,0.2,0.1,0.2,0.2c0,0.2,0,0.5-0.1,0.7C131.7,87.3,131.5,87.3,131.2,87.2z"/>
<path d="M28.6,118.3c-0.5,0-0.8,0-1.2,0C27.9,117.6,27.9,117.6,28.6,118.3z"/>
<path d="M265.1,86.4c0,0.2-0.1,0.5-0.1,0.7c-0.2-0.1-0.5-0.2-0.8-0.3c0.3-0.3,0.5-0.4,0.7-0.5C264.9,86.3,265,86.4,265.1,86.4z"/>
<path d="M202.4,134.8c-0.2,0.1-0.5,0.1-0.7,0.2c0-0.1-0.1-0.4,0-0.4c0.2-0.1,0.5-0.1,0.7-0.2C202.3,134.6,202.3,134.7,202.4,134.8z"
	/>
<path d="M261.1,94.1c-0.2,0.1-0.4,0.3-0.8,0.4c0-0.3,0-0.6,0-0.6c0.2-0.1,0.5-0.1,0.7-0.1C261,93.9,261.1,94,261.1,94.1z"/>
<path d="M128,94.4c-0.3,0-0.5,0.1-0.8,0.1c0,0-0.1-0.2-0.1-0.3c0.2-0.4,0.5-0.3,0.8-0.1C128,94.2,128,94.3,128,94.4z"/>
<path d="M263.1,95c-0.4-0.2-0.6-0.3-0.9-0.4C262.8,94.1,262.8,94.1,263.1,95z"/>
<path d="M34.8,33.9c-0.1,0.3-0.1,0.5-0.2,0.8c-0.1,0-0.1,0-0.2,0.1c-0.1-0.2-0.2-0.4-0.3-0.6C34.4,34.1,34.6,34,34.8,33.9
	C34.8,33.9,34.8,33.9,34.8,33.9z"/>
<path d="M171.8,126.1c-0.1,0.2-0.3,0.4-0.4,0.6c-0.1-0.1-0.3-0.2-0.6-0.5C171.3,126.2,171.6,126.2,171.8,126.1L171.8,126.1z"/>
<path d="M25.6,13.1c0.1,0.3,0.1,0.6,0.2,1.1c-0.6-0.4-0.6-0.7-0.4-1C25.4,13.2,25.5,13.1,25.6,13.1z"/>
<path d="M255.6,30.8c-0.4-0.2-0.6-0.3-0.9-0.5c0.1-0.1,0.2-0.2,0.3-0.3C255.5,29.9,255.6,30.2,255.6,30.8z"/>
<path d="M147.7,92.6c0.5-0.6,0.5-0.6,1.1,0.1C148.3,92.6,148,92.6,147.7,92.6L147.7,92.6z"/>
<path d="M15.4,92.8c0.1-0.2,0.1-0.4,0.2-0.5c0.2,0.1,0.4,0.2,0.5,0.3c0,0.1,0,0.2,0,0.3C15.9,92.8,15.6,92.8,15.4,92.8L15.4,92.8z"
	/>
<path d="M165.4,33.1c0.3,0.2,0.6,0.3,0.8,0.4c-0.1,0.1-0.1,0.2-0.2,0.3C165.6,33.9,165.4,33.7,165.4,33.1z"/>
<path d="M34.8,20.3c0.3,0.3,0.7,0.6,0,1C34.5,20.9,34.7,20.6,34.8,20.3L34.8,20.3z"/>
<path d="M34.1,23.9c-0.5-0.3-0.6-0.5-0.1-0.9C34.4,23.3,34.3,23.6,34.1,23.9L34.1,23.9z"/>
<path d="M167.3,33.5c0,0.2,0,0.5,0,0.8c-0.2-0.1-0.4-0.2-0.5-0.3C166.7,33.7,166.8,33.5,167.3,33.5z"/>
<path d="M164.9,26.7c0.6,0.5,0.6,0.5-0.1,1.1C164.8,27.4,164.9,27,164.9,26.7L164.9,26.7z"/>
<path d="M130,95.1c-0.3-0.2-0.5-0.3-0.8-0.4c0.1-0.1,0.1-0.2,0.2-0.2C129.8,94.3,130,94.5,130,95.1z"/>
<path d="M233.9,130.9c0.2,0.1,0.4,0.1,0.7,0.2c-0.1,0.2-0.1,0.4-0.2,0.5c-0.1,0-0.1,0-0.2,0C234.1,131.4,234,131.1,233.9,130.9
	L233.9,130.9z"/>
<path d="M39.1,126.4c-0.2,0.6-0.2,0.6-0.7-0.1C38.6,126.3,38.9,126.3,39.1,126.4L39.1,126.4z"/>
<path d="M101.1,130.9c0.2,0.1,0.3,0.2,0.5,0.3c-0.1,0.2-0.2,0.3-0.3,0.5c-0.1,0-0.1,0-0.2-0.1C101.2,131.3,101.2,131.1,101.1,130.9
	L101.1,130.9z"/>
<path d="M147.7,87.1c-0.2,0-0.5,0-0.7,0c0-0.1-0.1-0.1-0.1-0.2c0.1-0.1,0.3-0.3,0.4-0.4C147.4,86.7,147.6,86.9,147.7,87.1
	L147.7,87.1z"/>
<path d="M15.1,87.3c-0.2,0-0.5,0.1-0.9,0.1C14.9,86.6,14.9,86.6,15.1,87.3L15.1,87.3z"/>
<path d="M121.7,30.8c0.5-0.3,0.8-0.3,0.8,0.4C122.2,31,122,30.9,121.7,30.8z"/>
<path d="M171.9,126.1c0-0.3,0-0.7,0-1l0,0c0.1,0,0.3,0,0.4,0l0,0C172.2,125.5,172.6,126,171.9,126.1L171.9,126.1z"/>
<path d="M32.8,33.6c0.3,0.1,0.5,0.2,0.8,0.3c-0.1,0.1-0.1,0.2-0.2,0.3C33,34.3,32.8,34.2,32.8,33.6z"/>
<path d="M32.3,27.3c0.5,0.4,0.5,0.4-0.1,1C32.3,27.9,32.3,27.6,32.3,27.3L32.3,27.3z"/>
<path d="M193.9,18.5c-0.2,0.1-0.5,0.2-0.7,0.3c0-0.1-0.1-0.2-0.1-0.2c0.2-0.1,0.5-0.2,0.7-0.3C193.8,18.4,193.8,18.5,193.9,18.5z"/>
<path d="M24.3,18.1c0.2-0.1,0.5-0.1,0.7-0.2c0,0.1,0,0.1,0.1,0.2c-0.3,0.1-0.5,0.2-0.8,0.3C24.4,18.3,24.4,18.2,24.3,18.1z"/>
<path d="M160.3,31.6c-0.3,0.1-0.5,0.2-0.8,0.3c0-0.1-0.1-0.1-0.1-0.2c0.3-0.1,0.5-0.2,0.8-0.3C160.2,31.5,160.2,31.5,160.3,31.6z"/>
<path d="M114.7,129.5c0.2-0.1,0.5-0.2,0.7-0.3c0,0.1,0.1,0.1,0.1,0.2c-0.2,0.1-0.5,0.2-0.7,0.3C114.8,129.7,114.8,129.6,114.7,129.5
	z"/>
<path d="M150.2,139.6c-0.1,0.3-0.3,0.6-0.4,0.9c-0.1,0-0.1-0.1-0.2-0.1C149.8,140.2,150,139.9,150.2,139.6L150.2,139.6z"/>
<path d="M26.8,32.1c0.3-0.1,0.5-0.2,0.8-0.3c0,0.1,0.1,0.1,0.1,0.2c-0.3,0.1-0.5,0.2-0.8,0.3C26.9,32.3,26.8,32.2,26.8,32.1z"/>
<path d="M34.2,31.3c-0.6-0.3-0.3-0.7,0-1l0,0C34.1,30.6,34.1,31,34.2,31.3L34.2,31.3z"/>
<path d="M151.7,85.3c-0.2,0.1-0.5,0.2-0.7,0.3c0-0.1-0.1-0.1-0.1-0.2c0.2-0.1,0.5-0.2,0.7-0.3C151.6,85.1,151.7,85.2,151.7,85.3z"/>
<path d="M166.7,29.9c0,0.3,0.1,0.6,0.2,1C166.2,30.4,166.5,30.2,166.7,29.9L166.7,29.9z"/>
<path d="M22.2,42.7c0.1-0.1,0.3-0.2,0.4-0.3c0.1,0.1,0.2,0.2,0.2,0.3c-0.2,0.1-0.3,0.2-0.5,0.2C22.3,42.8,22.3,42.7,22.2,42.7z"/>
<path d="M97.2,143.4c-0.1,0.1-0.2,0.2-0.4,0.3c0,0-0.1-0.1-0.1-0.1c0.1-0.1,0.2-0.2,0.4-0.3C97.1,143.3,97.1,143.4,97.2,143.4z"/>
<path d="M31.2,25c-0.1,0.1-0.3,0.2-0.4,0.3c0-0.1-0.1-0.1-0.1-0.2c0.1-0.1,0.3-0.2,0.4-0.3C31.2,24.9,31.2,25,31.2,25z"/>
<path d="M95.7,133.1c0.2-0.1,0.5-0.2,0.7-0.3c0,0.1,0,0.1,0.1,0.2c-0.2,0.1-0.5,0.2-0.7,0.3C95.8,133.2,95.7,133.1,95.7,133.1z"/>
<path d="M19.3,93c-0.1,0.1-0.3,0.2-0.4,0.3c-0.1-0.1-0.2-0.2-0.2-0.2c0.1-0.1,0.3-0.2,0.4-0.4C19.1,92.8,19.2,92.9,19.3,93z"/>
<path d="M123.6,106.1c0.1-0.1,0.2-0.2,0.3-0.4c0.1,0,0.1,0.1,0.2,0.1c-0.1,0.1-0.2,0.2-0.3,0.4C123.7,106.2,123.6,106.2,123.6,106.1
	z"/>
<path d="M148.1,88.3c-0.1,0.1-0.3,0.2-0.4,0.3c-0.1-0.1-0.2-0.2-0.2-0.3c0.1-0.1,0.3-0.2,0.4-0.4C147.9,88.1,148,88.2,148.1,88.3z"
	/>
<path d="M172.2,130c0.1-0.1,0.2-0.2,0.4-0.3c0.1,0.1,0.2,0.2,0.2,0.2c-0.1,0.1-0.2,0.2-0.3,0.4C172.4,130.2,172.3,130.1,172.2,130z"
	/>
<path d="M151.4,78.9c0.2-0.1,0.5-0.2,0.7-0.3c0,0.1,0.1,0.1,0.1,0.2c-0.2,0.1-0.5,0.2-0.7,0.3C151.4,79,151.4,78.9,151.4,78.9z"/>
<path d="M144.6,106.1c0.1-0.1,0.2-0.2,0.4-0.3c0,0,0.1,0.1,0.1,0.1c-0.1,0.1-0.2,0.3-0.3,0.4C144.7,106.2,144.6,106.2,144.6,106.1z"
	/>
<path d="M248.5,129.5c-0.2,0.1-0.4,0.2-0.7,0.3c0-0.1-0.1-0.1-0.1-0.2c0.2-0.1,0.4-0.2,0.7-0.3C248.4,129.3,248.5,129.4,248.5,129.5
	z"/>
<path d="M61.1,19.1c-0.2,0.1-0.5,0.2-0.7,0.2c0-0.1,0-0.1-0.1-0.2c0.2-0.1,0.5-0.2,0.7-0.3C61,19,61,19,61.1,19.1z"/>
<path d="M22.2,7.5c-0.1,0.1-0.3,0.2-0.4,0.3c0,0-0.1-0.1-0.1-0.1c0-0.1,0.1-0.2,0.1-0.3c0.1-0.1,0.2-0.1,0.2-0.1
	C22.1,7.4,22.2,7.5,22.2,7.5z"/>
<path d="M172.3,127c0.1-0.1,0.3-0.2,0.4-0.3c0,0,0.1,0.1,0.1,0.1c-0.1,0.1-0.3,0.2-0.4,0.3C172.4,127.2,172.4,127.1,172.3,127z"/>
<path d="M58.7,155.4c-0.1,0.1-0.2,0.2-0.4,0.3c0,0-0.1-0.1-0.1-0.1c0.1-0.1,0.2-0.2,0.4-0.3C58.6,155.3,58.6,155.4,58.7,155.4z"/>
<path d="M175.4,128.9c-0.1,0.1-0.3,0.2-0.4,0.3c0-0.1-0.1-0.1-0.1-0.2c0.1-0.1,0.3-0.2,0.4-0.3C175.3,128.8,175.4,128.9,175.4,128.9
	z"/>
<path d="M150.9,86.9c0.2-0.1,0.4-0.2,0.6-0.2c0.1,0.1,0.1,0.1,0.1,0.1c-0.2,0.1-0.4,0.2-0.7,0.4C151,87,150.9,86.9,150.9,86.9z"/>
<path d="M18.3,87.1c0.3-0.1,0.5-0.2,0.8-0.2c0,0.1,0,0.1,0.1,0.2c-0.2,0.1-0.5,0.2-0.7,0.3C18.4,87.2,18.4,87.2,18.3,87.1z"/>
<path d="M221,139.1c0.1-0.1,0.3-0.2,0.4-0.3c0.1,0.1,0.2,0.2,0.2,0.2c-0.1,0.1-0.3,0.2-0.4,0.4C221.2,139.3,221.1,139.2,221,139.1z"
	/>
<path d="M151.8,92.8c-0.1,0.1-0.3,0.2-0.4,0.3c0,0-0.1-0.1-0.1-0.1c0.1-0.1,0.2-0.3,0.4-0.4C151.7,92.7,151.8,92.7,151.8,92.8z"/>
<path d="M94,139c0.1-0.1,0.2-0.3,0.3-0.4c0.1,0.1,0.2,0.2,0.3,0.3c-0.1,0.1-0.2,0.2-0.4,0.4C94.2,139.2,94.1,139.1,94,139z"/>
<path d="M159.3,33c-0.1,0.1-0.2,0.2-0.4,0.4c0,0-0.1-0.1-0.1-0.1c0.1-0.1,0.2-0.3,0.3-0.4C159.2,32.9,159.3,33,159.3,33z"/>
<path d="M125.1,108.6c0.1-0.1,0.3-0.2,0.4-0.3c0,0.1,0.1,0.1,0.1,0.2c-0.1,0.1-0.3,0.2-0.4,0.3C125.2,108.7,125.1,108.7,125.1,108.6
	z"/>
<path d="M150.8,123c0.1-0.1,0.3-0.2,0.4-0.3c0,0,0.1,0.1,0.1,0.1c-0.1,0.1-0.2,0.2-0.3,0.3C150.9,123.2,150.8,123.1,150.8,123z"/>
<path d="M107.6,126.1c0.1-0.1,0.3-0.2,0.4-0.3c0,0.1,0.1,0.1,0.1,0.2c-0.1,0.1-0.3,0.2-0.4,0.3C107.7,126.2,107.7,126.2,107.6,126.1
	z"/>
<path d="M241.1,125.9c-0.1,0.1-0.2,0.2-0.4,0.3c0,0-0.1-0.1-0.1-0.1c0.1-0.1,0.2-0.2,0.4-0.3C241,125.8,241,125.9,241.1,125.9z"/>
<path d="M39.7,127.1c0.1-0.1,0.3-0.2,0.4-0.3c0,0,0.1,0.1,0.1,0.1c-0.1,0.1-0.3,0.2-0.4,0.3C39.8,127.2,39.7,127.1,39.7,127.1z"/>
<path d="M175.4,127.5c-0.2,0.1-0.3,0.1-0.5,0.2c0,0-0.1-0.1-0.1-0.1c0.1-0.1,0.3-0.2,0.4-0.3C175.3,127.3,175.3,127.4,175.4,127.5z"
	/>
<path d="M41.2,127.5c-0.1,0.1-0.3,0.1-0.4,0.2c0,0-0.1-0.1-0.1-0.1c0.1-0.1,0.2-0.2,0.4-0.3C41.1,127.4,41.2,127.5,41.2,127.5z"/>
<path d="M39.7,130.1c0.1-0.1,0.3-0.2,0.4-0.3c0,0,0.1,0.1,0.1,0.1c-0.1,0.1-0.3,0.2-0.4,0.3C39.8,130.2,39.7,130.1,39.7,130.1z"/>
<path d="M229.4,133c-0.2,0.1-0.5,0.2-0.7,0.2c0-0.1,0-0.1-0.1-0.2c0.2-0.1,0.5-0.2,0.7-0.2C229.4,132.9,229.4,132.9,229.4,133z"/>
<path d="M94.8,134.5c0-0.1-0.1-0.3-0.1-0.4c0.1,0,0.2,0,0.2,0c0,0.1,0,0.3,0.1,0.4C95,134.5,94.9,134.5,94.8,134.5z"/>
<path d="M228.1,134.3c-0.1,0.1-0.3,0.2-0.3,0.2c-0.1,0-0.2-0.1-0.2-0.2c0,0,0.1-0.1,0.1-0.2C227.9,134.1,227.9,134.2,228.1,134.3z"
	/>
<path d="M17.9,139.7c-0.2,0.2-0.4,0.4-0.5,0.6l0,0C17.2,139.8,17.6,139.8,17.9,139.7L17.9,139.7z"/>
<path d="M230,143.5c-0.1,0.1-0.3,0.2-0.4,0.3c0,0-0.1-0.1-0.1-0.1c0.1-0.1,0.2-0.3,0.3-0.4C229.9,143.4,230,143.4,230,143.5z"/>
<path d="M92,143.5c0,0.1,0,0.3,0,0.4c-0.1,0-0.2,0-0.2,0c0-0.1,0-0.3,0-0.4C91.8,143.5,91.9,143.5,92,143.5z"/>
<path d="M221.5,152.5c-0.1,0.1-0.3,0.2-0.4,0.3c-0.1-0.1-0.2-0.2-0.2-0.3c0.2-0.1,0.4-0.1,0.5-0.2
	C221.5,152.4,221.5,152.5,221.5,152.5z"/>
<path d="M25.7,19.1c-0.1,0.1-0.3,0.2-0.4,0.3c0-0.1-0.1-0.1-0.1-0.2c0.1-0.1,0.3-0.2,0.4-0.3C25.7,18.9,25.7,19,25.7,19.1z"/>
<path d="M167.8,34.3c0.1-0.1,0.3-0.2,0.4-0.4c0,0,0.1,0.1,0.1,0.1c-0.1,0.1-0.3,0.2-0.4,0.4C167.9,34.3,167.9,34.3,167.8,34.3z"/>
<path d="M154.8,42.2c0.1-0.1,0.3-0.2,0.4-0.3c0,0.1,0.1,0.1,0.1,0.2c-0.1,0.1-0.3,0.2-0.4,0.3C154.9,42.4,154.8,42.3,154.8,42.2z"/>
<path d="M27.3,47.1c-0.1,0.1-0.3,0.2-0.4,0.3c0,0-0.1-0.1-0.1-0.1c0.1-0.1,0.3-0.2,0.4-0.3C27.2,46.9,27.2,47,27.3,47.1z"/>
<path d="M128.4,84c0,0.1,0.1,0.3,0.1,0.4c-0.1,0-0.2,0-0.2,0c0-0.1,0-0.3-0.1-0.4C128.3,84.1,128.3,84,128.4,84z"/>
<path d="M146.8,84.9c0.1-0.1,0.3-0.2,0.4-0.3c0,0,0.1,0.1,0.1,0.1c-0.1,0.1-0.2,0.2-0.4,0.3C146.8,85,146.8,85,146.8,84.9z"/>
<path d="M151.3,89.8c-0.1,0.1-0.3,0.2-0.4,0.3c0-0.1-0.1-0.1-0.1-0.2c0.1-0.1,0.3-0.2,0.4-0.3C151.2,89.7,151.3,89.7,151.3,89.8z"/>
<path d="M262.1,91.8c-0.1,0.1-0.3,0.2-0.4,0.3c0,0-0.1-0.1-0.1-0.1c0.1-0.1,0.3-0.2,0.4-0.3C262.1,91.7,262.1,91.7,262.1,91.8z"/>
<path d="M259.3,95.4c-0.1,0.1-0.2,0.2-0.3,0.3c-0.1-0.1-0.2-0.2-0.3-0.3c0.1-0.1,0.2-0.2,0.4-0.3C259.1,95.2,259.2,95.3,259.3,95.4z
	"/>
<path d="M258.1,108.5c0.1-0.1,0.3-0.2,0.4-0.3c0,0,0.1,0.1,0.1,0.1c-0.1,0.1-0.2,0.2-0.4,0.3C258.2,108.6,258.2,108.5,258.1,108.5z"
	/>
<path d="M88,152.4c0.1,0,0.3-0.1,0.4-0.1c0,0,0.1,0.1,0.1,0.2c-0.1,0.1-0.2,0.1-0.3,0.2C88.2,152.6,88.1,152.5,88,152.4z"/>
<path d="M237.5,126.5c0.1-0.1,0.3-0.2,0.4-0.3c0,0,0.1,0.1,0.1,0.1c-0.1,0.1-0.2,0.2-0.3,0.3C237.6,126.7,237.6,126.6,237.5,126.5z"
	/>
<path d="M27,48.5c0.1,0.2,0.1,0.3,0.1,0.4c0,0-0.2,0.1-0.2,0.1c-0.1,0-0.1-0.1-0.1-0.2C26.8,48.7,26.9,48.7,27,48.5z"/>
<path d="M14.7,85c-0.1,0.1-0.3,0.2-0.4,0.3c0,0-0.1-0.1-0.1-0.1c0.1-0.1,0.3-0.2,0.4-0.3C14.7,84.9,14.7,85,14.7,85z"/>
<path d="M273.2,122.4c-0.1,0.1-0.3,0.1-0.4,0.2c0-0.1-0.1-0.1-0.1-0.2c0.1-0.1,0.3-0.1,0.4-0.2C273.1,122.3,273.2,122.4,273.2,122.4
	z"/>
<path d="M268.7,86.8c-0.1,0.1-0.3,0.2-0.4,0.3c0,0-0.1-0.1-0.1-0.1c0.1-0.1,0.2-0.3,0.3-0.4C268.5,86.6,268.6,86.7,268.7,86.8z"/>
<path d="M125.1,134c-0.1,0.1-0.3,0.2-0.4,0.2c0,0-0.1-0.1-0.1-0.1c0.1-0.1,0.2-0.2,0.3-0.3C125,133.9,125,133.9,125.1,134z"/>
<path d="M246.6,118.5c-0.1,0.1-0.2,0.1-0.4,0.2c0-0.1-0.1-0.2-0.1-0.2c0.1-0.1,0.2-0.1,0.3-0.2C246.5,118.3,246.6,118.4,246.6,118.5
	z"/>
<path d="M149.7,62.3c0.1-0.1,0.3-0.2,0.4-0.4c0.1,0.1,0.2,0.2,0.2,0.2c-0.1,0.1-0.2,0.2-0.4,0.4C149.8,62.4,149.7,62.4,149.7,62.3z"
	/>
<path d="M243.1,127c0.1-0.1,0.2-0.1,0.3-0.2c0,0,0.1,0.1,0.1,0.1c-0.1,0.1-0.2,0.2-0.3,0.3C243.2,127.1,243.2,127.1,243.1,127z"/>
<path d="M225,143.8c-0.1,0.1-0.2,0.2-0.3,0.1c-0.1,0-0.2-0.1-0.2-0.2c0-0.1,0.1-0.1,0.1-0.2C224.8,143.7,224.9,143.7,225,143.8z"/>
<path d="M257.1,105.9c-0.1,0.1-0.2,0.2-0.3,0.2c0,0-0.1-0.1-0.1-0.1c0.1-0.1,0.2-0.2,0.3-0.3C257,105.7,257.1,105.8,257.1,105.9z"/>
<path d="M100.6,138.6c0.1-0.1,0.3-0.2,0.4-0.2c0,0.1,0.1,0.1,0.1,0.2c-0.1,0.1-0.3,0.1-0.4,0.2C100.7,138.7,100.6,138.6,100.6,138.6
	z"/>
<path d="M105.9,138.3c0.1,0.1,0.2,0.2,0.2,0.2c0,0.1-0.1,0.2-0.2,0.2c-0.1,0-0.2,0-0.2-0.1C105.7,138.5,105.8,138.4,105.9,138.3z"/>
<path d="M233.5,138.5c0.1-0.1,0.3-0.1,0.4-0.2c0,0,0.1,0.1,0.1,0.1c-0.1,0.1-0.2,0.2-0.4,0.3C233.6,138.7,233.6,138.6,233.5,138.5z"
	/>
<path d="M126.2,95.5c-0.2,0.1-0.3,0.2-0.4,0.2c0,0-0.1-0.1-0.1-0.1c0.1-0.1,0.1-0.2,0.2-0.3C125.9,95.3,126,95.4,126.2,95.5z"/>
<path d="M42.7,127.5c-0.2,0.1-0.3,0.2-0.4,0.2c0,0-0.1-0.1-0.1-0.2c0-0.1,0.1-0.2,0.2-0.2C42.5,127.3,42.6,127.4,42.7,127.5z"/>
<path d="M17.5,62.9c-0.1-0.1-0.2-0.2-0.2-0.3c0-0.1,0.1-0.2,0.2-0.2c0,0,0.1,0.1,0.2,0.1C17.6,62.6,17.6,62.7,17.5,62.9z"/>
<path d="M113.6,118.5c-0.1,0.1-0.2,0.2-0.3,0.3c0-0.1-0.1-0.1-0.1-0.2c0.1-0.1,0.2-0.2,0.4-0.3C113.6,118.4,113.6,118.4,113.6,118.5
	z"/>
<path d="M9.5,110.8c0.1,0.1,0.2,0.2,0.2,0.2c0,0.1-0.1,0.2-0.2,0.2c-0.1,0-0.2,0-0.2-0.1C9.3,111,9.4,110.9,9.5,110.8z"/>
<path d="M151.1,110.9c-0.1,0.1-0.2,0.2-0.4,0.3c0,0-0.1-0.1-0.1-0.1c0.1-0.1,0.2-0.3,0.3-0.4C151,110.7,151.1,110.8,151.1,110.9z"/>
<path d="M232,155.6c0.1-0.1,0.2-0.2,0.4-0.3c0,0,0.1,0.1,0.1,0.1c-0.1,0.1-0.2,0.2-0.3,0.3C232.2,155.8,232.1,155.7,232,155.6z"/>
<path d="M13.3,123.1c0.1-0.1,0.2-0.2,0.3-0.2c0,0.1,0.1,0.1,0.1,0.2c-0.1,0.1-0.2,0.1-0.4,0.2C13.3,123.2,13.3,123.1,13.3,123.1z"/>
<path d="M48.2,7.5c-0.1,0.1-0.2,0.2-0.4,0.3c0,0-0.1-0.1-0.1-0.1c0.1-0.1,0.2-0.3,0.3-0.4C48.1,7.4,48.2,7.5,48.2,7.5z"/>
<path d="M200.4,135.6c0.1-0.1,0.3-0.2,0.4-0.3c0,0,0.1,0.1,0.1,0.1c-0.1,0.1-0.2,0.3-0.3,0.4C200.5,135.7,200.5,135.7,200.4,135.6z"
	/>
<path d="M88.6,138.9c-0.1,0.1-0.2,0.2-0.3,0.4c0,0-0.1-0.1-0.1-0.1c0.1-0.1,0.2-0.2,0.3-0.3C88.6,138.8,88.6,138.9,88.6,138.9z"/>
<path d="M45.9,15.5c-0.3,0.2-0.5,0.3-0.6,0.4c0,0-0.1-0.1-0.1-0.1c0.1-0.1,0.1-0.2,0.2-0.2C45.5,15.4,45.6,15.5,45.9,15.5z"/>
<path d="M199.2,16.8c0.1,0.1,0.2,0.2,0.2,0.3c0,0.1-0.1,0.2-0.2,0.2c0,0-0.1-0.1-0.2-0.1C199,17.1,199.1,17,199.2,16.8z"/>
<path d="M66.7,17.5c-0.1,0.1-0.2,0.2-0.4,0.3c0,0-0.1-0.1-0.1-0.1c0.1-0.1,0.2-0.3,0.3-0.4C66.6,17.4,66.6,17.5,66.7,17.5z"/>
<path d="M42.2,129.1c0.1-0.1,0.2-0.2,0.3-0.3c0,0,0.1,0.1,0.1,0.1c-0.1,0.1-0.1,0.3-0.2,0.4C42.3,129.2,42.3,129.2,42.2,129.1z"/>
<path d="M34.8,20.2c-0.3,0.1-0.5,0.1-0.5-0.3C34.5,20,34.7,20.2,34.8,20.2L34.8,20.2z"/>
<path d="M14.8,92.7c0.2,0,0.4,0,0.6,0.1l0,0C15.2,92.9,14.9,93.5,14.8,92.7L14.8,92.7z"/>
<path d="M42.4,20.9c0.1,0.1,0.2,0.2,0.2,0.2c0,0.1-0.1,0.2-0.2,0.2c-0.1,0-0.2,0-0.2-0.1C42.3,21.1,42.4,21,42.4,20.9z"/>
<path d="M191.2,155.4c0.1,0.1,0.2,0.2,0.2,0.2c0,0.1-0.1,0.2-0.2,0.2c-0.1,0-0.2,0-0.2-0.1C191,155.6,191.1,155.5,191.2,155.4z"/>
<path d="M13.2,90.1c0.1-0.1,0.3-0.1,0.4-0.2c0,0.1,0.1,0.2,0,0.2c-0.1,0.1-0.3,0.1-0.4,0.2C13.3,90.2,13.3,90.1,13.2,90.1z"/>
<path d="M129.1,92c-0.1,0.1-0.2,0.2-0.4,0.3c0,0-0.1-0.1-0.1-0.1c0.1-0.1,0.2-0.2,0.4-0.3C129,91.9,129.1,91.9,129.1,92z"/>
<path d="M262.2,107.9c-0.1,0.1-0.3,0.2-0.4,0.3c0-0.1-0.1-0.1-0.1-0.2c0.1-0.1,0.3-0.2,0.4-0.3C262.1,107.8,262.1,107.8,262.2,107.9
	z"/>
<path d="M261.7,84.1c-0.1,0.1-0.2,0.2-0.2,0.2c-0.1-0.1-0.2-0.2-0.2-0.3c0-0.1,0.1-0.1,0.1-0.2C261.4,83.9,261.5,84,261.7,84.1z"/>
<path d="M33.7,22.1c0.1-0.1,0.2-0.1,0.4-0.2c0,0.1,0.1,0.2,0.1,0.2c-0.1,0-0.2,0.1-0.4,0.1C33.8,22.2,33.7,22.2,33.7,22.1z"/>
<path d="M169.8,23.6c-0.1,0.1-0.3,0.2-0.4,0.3c0-0.1-0.1-0.1-0.1-0.2c0.1-0.1,0.3-0.2,0.4-0.2C169.8,23.5,169.8,23.5,169.8,23.6z"/>
<path d="M16.8,82.5c-0.1,0.1-0.2,0.2-0.3,0.3c0,0-0.2-0.1-0.2-0.1c0-0.1,0.1-0.2,0.2-0.2C16.5,82.4,16.6,82.4,16.8,82.5z"/>
<path d="M36.7,24.2c0.1-0.1,0.2-0.2,0.4-0.3c0,0,0.1,0.1,0.1,0.1c-0.1,0.1-0.2,0.2-0.3,0.3C36.9,24.3,36.8,24.3,36.7,24.2z"/>
<path d="M184.4,131.1c0.1-0.1,0.2-0.2,0.3-0.3c0,0.1,0.1,0.2,0.1,0.2c-0.1,0.1-0.2,0.1-0.3,0.2C184.5,131.2,184.4,131.1,184.4,131.1
	z"/>
<path d="M251.1,113.9c-0.1,0.1-0.2,0.2-0.3,0.2c0,0-0.1-0.1-0.1-0.1c0.1-0.1,0.2-0.2,0.3-0.3C251,113.8,251,113.9,251.1,113.9z"/>
<path d="M117.6,114.1c0.1-0.1,0.3-0.2,0.4-0.3c0,0.1,0.1,0.1,0.1,0.2c-0.1,0.1-0.3,0.2-0.4,0.3C117.7,114.2,117.7,114.2,117.6,114.1
	z"/>
<path d="M26.1,33.6c0.1-0.1,0.2-0.2,0.4-0.4c0.1,0.1,0.2,0.2,0.3,0.3c-0.1,0.1-0.2,0.2-0.4,0.3C26.3,33.8,26.2,33.7,26.1,33.6z"/>
<path d="M35.2,34.7c0.1-0.1,0.3-0.2,0.4-0.2c0,0,0.1,0.1,0.1,0.1c-0.1,0.1-0.2,0.2-0.4,0.3C35.3,34.8,35.3,34.7,35.2,34.7z"/>
<path d="M34.2,37.6c-0.1,0.1-0.2,0.1-0.3,0.2c0,0-0.1-0.1-0.1-0.1c0.1-0.1,0.2-0.2,0.3-0.3C34.1,37.5,34.1,37.5,34.2,37.6z"/>
<path d="M159.9,46.7c-0.1,0.1-0.3,0.2-0.4,0.4c-0.1,0-0.1-0.1-0.2-0.1c0-0.1,0-0.3,0.1-0.3c0.1-0.1,0.2-0.1,0.3-0.1
	C159.8,46.6,159.9,46.6,159.9,46.7z"/>
<path d="M139.6,122.6c0.1-0.1,0.2-0.2,0.3-0.2c0,0.1,0.1,0.2,0.1,0.2c-0.1,0.1-0.2,0.2-0.3,0.2C139.7,122.7,139.6,122.6,139.6,122.6
	z"/>
<path d="M159.6,48.2c0.1,0.1,0.1,0.3,0.1,0.3c0,0.1-0.1,0.1-0.2,0.2c0-0.1-0.1-0.2-0.1-0.3C159.4,48.3,159.5,48.3,159.6,48.2z"/>
<path d="M281.4,105.8c-0.3,0.2-0.4,0.3-0.6,0.4c0,0-0.1-0.1-0.1-0.1c0.1-0.1,0.1-0.2,0.2-0.2C281,105.7,281.1,105.8,281.4,105.8z"/>
<path d="M110.8,127.1c-0.1,0-0.3,0.1-0.4,0.1c0,0-0.1-0.1-0.1-0.1c0.1-0.1,0.2-0.2,0.2-0.3C110.6,126.9,110.7,127,110.8,127.1z"/>
<path d="M135.3,86.7c0.1,0.2,0.2,0.3,0.2,0.4c0,0.1-0.1,0.1-0.2,0.2c0-0.1-0.1-0.1-0.1-0.2C135.2,87,135.2,86.9,135.3,86.7z"/>
<path d="M173.8,127.5c-0.1,0.1-0.2,0.1-0.4,0.2c0-0.1-0.1-0.2-0.1-0.2c0.1-0.1,0.2-0.1,0.3-0.1C173.8,127.4,173.8,127.4,173.8,127.5
	z"/>
<path d="M29.9,14.5c-0.3,0.2-0.3,0.2-0.4,0.2c0,0-0.1-0.1-0.1-0.2c0-0.1,0.1-0.1,0.2-0.2C29.6,14.4,29.7,14.5,29.9,14.5z"/>
<path d="M46.7,21.1c-0.1,0.1-0.2,0.2-0.4,0.3c0,0-0.1-0.1-0.1-0.1c0.1-0.1,0.2-0.2,0.3-0.3C46.6,20.9,46.7,21,46.7,21.1z"/>
<path d="M147.7,92.5c0,0.1-0.1,0.2-0.1,0.4c0,0-0.1-0.1-0.1-0.1C147.5,92.7,147.6,92.6,147.7,92.5C147.7,92.6,147.7,92.5,147.7,92.5
	z"/>
<path d="M227.6,139.1c-0.1,0-0.3,0.1-0.4,0.1c0,0-0.1-0.1-0.1-0.1c0.1-0.1,0.2-0.2,0.2-0.3C227.4,138.9,227.5,139,227.6,139.1z"/>
<path d="M6.1,88.5c0.1-0.1,0.2-0.2,0.4-0.3c0.1,0.1,0.1,0.1,0.2,0.2c-0.1,0.1-0.2,0.2-0.3,0.4C6.3,88.7,6.2,88.6,6.1,88.5z"/>
<path d="M166.8,37.2c-0.1,0.1-0.2,0.2-0.3,0.2c0,0-0.1-0.1-0.1-0.2c0-0.1,0.1-0.1,0.2-0.1C166.7,37,166.7,37.1,166.8,37.2z"/>
<path d="M167.3,30c-0.2,0-0.4-0.1-0.6-0.1c0,0,0,0,0,0c0.1-0.1,0.3-0.2,0.5-0.3C167.2,29.7,167.3,29.9,167.3,30L167.3,30z"/>
<path d="M238.8,138.8c0-0.1-0.1-0.2-0.1-0.2c0-0.1,0.1-0.1,0.2-0.2c0,0.1,0.1,0.1,0.1,0.2C238.9,138.6,238.9,138.7,238.8,138.8z"/>
<path d="M149.3,82.3c-0.1,0.1-0.2,0.1-0.4,0.2c0-0.1-0.1-0.2-0.1-0.2c0.1-0.1,0.2-0.1,0.3-0.2C149.2,82.2,149.2,82.3,149.3,82.3z"/>
<path d="M178.9,20.7c0.1-0.1,0.2-0.2,0.3-0.4c0,0,0.1,0.1,0.1,0.1c-0.1,0.1-0.2,0.3-0.3,0.4C179,20.8,179,20.8,178.9,20.7z"/>
<path d="M129.2,108c-0.2,0.1-0.2,0.2-0.3,0.2c-0.1,0-0.1-0.1-0.2-0.1c0.1-0.1,0.1-0.1,0.2-0.2C128.9,107.9,129,108,129.2,108z"/>
<path d="M99.2,155.6c0.1-0.1,0.2-0.2,0.3-0.4c0,0,0.1,0.1,0.1,0.1c-0.1,0.1-0.2,0.3-0.2,0.4C99.3,155.7,99.2,155.7,99.2,155.6z"/>
<path d="M257.9,133.7c0.1,0.2,0.2,0.3,0.2,0.4c0,0.1-0.1,0.1-0.2,0.2c0-0.1-0.1-0.1-0.1-0.2C257.7,133.9,257.8,133.8,257.9,133.7z"
	/>
<path d="M151.5,115.2C151.6,115.2,151.7,115.3,151.5,115.2C151.7,115.3,151.6,115.2,151.5,115.2L151.5,115.2z"/>
<path d="M34.1,30.3c0.1-0.1,0.3-0.1,0.4-0.2c0,0,0,0.1,0,0.1C34.4,30.2,34.3,30.3,34.1,30.3C34.1,30.3,34.1,30.3,34.1,30.3z"/>
<path d="M17.4,140.3c-0.1,0-0.2,0.1-0.3,0.1c0,0,0,0,0,0C17.2,140.4,17.3,140.4,17.4,140.3C17.4,140.3,17.4,140.3,17.4,140.3z"/>
<path d="M150.2,139.7c0.1-0.1,0.2-0.2,0.3-0.3c0,0,0.1,0.1,0.1,0.1C150.5,139.6,150.4,139.6,150.2,139.7
	C150.2,139.6,150.2,139.7,150.2,139.7z"/>
<path d="M34.1,23.9c0.1,0,0.2,0,0.3,0c0,0,0,0,0,0C34.3,24,34.2,23.9,34.1,23.9L34.1,23.9z"/>
<path d="M17.9,139.7c0-0.1,0-0.2,0-0.4c0.1,0,0.1,0,0.2,0C18.1,139.5,18,139.6,17.9,139.7L17.9,139.7z"/>
<path d="M110.6,128.6c-0.1,0-0.1,0-0.2,0.1c0,0,0-0.1,0-0.1C110.5,128.6,110.5,128.6,110.6,128.6L110.6,128.6z"/>
<path d="M32.3,27.3c-0.1,0-0.1,0-0.2,0C32.2,27.3,32.2,27.3,32.3,27.3L32.3,27.3z"/>
<path d="M164.9,26.7C164.8,26.7,164.7,26.7,164.9,26.7C164.7,26.7,164.8,26.7,164.9,26.7L164.9,26.7z"/>
<path d="M26.8,23.8C26.8,23.8,26.7,23.8,26.8,23.8C26.7,23.8,26.7,23.8,26.8,23.8L26.8,23.8z"/>
<path d="M178.3,125.7C178.3,125.8,178.3,125.9,178.3,125.7C178.3,125.9,178.3,125.8,178.3,125.7L178.3,125.7z"/>
<path d="M71.1,136c-0.1,0.1-0.1,0.3-0.2,0.4l0,0c0-0.1,0-0.3,0-0.4l0,0C71,136,71,136,71.1,136L71.1,136z"/>
<path d="M243.8,128.9C243.8,128.9,243.9,128.9,243.8,128.9c0.1,0.1,0,0.1,0,0.1C243.8,129,243.8,129,243.8,128.9
	C243.8,128.9,243.8,128.9,243.8,128.9z"/>
<path d="M14.8,92.7c-0.1,0-0.2,0-0.3,0C14.6,92.7,14.7,92.7,14.8,92.7C14.8,92.7,14.8,92.7,14.8,92.7z"/>
<path d="M153.7,89.3C153.7,89.3,153.7,89.3,153.7,89.3C153.7,89.3,153.7,89.3,153.7,89.3C153.7,89.3,153.7,89.3,153.7,89.3z"/>
<path d="M106.6,124.8C106.7,124.8,106.7,124.9,106.6,124.8C106.7,124.9,106.7,124.8,106.6,124.8
	C106.6,124.8,106.6,124.8,106.6,124.8z"/>
<path d="M262.6,86.1C262.6,86.1,262.5,86.2,262.6,86.1C262.5,86.2,262.6,86.1,262.6,86.1L262.6,86.1z"/>
<path d="M19,65.2c-0.1,0-0.1,0-0.1,0c0,0,0,0,0-0.1C18.9,65.2,18.9,65.2,19,65.2z"/>
<path d="M151.4,64.8C151.4,64.8,151.4,64.8,151.4,64.8C151.4,64.8,151.4,64.8,151.4,64.8C151.4,64.8,151.4,64.8,151.4,64.8z"/>
<path d="M34.8,33.9c0-0.1,0-0.2,0-0.3C34.8,33.8,34.8,33.8,34.8,33.9L34.8,33.9z"/>
<path d="M34.8,30.4C34.9,30.4,34.9,30.4,34.8,30.4C34.9,30.4,34.9,30.5,34.8,30.4C34.9,30.5,34.9,30.5,34.8,30.4
	C34.8,30.5,34.8,30.4,34.8,30.4z"/>
<path d="M167.3,30c0.1,0,0.2,0,0.3,0c0,0,0,0.1,0,0.1C167.5,30,167.4,30,167.3,30C167.3,30,167.3,30,167.3,30z"/>
<path d="M170.9,122.2c-0.1,0.1-0.2,0.1-0.2,0.2c0,0,0,0,0,0C170.8,122.4,170.9,122.3,170.9,122.2C171,122.3,170.9,122.2,170.9,122.2
	z"/>
<polygon points="19.5,67.4 19.5,67.4 19.5,67.4 "/>
<path d="M18.6,65.6C18.6,65.6,18.6,65.6,18.6,65.6c-0.1,0-0.1,0-0.1,0C18.5,65.5,18.6,65.5,18.6,65.6C18.6,65.5,18.6,65.5,18.6,65.6
	z"/>
<path d="M151.2,65.1C151.2,65.2,151.2,65.2,151.2,65.1c0,0.1,0,0.1,0,0.1C151.1,65.2,151.1,65.2,151.2,65.1
	C151.1,65.2,151.1,65.2,151.2,65.1z"/>
<polygon points="152,92.4 152.1,92.5 152,92.5 "/>
<path d="M239.7,124.9C239.7,124.9,239.7,124.9,239.7,124.9c0-0.1,0-0.1,0-0.1C239.8,124.8,239.8,124.9,239.7,124.9
	C239.8,124.9,239.8,124.9,239.7,124.9z"/>
<path d="M19.9,63.1C19.9,63,19.9,63,19.9,63.1c0-0.1,0-0.1,0-0.1C20,63,20,63,19.9,63.1C20,63,20,63.1,19.9,63.1z"/>
<path d="M152.5,62.5C152.5,62.5,152.5,62.6,152.5,62.5C152.5,62.6,152.5,62.5,152.5,62.5L152.5,62.5z"/>
<path d="M163.4,47c0.1,0,0.1,0,0.2,0c0,0,0,0,0,0C163.6,47,163.5,47,163.4,47L163.4,47z"/>
<path d="M70.9,136.4c-0.1,0.1-0.1,0.1-0.2,0.2c0,0,0,0,0,0c0-0.1,0-0.2,0-0.2l0,0C70.8,136.4,70.9,136.4,70.9,136.4
	C70.9,136.4,70.9,136.4,70.9,136.4z"/>
<path d="M151,139C151,139,151,139,151,139c0,0.1,0,0.1,0,0.1C150.9,139.1,150.9,139.1,151,139C150.9,139,150.9,139,151,139z"/>
<path d="M167.5,33.2C167.4,33.2,167.4,33.2,167.5,33.2c0-0.1,0-0.1,0-0.1C167.5,33.1,167.5,33.2,167.5,33.2
	C167.5,33.2,167.5,33.2,167.5,33.2z"/>
<path d="M34.4,31.6L34.4,31.6L34.4,31.6z"/>
<path d="M34.1,31.3c0.1,0.1,0.1,0.2,0.2,0.3l0,0C34.3,31.5,34.2,31.4,34.1,31.3L34.1,31.3z"/>
<path d="M167.1,31C167.1,31,167.1,31.1,167.1,31c-0.1,0-0.1,0-0.1,0C167,31,167,31,167.1,31C167.1,31,167.1,31,167.1,31z"/>
<polygon points="18.4,139.1 18.3,139 18.4,139 "/>
<path d="M72.7,136.4c-0.1-0.1-0.2-0.1-0.2-0.2l0,0c0.1,0,0.2,0,0.2,0l0,0C72.7,136.2,72.7,136.3,72.7,136.4L72.7,136.4z"/>
<path d="M110.8,128.9c0,0,0.1,0,0.1,0C110.9,129,110.8,128.9,110.8,128.9C110.8,128.9,110.8,128.9,110.8,128.9z"/>
<path d="M5.3,115.4c0.1,0,0.1,0,0.2,0C5.4,115.4,5.4,115.4,5.3,115.4C5.3,115.3,5.3,115.4,5.3,115.4z"/>
<path d="M110.8,128.9c-0.1-0.1-0.1-0.2-0.2-0.3c0,0,0,0,0,0C110.6,128.8,110.7,128.9,110.8,128.9L110.8,128.9z"/>
<polygon points="63.3,18.5 63.3,18.4 63.4,18.5 "/>
<polygon points="196.1,18 196.2,18.1 196.1,18.1 "/>
<polygon points="195.7,17.7 195.7,17.6 195.8,17.7 "/>
<path d="M243.5,128.6C243.5,128.6,243.5,128.7,243.5,128.6c-0.1,0-0.1,0-0.1,0C243.4,128.6,243.4,128.6,243.5,128.6
	C243.5,128.6,243.5,128.6,243.5,128.6z"/>
<polygon points="150.8,83.9 150.9,83.9 150.8,83.9 "/>
<path d="M170.7,122.4C170.7,122.4,170.7,122.4,170.7,122.4C170.7,122.5,170.7,122.4,170.7,122.4
	C170.7,122.4,170.7,122.4,170.7,122.4z"/>
<path d="M39.3,126.1c-0.1,0.1-0.1,0.1-0.2,0.2l0,0C39.2,126.3,39.2,126.2,39.3,126.1C39.3,126.2,39.3,126.1,39.3,126.1z"/>
<path d="M63,18.2C63,18.2,63,18.2,63,18.2c0,0.1,0,0.1,0,0.1C62.9,18.3,62.9,18.3,63,18.2C62.9,18.2,63,18.2,63,18.2z"/>
<path d="M184.4,123.2c0.3-0.1,0.5-0.3,0.8-0.4c0,0.1,0,0.2,0.1,0.3C185,123.1,184.7,123.2,184.4,123.2L184.4,123.2z"/>
<path d="M192.2,125.7c0,0-0.1,0-0.1,0c0,0,0,0-0.1-0.1C192,125.6,192.1,125.6,192.2,125.7C192.2,125.6,192.2,125.6,192.2,125.7z"/>
<path d="M65.8,0c0.7,0.9,0.6,2.4-0.2,3.3C65,2.5,65,1.2,65.8,0z"/>
<path d="M80.8,5.1c-0.1,0.1-0.3,0.2-0.4,0.3c-0.1-0.1-0.2-0.2-0.2-0.3c0.2-0.1,0.4-0.1,0.5-0.2C80.8,5.1,80.8,5.1,80.8,5.1z"/>
<path d="M91.3,8.3c0.1-0.1,0.2-0.2,0.4-0.3c0,0,0.1,0.1,0.1,0.1c-0.1,0.1-0.2,0.2-0.3,0.3C91.5,8.4,91.4,8.3,91.3,8.3z"/>
<path d="M50.5,8c0.1,0.1,0.2,0.2,0.2,0.2c0,0.1-0.1,0.2-0.2,0.2c-0.1,0-0.2,0-0.2-0.1C50.3,8.2,50.4,8.1,50.5,8z"/>
</svg>
