<?xml version="1.0" encoding="utf-8"?>
<!-- Generator: Adobe Illustrator 26.0.1, SVG Export Plug-In . SVG Version: 6.00 Build 0)  -->
<svg fill="#FFFFFF" version="1.1" id="Layer_1" xmlns="http://www.w3.org/2000/svg" xmlns:xlink="http://www.w3.org/1999/xlink" x="0px" y="0px"
	 viewBox="0 0 176.9 93.2" style="enable-background:new 0 0 176.9 93.2;" xml:space="preserve">
<g>
	<path d="M153.7,40.2c1,6.1-3.7,9.6-6,15c1.8-1.2,2.7-2.2,3.6-3.2c3.3-3.3,6.7-6.6,10.8-8.7c2.5-1.3,5.1-2.4,7.8-3
		c4.6-1,8.3,3.2,6.5,7.6c-1.4,3.5-3.6,6.7-5.5,10c-0.9,1.6-2,3-3,4.6c-1.6,2.3-3.6,3.4-6.4,2.3c-2.4-4.2-2.4-4.2,2.1-13.9
		c-3.6,2-6.2,4.4-8.8,6.9c-10,9.5-19.4,19.7-27.6,30.8c-1.5,2-2.9,3.3-5.3,2c-1.3-0.7-2.2,0.1-3.2,0.4c-2.2,0.7-4.3,1.7-6.6,2
		c-6,0.7-10.1-2.7-13.5-7c-2.6-3.2-4.6-6.9-6.8-10.4c-0.4-0.7-0.8-1.4-1.4-2.5c-2.5,2.8-3.6,6.3-5.2,9.3c-1.7,3.1-3.1,6.2-4.6,9.2
		c-3.3,1.2-5.6-0.6-8.2-1.9c-3.4,1.8-6.8,3.6-10.8,3.3c-6-0.5-10.4-6.3-9.2-12.3c1.2-6.3,4.2-11.8,7.5-17.2
		c2.4-3.9,4.9-7.8,6.8-12.4c-1.1,0.6-2.2,1-3.1,1.7c-9,7.4-17,15.9-24.5,24.8c-3,3.5-5.7,7.3-8.6,11c-1.4,1.9-3.1,3.1-5.5,1.8
		c-1.6-0.9-2.9-0.3-4.2,0.5c-3.3,1.8-6.8,2.4-10.6,2.2c-7.4-0.4-12.2-7-9.4-13.8c2.5-6.1,5.9-11.8,9-17.7c1.1-2,2.3-4,3.5-6.1
		c-0.8-1.2-1.5-2.3-2.2-3.4c0-0.3,0-0.7,0.1-0.9c2.6-4.6,6.8-7.6,11.3-10.3c2.4-1.5,4.2-1.2,5.9,0.4c1.7,1.6,2.1,3.4,0.8,5.9
		c-3.3,6.1-6.8,12.2-10.2,18.2c-2.3,4-4.7,8-6.9,12.1c-0.9,1.7-2.2,3.8-0.6,5.5c1.7,1.8,3.9,1,6,0.1c4.9-2.1,8.5-5.9,11.3-10.2
		c4.8-7.5,9.2-15.4,13.7-23.1c1.1-1.9,2.2-3.7,3.5-5.4c2.8-3.6,5.3-4.5,10.8-4c1.2,5.3-3.5,8.5-5.2,14c2.1-2,3.5-3.2,4.8-4.5
		c4.5-4.3,9.3-8.1,15.5-9.4c1-0.2,2-0.5,2.9-0.4c4.1,0.5,6.3,4,4.9,8c-0.7,2-1.9,3.9-3.1,5.7C73,59.5,69.3,65,65.8,70.7
		c-1.7,2.8-3.1,5.9-4.2,9c-1.1,3,0.1,4.5,3.1,4.5c1.1,0,2.4-0.2,3.3-0.7c4.6-2.4,8.7-5.6,11.3-10.2c5.8-10.5,11.4-21,17.2-31.4
		c6.3-11.5,12.9-22.8,19.1-34.4c2.5-4.6,6.8-5.9,11.2-7.3c0.5-0.2,1.2,0.3,2.2,0.7c-5,10.8-11.1,20.6-16.6,30.7
		c-5.4,10.1-11.2,19.9-17.3,30.7c1.6-0.5,2.5-0.5,3.2-1c6.9-4.1,13.2-9,18.7-14.8c1.2-1.3,1.8-3.1,2.6-4.7c1-2.2,3.5-3.8,5.4-3.4
		c2.1,0.5,3.7,2.3,3.6,4.8c-0.1,1.6-0.5,3.3-1.2,4.7c-2.6,5.3-6.7,9.5-11.3,13.1c-4.4,3.4-9.2,6.5-13.9,9.7c1.1,4,3,7.8,6.2,10.8
		c3.4,3.2,5.2,3.3,9.2,0.8c2.7-1.7,4.9-4,6.5-6.7c5-8.4,10-16.8,15-25.2c0.9-1.4,1.7-2.8,2.6-4.2C144.4,41.7,148.2,39.9,153.7,40.2z
		"/>
	<path d="M33.6,33c-2.6,0.1-3.4-0.9-3.7-3.5c-0.5-4.4,4.6-9.7,8.4-10.5c3.4-0.6,5,0.9,4.7,4.4C42.7,27.8,37.7,32.9,33.6,33z"/>
</g>
</svg>
