<?xml version="1.0" encoding="utf-8"?>
<!-- Generator: Adobe Illustrator 26.0.1, SVG Export Plug-In . SVG Version: 6.00 Build 0)  -->
<svg version="1.1" id="Layer_1" xmlns="http://www.w3.org/2000/svg" xmlns:xlink="http://www.w3.org/1999/xlink" x="0px" y="0px"
	 viewBox="0 0 33.2 17.6" style="enable-background:new 0 0 33.2 17.6;" xml:space="preserve">
<style type="text/css">
	.st0{fill:#FFFFFF;}
</style>
<path d="M21.1,14.6C21.1,14.7,21.2,14.7,21.1,14.6C21.2,14.7,21.2,14.6,21.1,14.6L21.1,14.6c0-0.1,0-0.1,0-0.2v-0.1
	c-0.1,0-0.1-0.1-0.1-0.1c-0.1,0-0.1,0.1,0,0.2c0,0.1,0,0.2-0.1,0.3l0,0v-0.1c0-0.1,0-0.1,0.1-0.2h-0.1c0-0.1,0.1-0.1,0.1-0.2
	c0.1-0.1,0-0.2,0-0.3s-0.1-0.1-0.2-0.1c0-0.1,0-0.1,0-0.2l-0.1-0.1c0-0.1-0.1-0.1-0.2-0.1c0,0,0,0,0-0.1v-0.1c0-0.1-0.1-0.2-0.2-0.1
	c0,0,0,0,0.1,0.1c0,0,0,0,0.1,0c-0.1,0.1-0.1,0-0.2,0v0.1l0,0l-0.1-0.1l0.1-0.1V13c0-0.1,0-0.1,0.1-0.1c0.1-0.1,0.1-0.1,0-0.2
	c-0.1-0.1-0.1-0.2-0.2-0.3v-0.1c0-0.1,0-0.1-0.1-0.1v-0.1c0,0-0.1,0-0.1-0.1s-0.1-0.2-0.2-0.2s-0.2,0-0.3,0C19,12,19,12,18.8,12
	c0-0.1,0-0.1,0.1-0.1H19c0.1,0,0.1,0,0.2,0l0.1,0.1h0.1v-0.1c0-0.2-0.1-0.3-0.1-0.5c0-0.1,0-0.1-0.1-0.1v-0.1v-0.1
	c-0.1-0.1-0.1-0.1-0.1-0.2c0-0.1,0-0.1-0.1-0.2c-0.2-0.1-0.3,0-0.5,0c0,0,0,0-0.1,0l0,0c0-0.1,0.1-0.1,0.2-0.1s0.2,0,0.3,0l0,0
	c0-0.1,0-0.1-0.1-0.1s-0.1-0.1-0.1-0.1c0-0.1,0-0.1,0.1-0.1l0,0c0,0,0.1,0,0,0c0,0,0,0-0.1-0.1c0,0,0,0-0.1,0s-0.1,0-0.1-0.1
	c0,0,0.1,0,0.1-0.1c0,0,0-0.1-0.1,0v0.1h-0.1c0-0.1,0-0.1,0.1-0.2V9.8c0-0.1,0-0.1,0.1-0.2h0.1c0-0.1-0.2-0.1-0.2-0.2
	c0,0,0.1,0,0.1-0.1c-0.1,0-0.1,0-0.1-0.1l0,0c0.1,0,0.1,0,0.2-0.1c0-0.1,0-0.1,0-0.2c0,0,0-0.1,0-0.2h-0.1c-0.1,0-0.1,0-0.2-0.1
	c0,0-0.1,0-0.2,0c0-0.1,0.1-0.1,0.2-0.1s0.1,0,0.2,0s0.1,0,0.2,0c0-0.1-0.1-0.1-0.1-0.1C18.9,8,18.9,8,19,8h0.1C19,7.9,19,7.9,19,8
	c-0.1-0.1-0.1-0.1-0.2-0.2c0,0,0.1,0,0.1-0.1l-0.1-0.1h0.1H19l0.1-0.1c0,0,0-0.1-0.1-0.1c0,0-0.1,0-0.1-0.1V7.2V7.1
	c0,0,0.1,0,0.1,0.1c0-0.1,0.1-0.1,0.1-0.3c0,0.1,0,0.1,0.2,0.1c-0.1-0.1-0.1-0.2-0.2-0.2c0.1,0,0.2,0,0.3,0.1V6.8
	c0-0.1,0-0.1-0.1-0.1c0-0.1,0-0.1,0.1-0.1c0,0,0.1,0,0.2,0c-0.1-0.1-0.1-0.1-0.1-0.2c0,0,0,0,0-0.1l-0.1-0.1l0.1-0.1
	c0-0.1,0-0.2,0-0.3h-0.1c0-0.1,0.1-0.1,0.2-0.1l0,0l0,0l0,0h0.1c0,0,0-0.1-0.1-0.1c0,0,0,0,0.1,0s0.1,0,0.2,0s0.1,0,0.1-0.2
	c0,0,0,0,0-0.1h0.1c0.1,0,0.1-0.1,0-0.1L20,5.1c0.1-0.1,0.2-0.1,0.3,0l0,0l0,0l0,0c0.1,0,0.2,0,0.1-0.2c0-0.1,0-0.1,0.1-0.1
	s0.1,0,0.1-0.1l0,0l0,0l0,0l0,0V4.6c0.1-0.1,0.2,0,0.3,0c0-0.1,0.1-0.2,0.1-0.3V4.2c-0.1-0.1-0.1-0.2-0.1-0.3c0-0.1,0-0.1,0-0.2
	c0,0,0.1,0,0.1,0.1c0,0,0,0,0,0.1c0,0.2,0,0.2,0.2,0.2V4c-0.1-0.1-0.1-0.1-0.1-0.2c0,0,0,0,0-0.1C20.9,3.6,21,3.5,21,3.4
	s0-0.1-0.1-0.2c0,0,0-0.1,0-0.2c0.1,0.1,0.2,0.1,0.3,0.2l0,0l0,0l0,0l0,0l0,0c0.1-0.1,0.1-0.1,0.2-0.1L21.5,3c0,0,0.1,0,0.1,0.1
	L21.7,3c0,0,0.1,0,0.1,0.1c0,0,0,0,0.1-0.1C22,3,22,3,22.1,3c0,0,0,0,0-0.1c0.1-0.1,0.1-0.1-0.1-0.2c-0.1,0-0.1,0-0.2-0.1
	c0-0.1-0.1-0.2-0.2-0.2c0,0-0.1-0.1-0.1-0.2c0.1-0.1,0.1,0,0.2,0V2.1c0.1,0,0.1,0.1,0.1,0.1C22,2.4,22,2.6,22.2,2.6
	c0-0.1,0-0.1,0-0.1c0-0.1,0.1-0.1,0.1-0.2c0-0.1,0.1-0.1,0.1-0.1c0.1,0,0.1,0,0.1,0.1c0,0,0,0.1,0.1,0.2c0,0,0,0.1,0.1,0.1
	c0,0,0.1,0,0.1-0.1c-0.1-0.1-0.1-0.1-0.2-0.2c0.1,0,0.1,0,0.2,0c-0.1-0.2-0.2-0.4-0.3-0.7c0,0,0.1,0,0.1,0.1
	c0.1,0.1,0.2,0.1,0.4,0.1c0.1,0,0.1,0,0.2,0c0-0.1,0-0.1,0-0.2V1.5c0-0.1,0-0.1,0.1-0.1s0.2,0,0.3,0.1l0.1-0.1c0.1,0.1,0,0.1,0,0.2
	s0,0.1,0.1,0.1h0.1c0,0,0.1,0,0.1,0.1c0,0,0,0.1-0.1,0.1h-0.1c0,0.1,0.1,0.3,0.1,0.3C24,2,24,2,24,1.9l0.1-0.1c0.1,0,0.1,0,0.1-0.2
	l0,0c0.1,0,0.2-0.1,0.2,0c0.1,0,0.1,0.1,0.1,0.2l0.1-0.1c0.1-0.1,0.2,0,0.2,0.1s0,0.2,0.1,0.3c0,0,0,0,0,0.1c0.1,0,0.2,0,0.2,0.1
	c0.1,0.1,0.2,0,0.3-0.1V2.1V2c0,0,0-0.1-0.1-0.1c-0.1-0.2,0-0.2,0.1-0.3c0.1,0.1-0.1,0.2-0.1,0.3c0.1,0,0.2,0,0.2-0.1
	s0.1-0.2,0.1-0.2c0-0.1,0.1-0.1,0.1-0.2c0.1,0,0.1,0,0.1,0c0,0.1,0.1,0.1,0.1,0.2c0.1,0.1,0.2,0.2,0.3,0.2h0.1
	c0.1,0,0.1-0.1,0.1-0.2s0-0.1,0.1-0.1l0.1-0.1c0.1-0.1,0.1-0.1,0.3,0c0,0,0,0,0.1,0.1c0,0.1-0.1,0.2-0.1,0.3c0,0.1,0,0.2,0.1,0.2
	s0,0.1,0.1,0.2c0.1,0,0.1,0,0.2-0.1c0.1-0.1,0.1-0.1,0.2,0c0,0,0.1,0,0.1-0.1v0.1h0.1c0,0.1,0,0.1,0,0.2c0.1,0,0.1,0,0.2,0H28
	c0.1,0.1,0.2,0.1,0.3,0.1h0.1c0.1,0,0.1,0.1,0.1,0.1v0.1c0.1,0,0.1,0,0.2,0h0.1c0.1,0,0.1,0,0.1,0.1c0,0,0,0,0,0.1S29,3,29.1,3h0.1
	c0,0.1,0,0.1,0,0.2h0.1c0.1,0,0.1,0,0.2,0c0.2,0,0.3,0,0.4,0.1c0.1,0,0.2,0,0.2,0c0.1,0,0.2,0.1,0.2,0.2c0,0.1,0.1,0.1,0.1,0.1
	c0.1,0,0.1,0,0.1,0.1c0.1,0.1,0.1,0.1,0.2,0.1c0,0,0,0.1,0.1,0.1s0.1,0.2,0.2,0.2v0.1c0,0.1,0,0.2,0,0.2c0,0.1,0,0.2,0,0.2
	s0,0.1,0.1,0.1v0.1C31,4.9,31,5,31.1,5.1l0.1,0.1c0.1,0.1,0.1,0.1,0.2,0c0.1,0,0.1,0,0.1,0c0.1,0,0.1,0,0.1,0.1
	c-0.1,0.2-0.1,0.3,0,0.5C32,5.8,32,5.9,32.1,6s0.1,0.2,0.2,0.2v0.1l0,0c0.1,0,0.1,0,0.2,0.1c0.2,0.1,0.3,0.1,0.4-0.1
	c0-0.1,0.1-0.1,0.1-0.1c0.1,0.1,0.2,0.1,0.1,0.2l0,0c0,0.1,0,0.1-0.1,0.2c-0.1,0-0.2,0.1-0.2,0.2v0.1c0,0.1-0.1,0.1-0.1,0.2
	c0,0-0.1,0.1-0.1,0.2c0,0,0.1,0,0.1,0.1s0,0.2,0.1,0.3c0,0.1,0.1,0.2,0.1,0.3v0.1c-0.1,0.1-0.1,0.3,0,0.4c-0.1,0.1,0,0.1,0,0.2
	c0,0.1,0.1,0.1,0.1,0.2C33,9,33.1,9,33,9.1v0.1c0,0,0,0,0,0.1s-0.1,0.2-0.1,0.3l0,0c0,0.1,0,0.2,0,0.3l0,0c-0.1,0.1-0.1,0.2-0.1,0.2
	c-0.1,0.1-0.1,0.2,0,0.3c0,0,0,0-0.1,0.1c0.1,0.1,0.1,0.1,0,0.2c0,0.1,0,0.1,0.1,0.2c0.1,0,0.1,0.1,0.1,0.2h-0.1c-0.1,0-0.1,0-0.1,0
	c-0.1,0.2-0.2,0.4-0.2,0.6v0.1c0,0.1,0,0.2-0.1,0.2c-0.1,0.1-0.1,0.2-0.1,0.3c0,0,0,0.1-0.1,0.1c0,0,0,0.1,0,0.2v0.1c0,0,0,0,0,0.1
	v0.1l0,0c0,0.1-0.1,0.2-0.1,0.2c-0.1,0-0.1,0.1-0.1,0.2c0,0.1,0,0.1,0,0.2h-0.1v0.1c0,0-0.1,0-0.1,0.1c-0.1,0.1-0.2,0.2-0.2,0.3v0.1
	c0,0.1,0,0.2-0.1,0.2s-0.1,0.1-0.1,0.1c-0.1,0.1-0.1,0.1-0.2,0.2c0,0,0,0,0,0.1c0,0,0,0.1-0.1,0.1S31,14.9,31,15h-0.1
	c-0.1,0-0.1,0-0.1,0.1v0.1v0.1c-0.1-0.1-0.2-0.1-0.2-0.2c0,0.1,0,0.1,0,0.1c-0.1,0-0.1,0-0.2,0c0,0,0,0.1,0,0.2c0,0,0,0-0.1,0
	c-0.2,0-0.2,0-0.2,0.1H30c0,0.1-0.1,0.1-0.2,0.1s-0.1,0.1-0.2,0.1c-0.1,0.1,0,0.1,0,0.2c0,0.1,0.1,0.1,0.1,0.2l0,0h-0.1
	c-0.1-0.1-0.1-0.1-0.1-0.2c0,0,0,0,0-0.1c0,0-0.1,0-0.1,0.1c-0.1-0.1-0.1-0.1-0.2,0c0,0,0,0.1-0.1,0.1S29,15.9,29,15.9h-0.1V16
	c0,0.1,0.1,0.1,0,0.2l-0.1-0.1c0,0-0.1,0-0.2,0.1c0,0,0.1,0,0.1,0.1c0,0,0,0.1-0.1,0.1c0.1,0.1,0.1,0.1,0.1,0.2s0.1,0.1,0.1,0.1
	c0,0.1,0,0.2,0,0.3c-0.1,0-0.1,0-0.1,0s-0.1-0.1-0.1-0.2v-0.1c-0.1,0-0.1-0.1-0.1-0.2c0,0,0,0,0-0.1s-0.1-0.1-0.2-0.1l0,0
	c-0.1-0.1-0.2,0-0.3,0.1v0.1l0,0c0,0-0.1,0-0.2,0v-0.1c-0.1,0-0.2,0-0.3,0v0.1c-0.1,0.1-0.2,0-0.3-0.1c0,0.1-0.1,0-0.2,0.1
	s-0.2,0-0.2,0v0.1v0.1l0,0v-0.1c0-0.1-0.1-0.2-0.2-0.1c0,0,0,0-0.1,0c0,0,0,0-0.1,0h0.1c0,0,0.1,0,0.1,0.1c-0.2,0-0.2,0-0.2-0.1
	c-0.1,0-0.1,0-0.2,0.1v-0.1c0-0.1-0.1-0.1-0.2-0.1s-0.2,0-0.3,0c-0.1,0-0.2,0-0.3-0.1c-0.1-0.1-0.2,0-0.2,0.1s0,0.1-0.1,0.1l0,0
	c0-0.1,0-0.2-0.1-0.2s-0.1,0-0.1,0.1v0.1l0,0h-0.1c0,0,0,0,0-0.1s0-0.2-0.1-0.2c0,0-0.1,0-0.1-0.1L24.5,16c-0.1-0.1-0.2,0-0.3,0.1
	l0,0c-0.1,0-0.1-0.1-0.2-0.1c0,0,0-0.1-0.1-0.1l0,0c0-0.1-0.1-0.1-0.1-0.1v-0.1c-0.1,0-0.1,0.1-0.2,0.1v-0.1c0-0.1-0.1-0.1-0.1-0.1
	c-0.1,0-0.1,0-0.2-0.1c0-0.1-0.1-0.1-0.1-0.2c-0.1,0-0.2,0.1-0.3,0.1c0-0.2,0-0.2-0.2-0.3l0,0C22.6,15,22.6,15,22.5,15h-0.1v-0.1
	c0-0.1,0-0.1-0.1-0.1s-0.1,0-0.1-0.1"/>
<path d="M21.6,14.9c0-0.1-0.1-0.2-0.1-0.3c-0.1,0.1-0.1,0.1-0.2,0.2l0,0c0,0,0-0.1-0.1-0.1"/>
<polygon points="27.2,15.7 27.2,15.7 27.2,15.7 27.2,15.7 27.2,15.7 27.2,15.7 27.2,15.7 "/>
<rect x="28.6" y="15.1" width="0" height="0"/>
<path class="st0" d="M28.2,15.3L28.2,15.3C28.1,15.3,28.1,15.3,28.2,15.3c0-0.1,0-0.2,0.1-0.2c0,0.1,0,0.1,0.1,0.1c0,0,0,0,0-0.1
	h-0.1l0,0c0,0,0,0,0.1,0s0.1,0,0.2-0.1c0-0.1,0.1-0.1,0.2,0h0.1c0.1,0,0.2-0.1,0.3-0.2c0-0.1,0.1-0.1,0.2-0.1h0.1
	c0-0.2,0.1-0.2,0.3-0.2c0.1,0,0.2-0.1,0.2-0.2v-0.1c0.3,0,0.4-0.1,0.5-0.4h0.1c0.1,0,0.1,0,0.1-0.1s0-0.1,0-0.2c0-0.1,0-0.2,0.2-0.2
	H31c-0.1-0.1,0-0.3,0.1-0.3l0,0l0.1-0.1c0.1,0,0.2-0.1,0.2-0.2v-0.1c0.1,0,0.1-0.1,0.2-0.1c0-0.1,0-0.2,0.1-0.3
	c0.1-0.2,0.2-0.3,0.1-0.5c0.1,0,0.1-0.1,0.2-0.1c0,0,0,0,0-0.1c-0.1-0.1-0.1-0.2,0-0.3c0,0,0-0.1,0-0.2c0-0.1,0-0.1,0.1-0.2l0.1-0.1
	c0.1-0.1,0.1-0.2,0.1-0.3c0,0,0,0,0-0.1v-0.1c0.1-0.1,0.1-0.1,0-0.2c0,0,0,0,0-0.1c0.1,0,0.1-0.1,0.2-0.1c-0.1-0.1-0.1-0.1-0.2-0.2
	c0-0.1,0-0.1,0.1-0.1c0-0.1-0.1-0.1-0.1-0.1c0-0.1,0.1-0.1,0.1-0.2c0-0.1-0.1-0.1-0.1-0.1c0.1-0.2,0.2-0.4,0-0.6l0,0
	c0.1-0.1,0.1-0.1,0-0.2V8.2c0-0.1,0-0.1-0.1-0.2C32,7.8,31.9,7.7,32,7.5c0,0,0,0,0-0.1s0-0.3-0.2-0.3h-0.1c0,0,0,0,0-0.1
	s0-0.1,0-0.2c-0.1-0.1-0.1-0.2-0.1-0.3c0-0.1,0-0.2-0.1-0.2c0-0.1-0.1-0.1-0.1-0.1c-0.1,0-0.2-0.1-0.2-0.2s0-0.1-0.1-0.2
	c-0.1,0-0.2-0.1-0.2-0.2c-0.1-0.1-0.1-0.2-0.2-0.2c-0.1-0.1-0.2-0.2-0.2-0.3c0-0.1,0-0.1-0.1-0.1c0,0-0.1,0-0.1-0.1
	s-0.1-0.1-0.1-0.1h-0.1c0-0.1-0.1-0.1-0.2-0.2c0-0.1,0-0.1,0-0.2c-0.1,0-0.1,0-0.2,0c-0.1-0.1-0.1-0.1-0.2-0.2l0,0
	C29.4,4,29.3,4,29.3,4c-0.1,0-0.2,0-0.2-0.1V3.8H29c-0.1,0-0.1,0-0.1-0.1c-0.1-0.1-0.2-0.2-0.3-0.2c0,0-0.1,0-0.2,0l0,0l0,0
	c0-0.1-0.1-0.2-0.2-0.1c-0.1,0-0.2,0-0.3-0.1l0,0l0,0c-0.1,0.1-0.2,0.1-0.3,0c0,0,0,0-0.1-0.1c0,0,0,0-0.1,0c-0.2,0-0.4-0.1-0.6,0
	c-0.1,0-0.1,0.1-0.2,0h-0.1c-0.1,0-0.1,0-0.2,0c-0.1-0.1-0.2-0.1-0.4,0c-0.1,0.1-0.2,0.1-0.2,0h-0.1c-0.2,0-0.4,0-0.6,0.2
	c0,0,0,0-0.1,0.1c-0.1,0-0.1-0.1-0.2-0.1c-0.1,0.1-0.2,0.1-0.3,0.2c-0.1,0-0.1,0.1-0.2,0c-0.1,0-0.1,0-0.1,0.1
	c-0.1,0.1-0.2,0.1-0.3,0.1c0,0-0.1,0-0.1-0.1c-0.1,0.1-0.1,0.1-0.2,0.2C23.4,4,23.4,4,23.4,4.1c-0.1,0-0.1,0-0.2,0
	C22.7,4,22.5,4,22.4,4.2l-0.1,0.1c-0.1,0-0.1,0.1-0.1,0.1v0.1c-0.1,0-0.1,0-0.2,0v0.1c0,0.1-0.1,0.2-0.2,0.2h-0.1v0.1V5h-0.1
	c-0.1,0-0.2,0.1-0.2,0.2c0,0.2-0.1,0.3-0.2,0.4S21,5.8,20.9,6c-0.1,0.1-0.2,0.2-0.3,0.2l0,0c0,0.1,0,0.1,0,0.2s0,0.1-0.1,0.2
	s-0.2,0.2-0.2,0.3c0,0.2-0.1,0.3-0.3,0.4v0.1c0,0.1,0.1,0.1,0.1,0.2s0,0.1,0,0.2v0.1l0,0c0,0.1,0,0.1,0,0.2s0,0.1,0,0.2
	c0,0,0,0,0,0.1c-0.1,0-0.1,0.1-0.2,0.1c0,0.1,0,0.2-0.1,0.3c0,0.1,0.1,0.1,0.1,0.1c0,0.1,0,0.2,0,0.4c0,0.1-0.1,0.2,0,0.4
	c-0.1,0.1,0,0.2-0.1,0.3c0,0.1,0.1,0.1,0.1,0.2c-0.1,0-0.1,0.1-0.1,0.2c0,0.1,0,0.1,0,0.2c0,0.1,0,0.1,0,0.2v0.1
	c0.1,0.1,0.1,0.2,0,0.3v0.1c0.1,0,0.1,0.1,0.1,0.2c0,0,0,0.1,0.1,0.1h0.1C20,11.7,20,11.7,20,11.8v0.1c0.1,0.1,0.1,0.3,0.1,0.4
	c0.1,0.3,0.3,0.5,0.4,0.7c0,0,0,0,0.1,0.1s0.1,0.1,0.1,0.2c0.1,0,0.1,0,0.1,0.1s0.1,0.2,0.2,0.2c0,0,0,0,0.1,0.1c0,0,0,0.1,0.1,0.1
	l0.1,0.1c0,0,0.1,0,0.1-0.1c0,0.2,0.1,0.3,0.2,0.4c0.1,0.1,0.1,0.1,0.2,0.2c0.1,0.1,0.2,0.3,0.4,0.3l0,0c0,0.1,0.1,0.1,0.2,0.2
	l0.1,0.1c0,0.1,0.1,0.1,0.1,0.1s0.1,0,0.1,0.1c0.1,0.1,0.2,0.1,0.3,0.1l0,0c0,0.1,0,0.1,0.1,0.1s0.1,0,0.2,0c0,0.1,0.1,0.1,0.2,0.1
	s0.1,0,0.2,0c0.1,0.1,0.2,0.1,0.3,0.1c0.1,0,0.2,0,0.2,0.1c0.1,0,0.2,0,0.3,0h0.1c0.1,0,0.2,0,0.2-0.1c0,0,0,0,0.1,0
	c0,0.1,0,0.1,0.1,0.2c0.1,0,0.2,0,0.3,0c0.1,0,0.2,0,0.3,0c0.1,0,0.2,0,0.3,0c0.1,0,0.2-0.1,0.3-0.1c0,0.1,0,0.1,0.1,0.1
	c0.2,0,0.3,0,0.5,0c0.1,0,0.2-0.1,0.3-0.1l0,0c0-0.1,0.1-0.1,0.1-0.1s0.1,0,0.1,0.1c0.1,0,0.1,0,0.1,0l0,0l0,0l0,0
	c0-0.1,0.1-0.1,0.1,0l0,0l0,0l0,0h0.1c0,0,0,0,0-0.1s0.1-0.1,0.2-0.1C28,15.3,28,15.3,28.2,15.3C28.1,15.3,28.1,15.3,28.2,15.3z"/>
<path d="M19.7,5.9C19.6,5.9,19.6,5.9,19.7,5.9C19.6,5.9,19.6,5.9,19.7,5.9C19.6,5.9,19.6,5.9,19.7,5.9C19.7,6,19.7,6,19.7,5.9
	c0,0.1,0.1,0,0.2,0C19.8,5.9,19.7,5.9,19.7,5.9z"/>
<path d="M21,4.4c0.1,0,0.3-0.1,0.3-0.2s-0.1-0.1-0.1-0.1s-0.1,0-0.1,0.1c0,0,0,0.1,0.1,0.1C21,4.4,21,4.4,21,4.4z"/>
<path d="M21.2,14.2C21.1,14.2,21.1,14.2,21.2,14.2C21.1,14.3,21.1,14.3,21.2,14.2C21.1,14.3,21.1,14.3,21.2,14.2
	C21.1,14.3,21.1,14.3,21.2,14.2z"/>
<path d="M21.9,3.1L21.9,3.1L21.9,3.1C21.8,3.2,21.8,3.2,21.9,3.1C21.9,3.2,21.9,3.1,21.9,3.1z"/>
<path d="M19.9,5.7L19.9,5.7C19.9,5.7,19.8,5.7,19.9,5.7C19.8,5.7,19.9,5.7,19.9,5.7L19.9,5.7z"/>
<path d="M19.2,7.4L19.2,7.4C19.2,7.4,19.2,7.3,19.2,7.4C19.2,7.3,19.2,7.3,19.2,7.4C19.2,7.3,19.2,7.3,19.2,7.4z"/>
<rect x="19.6" y="5.7" width="0" height="0"/>
<polygon points="19.4,7.1 19.4,7.1 19.4,7.1 "/>
<path d="M18.3,10.3c0.1,0,0.1-0.1,0.1-0.2V10V9.9c0-0.1,0.1,0,0.1,0c0.1,0,0.1,0,0.2,0l0,0c0,0.1-0.1,0.3-0.2,0.3v0.1v0.1
	c-0.1,0-0.2,0.1-0.4,0.1c0,0,0,0-0.1,0l-0.1,0.1c-0.1,0.1-0.1,0.1-0.2,0.1h-0.1c0-0.1,0-0.2,0-0.3c0,0,0,0,0-0.1
	c0.1-0.1,0.1-0.1,0.2-0.2c0.1-0.1,0.1,0,0.2,0c0,0.1-0.1,0.2-0.1,0.3C18.1,10.4,18.2,10.4,18.3,10.3L18.3,10.3z"/>
<path d="M32.4,5.3c0,0,0.1,0,0.2,0.1c0,0.1,0,0.1-0.1,0.2s-0.2,0.2-0.3,0.2h-0.1V5.7c0-0.1,0.1-0.2,0.1-0.3
	C32.3,5.3,32.3,5.3,32.4,5.3z"/>
<path d="M28.4,1.9c0.1,0,0.1-0.1,0.2-0.1s0.1,0,0.1,0.1c0.1,0.1,0,0.2,0,0.2c0,0.1-0.1,0.1-0.2,0.1C28.4,2.1,28.4,2.1,28.4,1.9z"/>
<path d="M18.9,7.1c-0.1,0-0.1,0-0.2-0.1l0,0c0.1,0,0.2-0.1,0.3-0.1c0-0.1-0.1,0-0.1,0h-0.1c0,0,0-0.1,0.1-0.1s0.2,0,0.3,0
	c0,0,0,0,0.1,0v0.1c0,0,0,0-0.1,0c0,0-0.1,0-0.1-0.1C18.9,7,18.9,7.1,18.9,7.1L18.9,7.1z"/>
<path d="M18.6,8.4c0.1,0.1,0,0.3,0,0.3h-0.1V8.6C18.5,8.6,18.5,8.5,18.6,8.4z"/>
<path d="M19.2,11.6c-0.1,0,0-0.1,0-0.1c0-0.1,0-0.2-0.1-0.3c0,0,0,0,0-0.1c0.1,0,0.1,0,0.1,0.1h0.1c0,0.1,0,0.2-0.1,0.2
	C19.2,11.5,19.2,11.5,19.2,11.6z"/>
<path d="M21.3,2.7c-0.1,0-0.1-0.2-0.2-0.3V2.3h0.1c0.1,0.1,0.1,0.1,0.1,0.2C21.3,2.6,21.3,2.7,21.3,2.7z"/>
<path d="M18.4,9.8c0-0.1,0-0.2,0.1-0.2h0.1v0.1C18.6,9.7,18.5,9.8,18.4,9.8z"/>
<path d="M28.3,1.3c0.1,0,0.1,0,0.2,0.1c0,0.1-0.1,0.1-0.2,0.1h-0.1V1.4C28.3,1.4,28.3,1.4,28.3,1.3z"/>
<path d="M24.4,16.8c-0.1-0.1-0.1-0.1-0.1-0.2s0.1-0.1,0.2-0.1C24.5,16.6,24.5,16.7,24.4,16.8z"/>
<path d="M33.2,9.4c-0.2,0-0.2,0-0.2-0.1C33.1,9.3,33.1,9.3,33.2,9.4L33.2,9.4z"/>
<path d="M26.6,1.6c0-0.1,0-0.1,0-0.2c0,0,0-0.1,0.1-0.1c0,0,0,0,0.1,0.1c0,0,0,0,0,0.1C26.7,1.6,26.7,1.6,26.6,1.6z"/>
<path d="M21.7,2.7c0,0.1-0.1,0.1-0.1,0.1c-0.1,0-0.1-0.1-0.1-0.2C21.6,2.6,21.6,2.7,21.7,2.7z"/>
<path d="M17.4,13.7h-0.1c0,0-0.1,0-0.1-0.1s0-0.1,0.1-0.1C17.4,13.6,17.4,13.6,17.4,13.7z"/>
<path d="M30.1,17.1c0-0.1,0.1-0.1,0.1-0.1"/>
<path d="M21.8,2.1c-0.1,0-0.1,0-0.2-0.1c0-0.1,0.1-0.1,0.1-0.1C21.8,2,21.8,2,21.8,2.1z"/>
<path d="M18.8,13.9c-0.1,0-0.2,0-0.2-0.1C18.6,13.8,18.7,13.8,18.8,13.9L18.8,13.9z"/>
<path d="M19.4,5.2c0.1,0.1,0.1,0.1,0.2,0.2C19.4,5.4,19.4,5.4,19.4,5.2z"/>
<path d="M24.4,1c-0.1,0-0.1-0.1-0.1-0.1s0,0,0.1,0l0,0V1z"/>
<path d="M18.5,10.6l-0.1,0.1l0,0C18.4,10.6,18.4,10.5,18.5,10.6C18.5,10.5,18.5,10.6,18.5,10.6z"/>
<path d="M20.4,4.4c0-0.1,0-0.1,0-0.2l0,0C20.4,4.3,20.5,4.3,20.4,4.4L20.4,4.4z"/>
<path d="M27.7,16.4C27.8,16.4,27.8,16.4,27.7,16.4c0.1,0.1,0.1,0.1,0.1,0.1l0,0C27.8,16.5,27.7,16.5,27.7,16.4L27.7,16.4L27.7,16.4z
	"/>
<path d="M19.9,14.3c0-0.1,0.1-0.1,0.2,0C19.9,14.3,19.9,14.3,19.9,14.3L19.9,14.3z"/>
<path d="M19.2,5.7L19.2,5.7C19.1,5.7,19.1,5.6,19.2,5.7C19.2,5.6,19.2,5.6,19.2,5.7C19.2,5.7,19.2,5.6,19.2,5.7L19.2,5.7L19.2,5.7
	C19.2,5.6,19.2,5.7,19.2,5.7z"/>
<path d="M18.6,7.7c0.1-0.1,0.1-0.1,0.2,0C18.7,7.7,18.7,7.7,18.6,7.7z"/>
<path d="M25.3,16.4C25.3,16.5,25.3,16.5,25.3,16.4C25.2,16.5,25.2,16.4,25.3,16.4L25.3,16.4L25.3,16.4z"/>
<path d="M32.9,11.2c0,0-0.1,0-0.1,0.1L32.9,11.2C32.8,11.2,32.9,11.2,32.9,11.2L32.9,11.2z"/>
<path d="M33.2,11.3c0,0-0.1,0-0.1-0.1C33.1,11.2,33.1,11.2,33.2,11.3z"/>
<path d="M18.3,11c0.1-0.1,0.1-0.1,0.1,0C18.3,11,18.3,11,18.3,11L18.3,11z"/>
<path d="M20.6,3.3h0.1C20.6,3.4,20.6,3.4,20.6,3.3C20.6,3.4,20.6,3.4,20.6,3.3z"/>
<path d="M20.8,3.4L20.8,3.4C20.8,3.5,20.8,3.5,20.8,3.4C20.7,3.4,20.7,3.4,20.8,3.4z"/>
<path d="M20.5,2.5C20.6,2.6,20.6,2.6,20.5,2.5L20.5,2.5L20.5,2.5z"/>
<path d="M29.4,15.9C29.4,16,29.4,16,29.4,15.9C29.5,16,29.5,16,29.4,15.9C29.4,16,29.4,16,29.4,15.9C29.4,16,29.4,16,29.4,15.9
	L29.4,15.9z"/>
<path d="M18.3,10.3C18.2,10.3,18.2,10.3,18.3,10.3c-0.1,0-0.1,0-0.1,0C18.2,10.3,18.2,10.2,18.3,10.3C18.2,10.2,18.3,10.3,18.3,10.3
	L18.3,10.3z"/>
<path d="M24.2,1.4C24.2,1.5,24.2,1.5,24.2,1.4c-0.1,0-0.1,0-0.1,0H24.2L24.2,1.4z"/>
<path d="M19.9,3.1h-0.1l0,0C19.8,3.1,19.8,3.1,19.9,3.1L19.9,3.1z"/>
<path d="M18.8,10.1C18.8,10.1,18.7,10.1,18.8,10.1c-0.1,0-0.1,0-0.1,0C18.7,10.1,18.7,10,18.8,10.1C18.8,10,18.8,10,18.8,10.1z"/>
<path d="M20.7,2.9L20.7,2.9L20.7,2.9L20.7,2.9z"/>
<path d="M18.3,10.4C18.3,10.5,18.3,10.5,18.3,10.4C18.3,10.5,18.2,10.5,18.3,10.4L18.3,10.4L18.3,10.4z"/>
<path d="M18.7,9.2C18.8,9.2,18.8,9.2,18.7,9.2c0.1,0,0.1,0,0.1,0C18.8,9.2,18.8,9.2,18.7,9.2C18.8,9.2,18.7,9.2,18.7,9.2z"/>
<path d="M17.9,12.7L17.9,12.7L17.9,12.7C17.9,12.7,17.9,12.8,17.9,12.7C17.9,12.8,17.9,12.8,17.9,12.7z"/>
<path d="M31.3,15.8C31.2,15.8,31.2,15.8,31.3,15.8C31.2,15.8,31.2,15.8,31.3,15.8C31.2,15.8,31.2,15.7,31.3,15.8
	C31.3,15.7,31.3,15.7,31.3,15.8z"/>
<path d="M18.7,10.3C18.7,10.2,18.7,10.2,18.7,10.3C18.8,10.2,18.8,10.2,18.7,10.3C18.8,10.3,18.7,10.3,18.7,10.3L18.7,10.3z"/>
<path d="M27.7,17C27.7,17,27.8,17,27.7,17C27.8,17,27.8,17,27.7,17C27.8,17,27.8,17,27.7,17C27.8,17,27.7,17,27.7,17z"/>
<path d="M18.8,11C18.8,11,18.8,11.1,18.8,11C18.7,11.1,18.7,11.1,18.8,11C18.7,11,18.8,11,18.8,11L18.8,11z"/>
<path d="M19.8,3.3C19.8,3.3,19.7,3.3,19.8,3.3C19.7,3.4,19.7,3.4,19.8,3.3C19.7,3.3,19.7,3.3,19.8,3.3L19.8,3.3z"/>
<path d="M30.3,15.3L30.3,15.3L30.3,15.3L30.3,15.3L30.3,15.3z"/>
<path d="M28.8,16.2L28.8,16.2C28.7,16.2,28.7,16.2,28.8,16.2C28.7,16.2,28.8,16.2,28.8,16.2L28.8,16.2z"/>
<path d="M28.6,16.4L28.6,16.4L28.6,16.4L28.6,16.4L28.6,16.4z"/>
<path d="M28.9,17.6L28.9,17.6C28.8,17.6,28.8,17.6,28.9,17.6C28.8,17.6,28.9,17.6,28.9,17.6C28.9,17.5,28.9,17.6,28.9,17.6z"/>
<path d="M20.9,3.5C20.9,3.5,20.9,3.4,20.9,3.5C20.9,3.4,20.9,3.4,20.9,3.5L20.9,3.5L20.9,3.5z"/>
<path d="M18.1,10C18.2,10,18.2,10,18.1,10C18.2,10,18.2,10,18.1,10C18.2,10,18.2,10,18.1,10C18.2,10,18.2,10,18.1,10z"/>
<path d="M18.7,10.6C18.7,10.6,18.7,10.7,18.7,10.6C18.7,10.7,18.7,10.7,18.7,10.6L18.7,10.6L18.7,10.6z"/>
<path d="M33,10.9L33,10.9L33,10.9L33,10.9L33,10.9z"/>
<path d="M32.7,11.4C32.7,11.4,32.6,11.4,32.7,11.4C32.6,11.4,32.6,11.4,32.7,11.4C32.6,11.4,32.6,11.3,32.7,11.4
	C32.6,11.3,32.7,11.3,32.7,11.4z"/>
<path d="M32.5,13C32.5,13,32.6,13,32.5,13C32.6,13,32.6,13,32.5,13C32.6,13,32.6,13.1,32.5,13C32.5,13.1,32.5,13.1,32.5,13z"/>
<path d="M29.9,15.4L29.9,15.4L29.9,15.4L29.9,15.4L29.9,15.4z"/>
<path d="M31,14.3C31,14.3,31,14.4,31,14.3C31,14.4,31,14.3,31,14.3L31,14.3L31,14.3z"/>
<path d="M18.5,7.1C18.5,7.1,18.6,7.1,18.5,7.1C18.6,7,18.6,7.1,18.5,7.1C18.6,7.1,18.6,7.1,18.5,7.1L18.5,7.1z"/>
<path d="M30.6,15.4L30.6,15.4L30.6,15.4C30.6,15.4,30.6,15.5,30.6,15.4C30.6,15.5,30.6,15.4,30.6,15.4z"/>
<path d="M32.4,12.7L32.4,12.7C32.3,12.7,32.3,12.7,32.4,12.7C32.3,12.7,32.4,12.7,32.4,12.7L32.4,12.7z"/>
<path d="M29.3,16.9C29.4,16.9,29.4,16.9,29.3,16.9C29.4,16.9,29.4,16.9,29.3,16.9C29.4,16.9,29.4,16.9,29.3,16.9
	C29.4,16.9,29.4,16.9,29.3,16.9z"/>
<path d="M18.7,13.4L18.7,13.4L18.7,13.4C18.7,13.4,18.7,13.3,18.7,13.4C18.7,13.3,18.7,13.3,18.7,13.4z"/>
<path d="M25.1,16.5L25.1,16.5L25.1,16.5C25.1,16.5,25.1,16.6,25.1,16.5C25.1,16.6,25.1,16.6,25.1,16.5z"/>
<path d="M24.9,1.2L24.9,1.2C24.9,1.3,24.9,1.3,24.9,1.2C24.9,1.3,24.9,1.3,24.9,1.2C24.9,1.3,24.9,1.2,24.9,1.2z"/>
<path d="M21.1,2.1L21.1,2.1L21.1,2.1L21.1,2.1L21.1,2.1z"/>
<path d="M23,16C23,16,23,15.9,23,16C23,15.9,23.1,16,23,16L23,16L23,16z"/>
<path d="M31.6,13.8L31.6,13.8L31.6,13.8C31.6,13.8,31.6,13.7,31.6,13.8C31.6,13.7,31.6,13.7,31.6,13.8z"/>
<path d="M19.8,5.1L19.8,5.1L19.8,5.1L19.8,5.1C19.8,5,19.8,5.1,19.8,5.1L19.8,5.1z"/>
<path d="M19.8,5.3L19.8,5.3L19.8,5.3L19.8,5.3L19.8,5.3z"/>
<path d="M18.3,11L18.3,11C18.2,11,18.2,11,18.3,11C18.2,11,18.3,11,18.3,11L18.3,11z"/>
<path d="M28.6,17C28.6,17,28.5,17,28.6,17C28.5,17,28.5,17,28.6,17C28.5,17,28.5,17,28.6,17L28.6,17z"/>
<path d="M20.7,3.8C20.7,3.9,20.7,3.9,20.7,3.8C20.7,3.9,20.7,3.8,20.7,3.8L20.7,3.8L20.7,3.8z"/>
<path d="M20.8,2.9C20.8,2.9,20.7,2.9,20.8,2.9C20.7,2.9,20.7,2.9,20.8,2.9C20.7,2.9,20.8,2.9,20.8,2.9L20.8,2.9L20.8,2.9z"/>
<path d="M30,17C30,16.9,30,16.9,30,17C30,16.9,30,16.9,30,17C30,16.9,30,16.9,30,17C30,16.9,30,16.9,30,17z"/>
<path d="M18.5,9.7C18.5,9.7,18.4,9.7,18.5,9.7C18.4,9.7,18.4,9.7,18.5,9.7C18.4,9.7,18.4,9.7,18.5,9.7L18.5,9.7z"/>
<path d="M22.3,1.7L22.3,1.7L22.3,1.7L22.3,1.7L22.3,1.7z"/>
<path d="M18.8,13.9L18.8,13.9L18.8,13.9L18.8,13.9z"/>
<path d="M20.5,2.5L20.5,2.5L20.5,2.5L20.5,2.5z"/>
<path d="M22.2,15.3L22.2,15.3L22.2,15.3L22.2,15.3z"/>
<polygon points="30.7,15.7 30.7,15.7 30.7,15.7 "/>
<path d="M19,10.6L19,10.6L19,10.6L19,10.6z"/>
<polygon points="18.7,7.4 18.7,7.4 18.8,7.4 "/>
<path d="M20.8,2.9L20.8,2.9L20.8,2.9L20.8,2.9L20.8,2.9z"/>
<path d="M21.3,14.8L21.3,14.8"/>
<polygon points="18.7,7.5 18.7,7.5 18.7,7.5 "/>
<path d="M18.8,11L18.8,11L18.8,11z"/>
<polygon points="30.1,15.2 30.1,15.2 30.1,15.2 30.2,15.2 "/>
<path d="M18.9,7.1L18.9,7.1L18.9,7.1L18.9,7.1z"/>
<path d="M20.3,5.1L20.3,5.1L20.3,5.1L20.3,5.1L20.3,5.1z"/>
<polygon points="20.8,3.3 20.8,3.3 20.8,3.3 "/>
<polygon points="20.8,3.1 20.8,3.1 20.8,3.1 20.8,3 "/>
<path d="M24.5,1.4L24.5,1.4L24.5,1.4z"/>
<path d="M24.5,1.3L24.5,1.3L24.5,1.3z"/>
<polygon points="30.6,15.6 30.6,15.7 30.6,15.6 "/>
<path d="M18.7,9.9L18.7,9.9L18.7,9.9z"/>
<g>
	<path d="M11.1,16.6C11.1,16.5,11.1,16.5,11.1,16.6c-0.1-0.2-0.2-0.3-0.3-0.4c-0.1,0.1,0,0.1,0,0.2s0,0.1,0,0.2c0,0-0.1,0-0.1-0.1
		s-0.1-0.1-0.2-0.1v-0.1c-0.1,0-0.1,0-0.2,0c0,0.2,0,0.3-0.1,0.5c-0.1-0.1-0.2-0.2-0.2-0.2c0,0.1-0.1,0.2-0.1,0.3
		c-0.1-0.1-0.1-0.2-0.2-0.2c-0.1,0.1-0.2,0.1-0.3,0.2c-0.1,0-0.1,0.1-0.2,0c-0.1-0.1-0.1,0-0.2,0c0,0-0.1,0-0.1,0.1
		c-0.1-0.1-0.2,0-0.3-0.2l0,0l0,0l0,0l0,0l0,0l0,0c0,0-0.1,0-0.1-0.1l0,0c0,0-0.1,0-0.1,0.1l0,0l0,0l0,0c0,0,0,0,0,0.1l0,0l0,0l0,0
		V17c-0.1-0.1-0.2-0.2-0.4-0.3c-0.1,0.1-0.1,0.2-0.2,0.2c-0.1-0.1-0.1-0.2-0.2-0.2c-0.2,0-0.2,0.2-0.3,0.3c-0.1-0.1-0.1-0.1-0.1-0.3
		c-0.1,0-0.1-0.1-0.2-0.1c-0.1,0.1-0.1,0.2-0.2,0.3c0-0.2-0.1-0.3-0.1-0.4c-0.1,0.1-0.2,0.2-0.3,0.3l-0.1-0.1l-0.1,0.1
		c-0.1,0.1-0.2,0-0.2-0.1c0.1,0,0.1-0.1,0.2-0.1c0,0,0.1,0,0.1,0.1l0,0c0-0.1-0.1-0.2-0.1-0.3c-0.1,0-0.3,0.1-0.4,0.1
		c-0.1-0.1,0-0.3-0.1-0.4c-0.1,0-0.2,0-0.3,0c0,0-0.1,0-0.1,0.1c-0.1,0.1-0.2,0.1-0.3,0c0-0.1,0-0.1,0-0.2c0,0-0.1,0-0.1-0.1
		c0,0,0,0,0.1-0.1v-0.1c0,0,0-0.1-0.1-0.1s-0.1-0.1-0.2-0.1l-0.1-0.1c-0.1,0-0.1-0.1-0.2-0.1s-0.2,0-0.2,0.1l0,0l0,0l0,0H4.1
		c0-0.1,0-0.2,0-0.3H4c-0.1,0-0.2,0-0.3-0.1H3.6c-0.1,0-0.1,0-0.2,0c0-0.1,0.1-0.3,0.1-0.4c-0.1,0-0.3,0.1-0.4,0.1
		c0.1-0.2,0.1-0.3,0.2-0.4l0,0c-0.1,0-0.3,0.1-0.4,0.1C3,14.2,3.1,14,3,13.8c-0.1,0-0.2,0-0.2,0c0-0.1,0-0.1,0-0.2
		c-0.1,0-0.3,0-0.4,0c-0.1-0.1-0.1-0.2,0-0.3s0.1-0.2,0.1-0.4c-0.1,0-0.2,0-0.4,0c0.1-0.1,0.1-0.2,0.1-0.3c-0.1,0-0.1,0-0.2-0.1
		c0,0-0.1,0-0.1-0.1s-0.1-0.2-0.2-0.3V12c-0.1,0-0.1,0-0.2,0c0-0.1,0-0.1,0.1-0.1s0.2-0.1,0.3-0.2c-0.2,0-0.3-0.1-0.4-0.1
		c0-0.1,0.1-0.1,0.1-0.2v-0.1c-0.1-0.1,0-0.1,0-0.2c0-0.1,0-0.2,0.1-0.3c-0.1-0.1-0.2-0.1-0.3-0.2l0.1-0.1c-0.1,0-0.2,0-0.3,0
		c0.1-0.2,0.2-0.1,0.3-0.1c0-0.1,0-0.3-0.2-0.3c0-0.1,0-0.1,0-0.1c0,0.1,0,0.1-0.1,0.1l-0.1,0.1C1,10.2,1,10.3,1,10.3v0.1
		c-0.1,0-0.2,0.1-0.4,0.1c0,0,0,0-0.1,0l-0.1,0.1c0,0.1-0.1,0.1-0.2,0.1H0.1c0-0.1,0-0.2,0.1-0.3l0,0c0.1-0.1,0.1-0.1,0.2-0.2
		c0.1-0.1,0.1,0,0.2,0c0,0.1-0.1,0.2-0.1,0.2c0.1,0,0.2,0,0.3-0.1l0,0c0.1,0,0.2-0.1,0.1-0.2V10V9.9c0.1-0.1,0.1,0,0.2,0
		c0.1,0.1,0.2,0,0.2-0.1l0,0c0.1-0.1,0.1-0.2,0-0.3c0-0.1,0-0.1,0-0.2l0,0c0,0,0,0-0.1,0c0-0.1,0.1,0,0.1-0.1C1.7,9.1,1.7,9,1.6,9
		c0.1,0,0.1-0.1,0.2-0.1s0.1-0.1,0.1-0.2c0,0,0,0,0-0.1S1.8,8.5,1.7,8.5H1.6c0,0,0,0-0.1,0H1.4c0-0.1,0.1-0.1,0.2-0.1s0.1,0,0.2,0
		h0.1c0-0.1-0.1-0.1-0.1-0.2l0.1-0.1c0-0.1-0.1-0.2-0.1-0.3l0,0h0.1V7.7c0,0,0,0-0.1-0.1c0-0.1,0.1,0,0.1,0H2c0,0,0.1,0,0.1-0.1
		s0-0.1-0.1-0.1c0,0-0.1,0-0.1-0.1S2,7.2,2,7.1c0,0,0.1,0,0.1,0.1C2,7.1,2.1,7,2.2,7c0,0.1,0,0.1,0.1,0.1C2.2,7,2.2,7,2.2,7
		s0-0.1-0.1-0.1h0.1c0-0.1,0.1-0.1,0.2-0.2c0-0.1-0.1,0-0.1-0.1s0.1-0.1,0.1-0.2c0,0,0,0,0.1,0c0-0.1,0-0.1,0-0.1L2.4,6.2
		c0,0,0.1-0.1,0.2-0.1C2.3,6,2.4,5.9,2.4,5.8H2.3c0.1-0.1,0.1-0.1,0.2-0.1h0.1l0,0H2.5c0-0.1,0-0.1,0.1-0.1c0.2,0.1,0.3,0,0.3-0.2
		l0,0H3c0.1-0.2,0-0.2-0.1-0.3c0.1,0,0.1,0,0.2,0c0,0,0.1,0,0.1,0.1c0.1,0,0.2,0,0.1-0.1c0-0.1,0-0.2,0.1-0.2V4.8V4.7
		c0.1-0.1,0.1-0.1,0.2,0c0.1,0,0.1,0,0.1-0.1s0.1-0.2,0.1-0.2C3.7,4.3,3.7,4.2,3.7,4.1s0-0.2,0-0.3c0.1,0,0.1,0.1,0.1,0.1
		C3.8,4,3.9,4.1,4,4.2l0,0C4,4,4,3.9,3.9,3.8c0-0.1-0.1-0.2-0.1-0.3s0-0.2-0.1-0.2V3.2c0.1,0,0.2,0.1,0.3,0.2c0,0,0,0,0.1-0.1
		c0,0,0,0,0.1,0.1l0,0c0.1-0.1,0.1-0.1,0.2-0.1c0,0,0,0,0.1,0V3.2c0,0,0.1,0,0.1,0.1c0.1,0,0-0.1,0.1-0.1h0.1C4.8,3,4.9,3,5,3.1l0,0
		c0.1-0.2,0.1-0.2-0.1-0.2c0,0-0.1,0-0.1-0.1C4.7,2.7,4.7,2.6,4.6,2.5L4.5,2.4c0.1-0.1,0.1,0,0.2,0V2.3c0.1,0.1,0.1,0.1,0.1,0.1
		c0.1,0.1,0.1,0.2,0.3,0.2c0.1-0.1,0-0.1,0-0.1c0-0.1,0.1-0.1,0.1-0.2c0-0.1,0.1-0.1,0.1-0.1c0.1,0,0.1,0,0.1,0.1v0.1
		c0,0,0,0.1,0.1,0.1c0,0,0.1,0,0.1-0.1c-0.1,0-0.1-0.1-0.2-0.1c0.1,0,0.1,0,0.1,0l0,0c0,0,0,0,0-0.1c0,0,0-0.2-0.1-0.3
		c0,0,0,0,0-0.1V1.7c-0.1-0.1-0.1-0.2,0-0.2V1.4c0.1-0.2,0.1-0.3,0-0.5c0-0.1,0-0.1,0-0.2V0.6l0,0c0-0.1,0-0.1,0.1-0.1
		c0-0.1,0-0.2,0-0.2c0-0.1,0-0.1,0.1-0.1s0.1,0,0.2,0.1v0.1c0,0.1,0.1,0.2,0.2,0.3s0.1,0.1,0,0.2L5.9,1C6,0.9,6,1,6.1,1
		s0.2,0,0.3,0.2l0,0c0.1,0,0.1,0.1,0.1,0.2c0,0,0,0,0,0.1s0,0.1,0.1,0.1s0.1,0,0.2,0c0,0.1,0,0.1-0.2,0.2c0,0.1,0.1,0.2,0.1,0.3
		c0,0,0,0,0.1,0C6.9,2,6.9,1.9,7,1.9s0.1,0,0.1-0.1c0,0,0,0,0-0.1c0.1-0.1,0.2-0.1,0.2,0c0.1,0,0.1,0.1,0.1,0.2c0,0,0-0.1,0.1-0.1
		s0.1-0.1,0.2-0.1s0.1,0,0.1,0.1v0.1c0,0.1,0,0.1,0.1,0.2c0,0,0,0.1,0.1,0.1c0.1,0,0.2,0,0.2,0.1c0.1,0.1,0.2,0,0.2-0.1
		c0.1-0.1,0-0.2,0-0.3l0,0c-0.1-0.2,0-0.3,0.1-0.3c0,0.1,0,0.1,0,0.2c0,0,0,0.1-0.1,0.1c0.1,0,0.2,0,0.2-0.1s0-0.2,0.1-0.2
		c0-0.1,0.1-0.1,0.1-0.1h0.1c0,0,0,0.1,0.1,0.1c0,0.1,0.1,0.2,0.2,0.3c0,0,0,0,0.1,0s0.1,0,0.2,0c0-0.1,0-0.2,0.1-0.2
		c0.1-0.1,0.1-0.1,0.1-0.1c0.1-0.1,0.1-0.1,0.3,0l0,0c0,0.1-0.1,0.2-0.1,0.3S9.9,2,10,2.1l0.1,0.1c0,0.1,0,0.1,0.1,0l0.1-0.1h0.1
		c0.1,0.1,0.1,0,0.2,0v0.1h0.1c0,0.1,0,0.1,0,0.2c0.1,0,0.2-0.1,0.2-0.1c0.1,0.1,0.2,0.1,0.3,0.1c0.2,0,0.2,0,0.2,0.2c0,0,0,0,0,0.1
		c0.1,0,0.1,0,0.2,0c0.1,0,0.2,0,0.2,0.1C12,2.9,12,3,12.2,3c0.1,0,0.1,0,0.1,0.1c0,0,0,0,0,0.1h0.1c0.1,0,0.1,0,0.2,0
		c0.2,0,0.3,0,0.4,0.1c0.1,0,0.1,0,0.2,0c0.1,0,0.2,0.1,0.2,0.2c0,0.1,0.1,0.1,0.2,0.1c0,0,0.1,0,0.1,0.1c0,0,0.1,0.1,0.2,0.1
		L14,3.9c0.1,0,0.1,0.2,0.2,0.2v0.1c0,0.1,0,0.2,0,0.2c0,0.1,0.1,0.1,0,0.2c0,0.1,0,0.1,0.1,0.1c-0.1,0.2-0.1,0.3,0.1,0.5
		c0.1,0.1,0.1,0.1,0.2,0c0.1,0,0.1,0,0.2,0.1v0.1c-0.1,0.1-0.1,0.2,0,0.3C14.9,5.9,14.9,6,15,6.2c0,0,0,0,0.1,0.1c0,0,0,0,0,0.1l0,0
		l0,0c0.1,0,0.2,0.1,0.3,0.1s0.2,0,0.3-0.1c0-0.1,0.1-0.1,0.1-0.2c0.1,0.1,0.2,0.1,0.1,0.2c0,0,0,0,0,0.1s0,0.1-0.1,0.1
		c0,0,0,0-0.1,0s-0.1,0.1-0.1,0.1c0,0.1,0,0.2-0.1,0.2c0,0,0,0.1-0.1,0.1c0,0,0,0.1-0.1,0.1c0.1,0,0.1,0.1,0.1,0.2s0.1,0.2,0.1,0.3
		c0,0.1,0.1,0.1,0.1,0.2v0.1c-0.1,0.1-0.1,0.3,0,0.4c-0.1,0.1,0,0.1,0,0.2c0.1,0.1,0.1,0.2,0.2,0.3l-0.1,0.1c0,0,0,0.1,0.1,0.1
		c0,0,0,0,0,0.1s-0.1,0.2-0.1,0.2l0,0c0,0.1,0,0.2,0,0.3l0,0c-0.1,0-0.1,0.2-0.1,0.2c-0.1,0.1-0.1,0.2,0,0.3c0,0,0,0-0.1,0.1
		c0.1,0.1,0.1,0.1,0,0.2c0,0.1,0,0.1,0.1,0.1s0.1,0.1,0.1,0.2h-0.1c-0.1,0-0.1,0-0.1,0c0,0.1-0.1,0.2-0.1,0.3v0.1v0.1
		c0,0.3,0,0.3-0.2,0.5c-0.1,0.1-0.1,0.2-0.1,0.3v0.1c0,0.1,0,0.1,0,0.1s0,0,0,0.1v0.1v0.1c0,0.1-0.1,0.1-0.1,0.2
		c-0.1,0-0.1,0.1-0.1,0.1c0,0.1,0,0.1,0,0.2c-0.1,0-0.1,0-0.1,0v0.1c0,0-0.1,0-0.1,0.1c-0.1,0.1-0.1,0.2-0.2,0.3v0.1
		c0,0.1,0,0.2-0.1,0.4l-0.1,0.1c-0.1,0-0.2,0-0.2,0.2c-0.1,0-0.1,0-0.2,0c-0.1,0-0.1,0-0.1,0.1s0.1,0.1,0.1,0.2c-0.1,0-0.2,0-0.2,0
		c0,0.1,0,0.1,0,0.1c-0.1,0-0.1,0-0.2,0C13.1,14.9,13,15,13,15s-0.1,0,0,0.1v0.1l0,0c-0.1,0-0.1,0-0.2,0c0,0.1-0.1,0.1,0,0.2
		l-0.1,0.1c0,0-0.1,0-0.1-0.1c-0.1,0-0.2,0-0.3,0.1l0,0c-0.1,0.1-0.1,0.1-0.1,0.2c0,0.1,0.1,0.1,0.1,0.2l0,0h-0.1
		c-0.1-0.1-0.1-0.1-0.2-0.2c-0.1,0-0.2,0.2-0.3,0.3c-0.1,0-0.2-0.1-0.3-0.1c0,0.1,0,0.1,0,0.2L11.3,16c-0.1,0.1-0.1,0.1-0.2,0.2
		c0.1,0.1,0.1,0.1,0.1,0.2s0,0.1,0.1,0.1s0.1,0.1,0.1,0.1 M2.5,5.9L2.5,5.9L2.5,5.9L2.5,5.9C2.5,6,2.5,6,2.5,5.9C2.6,6,2.7,6,2.7,6
		l0,0C2.7,5.9,2.6,5.9,2.5,5.9z M3.9,4.3C3.9,4.3,3.9,4.4,3.9,4.3C4,4.4,4,4.5,3.9,4.5c0.1,0,0.3-0.1,0.3-0.2S4.1,4.2,4.1,4.2
		C4,4.2,3.9,4.2,3.9,4.3z M2.1,7.4L2.1,7.4L2.1,7.4L2.1,7.4L2.1,7.4z M2.8,5.8C2.8,5.7,2.8,5.7,2.8,5.8C2.7,5.7,2.7,5.7,2.8,5.8
		C2.7,5.8,2.7,5.8,2.8,5.8L2.8,5.8z M4.7,3.2L4.7,3.2C4.7,3.2,4.8,3.2,4.7,3.2C4.8,3.2,4.8,3.2,4.7,3.2C4.8,3.2,4.7,3.2,4.7,3.2z
		 M2.3,7.1L2.3,7.1L2.3,7.1L2.3,7.1z"/>
	<path d="M5.5,17.4c0-0.1,0-0.1,0-0.2s0.1-0.2,0.1-0.3c0-0.1,0-0.2,0.1-0.3c0.1,0,0.2,0,0.2,0C6,16.7,6,16.8,6,16.9s0,0.1,0,0.2
		s0,0.1-0.1,0.2l-0.1,0.1c0,0.1,0,0.1-0.1,0.1C5.6,17.4,5.6,17.4,5.5,17.4z"/>
	<path d="M15,5.8c-0.1,0-0.1,0-0.1-0.1s0-0.1,0.1-0.2c0,0,0-0.1,0.1-0.1l0,0c0.1,0,0.2,0,0.3,0s0.1,0,0.1,0.1
		C15.4,5.6,15.1,5.8,15,5.8z"/>
	<path d="M11.2,2c0.1-0.1,0.2-0.1,0.3-0.1s0.1,0.1,0.1,0.2c0,0.2-0.1,0.2-0.2,0.2C11.3,2.2,11.2,2.1,11.2,2L11.2,2z"/>
	<path d="M1.6,8.6c0,0.1,0,0.1-0.1,0.2c0,0-0.1,0.1-0.1,0c-0.1,0,0-0.1,0-0.1c0-0.1,0.1-0.1,0.1-0.1C1.4,8.5,1.5,8.5,1.6,8.6
		C1.5,8.5,1.5,8.5,1.6,8.6z"/>
	<path d="M1.8,7C1.8,6.9,1.8,6.9,1.8,7C1.7,6.9,1.6,6.9,1.6,6.9l0,0l0,0c0.1,0,0.2,0,0.3,0H2V7l0,0C1.9,7,1.9,7,1.8,7L1.8,7z"/>
	<path d="M4.1,2.8C4,2.7,4,2.6,4,2.5l0.1-0.1l0.1,0.1C4.2,2.6,4.2,2.7,4.1,2.8z"/>
	<path d="M0.6,9.7C0.7,9.7,0.7,9.7,0.6,9.7c0.1-0.1,0.2-0.2,0.2-0.1c0,0,0,0.1,0,0.2l0,0C0.8,9.8,0.7,9.8,0.6,9.7
		C0.7,9.8,0.7,9.8,0.6,9.7z"/>
	<path d="M11.2,1.4c0.1,0,0.1,0,0.2,0.1c0,0.1-0.1,0.1-0.2,0.1h-0.1V1.5C11.1,1.5,11.2,1.5,11.2,1.4z"/>
	<path d="M16,9.5c-0.1,0-0.1-0.1-0.2-0.1V9.3c0,0,0,0,0.1,0c0,0,0.1,0,0.1,0.1C16,9.4,16,9.4,16,9.5z"/>
	<path d="M4.6,2.8C4.6,2.9,4.5,2.9,4.6,2.8c-0.2,0.1-0.2,0-0.2-0.1C4.4,2.7,4.5,2.7,4.6,2.8z"/>
	<path d="M9.6,1.7c-0.1,0-0.1,0-0.1,0c0-0.1,0-0.1,0-0.2c0,0,0-0.1,0.1-0.1c0,0,0.1,0,0.1,0.1C9.6,1.6,9.6,1.6,9.6,1.7z"/>
	<path d="M3.9,15.3c-0.1-0.1,0-0.2,0-0.2C4,15.1,4,15.2,3.9,15.3C4.1,15.2,4,15.2,3.9,15.3z"/>
	<path d="M1.8,7c0,0.1,0,0.1,0,0.2c-0.1,0-0.1,0-0.2-0.1l0,0C1.7,7,1.7,7,1.8,7L1.8,7z"/>
	<path d="M16.4,12.3C16.4,12.2,16.3,12.2,16.4,12.3c-0.1-0.1,0-0.2,0.1-0.1c0,0,0.1,0,0.1,0.1C16.5,12.2,16.5,12.3,16.4,12.3z"/>
	<path d="M4.5,2.1C4.5,2,4.5,2,4.5,2.1c0.2-0.1,0.2,0,0.2,0.1C4.6,2.2,4.5,2.1,4.5,2.1z"/>
	<path d="M1.2,5.3c0,0.1,0.1,0.1,0.1,0.2c0,0,0,0,0,0.1H1.2C1.1,5.4,1.1,5.3,1.2,5.3z"/>
	<path d="M2.3,5.3c0.1,0.1,0.1,0.1,0.2,0.1c0,0.1-0.1,0.1-0.1,0C2.3,5.4,2.3,5.4,2.3,5.3z"/>
	<path d="M1.5,5.5c0,0.1-0.1,0.1-0.2,0.1V5.5C1.4,5.4,1.5,5.4,1.5,5.5z M1.4,5.5L1.4,5.5L1.4,5.5L1.4,5.5L1.4,5.5z"/>
	<path d="M2,5.8C2,5.7,2,5.7,2,5.8L2,5.8C2.1,5.6,2.1,5.7,2,5.8C2.1,5.7,2.1,5.8,2,5.8z"/>
	<path d="M0.3,10.6L0.3,10.6c0,0.1-0.1,0.1-0.1,0.1l0,0C0.2,10.6,0.2,10.6,0.3,10.6C0.2,10.6,0.2,10.6,0.3,10.6z"/>
	<path d="M5.6,16.6c0-0.1,0-0.1,0.1-0.1C5.7,16.5,5.6,16.5,5.6,16.6z"/>
	<path d="M3.6,16.3L3.6,16.3C3.7,16.2,3.7,16.3,3.6,16.3C3.7,16.4,3.6,16.4,3.6,16.3C3.6,16.4,3.6,16.4,3.6,16.3z"/>
	<path d="M3.3,4.3c0,0.1,0.1,0.1,0,0.2C3.3,4.4,3.3,4.3,3.3,4.3C3.2,4.3,3.3,4.3,3.3,4.3z"/>
	<path d="M1.7,7.7H1.6C1.6,7.7,1.6,7.7,1.7,7.7z"/>
	<path d="M2.9,14.3c-0.1,0-0.1,0-0.2,0C2.8,14.2,2.8,14.2,2.9,14.3z"/>
	<path d="M15.7,11.2L15.7,11.2c-0.1,0-0.1,0-0.1,0C15.7,11.2,15.7,11.2,15.7,11.2L15.7,11.2z"/>
	<path d="M3.7,3.4L3.7,3.4L3.7,3.4C3.6,3.5,3.6,3.5,3.7,3.4C3.7,3.5,3.7,3.4,3.7,3.4L3.7,3.4z"/>
	<path d="M1.2,11L1.2,11C1.2,11,1.3,11,1.2,11C1.3,11,1.3,11,1.2,11C1.3,11,1.2,11,1.2,11L1.2,11z"/>
	<path d="M16,11.3C15.9,11.3,15.9,11.3,16,11.3C15.9,11.3,15.9,11.2,16,11.3C16,11.2,16,11.2,16,11.3z"/>
	<path d="M4.3,15.4C4.2,15.4,4.2,15.4,4.3,15.4C4.2,15.3,4.2,15.4,4.3,15.4L4.3,15.4z"/>
	<path d="M12.3,15.9C12.3,16,12.3,16,12.3,15.9C12.3,16,12.3,16,12.3,15.9C12.3,16,12.3,16,12.3,15.9C12.3,16,12.3,16,12.3,15.9
		L12.3,15.9z"/>
	<path d="M1.2,10.3H1.1C1.1,10.2,1.1,10.2,1.2,10.3L1.2,10.3z"/>
	<path d="M14.9,3C15,3,15,3,14.9,3C15,3,14.9,3,14.9,3z"/>
	<path d="M3.4,3.4L3.4,3.4C3.5,3.4,3.5,3.5,3.4,3.4C3.5,3.5,3.4,3.5,3.4,3.4z"/>
	<path d="M3.6,3.1C3.5,3,3.6,3,3.6,3.1L3.6,3.1C3.6,3,3.6,3,3.6,3.1L3.6,3.1z"/>
	<path d="M2.1,4.6C2.1,4.5,2.1,4.5,2.1,4.6C2.1,4.5,2.1,4.5,2.1,4.6L2.1,4.6L2.1,4.6z"/>
	<path d="M11.6,16.2L11.6,16.2c0.1,0,0.1,0,0.1,0C11.6,16.2,11.6,16.2,11.6,16.2L11.6,16.2z"/>
	<path d="M1.7,11C1.7,11.1,1.7,11.1,1.7,11C1.6,11.1,1.6,11.1,1.7,11C1.6,11,1.6,11,1.7,11L1.7,11z"/>
	<path d="M15.2,12.7L15.2,12.7L15.2,12.7L15.2,12.7C15.2,12.8,15.2,12.8,15.2,12.7z"/>
	<path d="M7.1,1.5C7.1,1.5,7,1.5,7.1,1.5C7,1.5,7,1.5,7.1,1.5C7,1.5,7.1,1.5,7.1,1.5L7.1,1.5z"/>
	<path d="M1.6,10.3L1.6,10.3c0.1,0,0.1,0,0.1,0C1.6,10.3,1.6,10.3,1.6,10.3L1.6,10.3z"/>
	<path d="M15.4,13.1C15.4,13.1,15.4,13,15.4,13.1C15.4,13,15.4,13,15.4,13.1L15.4,13.1L15.4,13.1z"/>
	<path d="M13.1,15.3L13.1,15.3C13.2,15.3,13.2,15.3,13.1,15.3L13.1,15.3L13.1,15.3z"/>
	<path d="M4.3,15.4C4.4,15.4,4.4,15.4,4.3,15.4C4.4,15.4,4.4,15.4,4.3,15.4C4.4,15.4,4.4,15.5,4.3,15.4C4.3,15.5,4.3,15.5,4.3,15.4z
		"/>
	<path d="M4.5,15.5L4.5,15.5L4.5,15.5L4.5,15.5L4.5,15.5z"/>
	<path d="M4.3,15.8C4.3,15.8,4.4,15.8,4.3,15.8C4.4,15.8,4.4,15.8,4.3,15.8C4.4,15.8,4.4,15.8,4.3,15.8C4.3,15.9,4.3,15.8,4.3,15.8z
		"/>
	<path d="M11.4,16.4L11.4,16.4C11.4,16.4,11.5,16.4,11.4,16.4C11.5,16.4,11.5,16.4,11.4,16.4C11.5,16.4,11.5,16.4,11.4,16.4z"/>
	<path d="M2.7,5.1L2.7,5.1L2.7,5.1L2.7,5.1L2.7,5.1z"/>
	<path d="M15.8,9.9L15.8,9.9C15.8,10,15.8,10,15.8,9.9L15.8,9.9L15.8,9.9z"/>
	<path d="M2.7,5.3C2.7,5.3,2.7,5.4,2.7,5.3C2.7,5.4,2.7,5.4,2.7,5.3C2.7,5.4,2.7,5.4,2.7,5.3L2.7,5.3z"/>
	<path d="M1.1,10L1.1,10C1.1,10.1,1,10,1.1,10L1.1,10L1.1,10z"/>
	<path d="M15.5,11.4L15.5,11.4C15.4,11.4,15.4,11.4,15.5,11.4C15.4,11.4,15.4,11.4,15.5,11.4L15.5,11.4z"/>
	<path d="M4.7,15.5L4.7,15.5L4.7,15.5L4.7,15.5L4.7,15.5z"/>
	<path d="M1.5,7.2C1.5,7.1,1.4,7.1,1.5,7.2C1.4,7.1,1.5,7.1,1.5,7.2C1.5,7.1,1.5,7.1,1.5,7.2C1.5,7.1,1.5,7.1,1.5,7.2z"/>
	<path d="M13.9,14.3C13.9,14.3,13.8,14.4,13.9,14.3C13.8,14.4,13.8,14.4,13.9,14.3C13.8,14.3,13.8,14.3,13.9,14.3L13.9,14.3z"/>
	<path d="M5.4,0C5.4,0,5.4,0.1,5.4,0C5.4,0.1,5.4,0.1,5.4,0L5.4,0L5.4,0z"/>
	<path d="M10.6,17L10.6,17"/>
	<path d="M5.1,1C5.1,1.1,5.1,1.1,5.1,1C5.1,1.1,5,1.1,5.1,1C5.1,1.1,5.1,1.1,5.1,1L5.1,1z"/>
	<path d="M7.8,1.3L7.8,1.3C7.8,1.4,7.8,1.3,7.8,1.3L7.8,1.3L7.8,1.3z"/>
	<path d="M4.7,15.7L4.7,15.7L4.7,15.7L4.7,15.7L4.7,15.7z"/>
	<path d="M1.1,11C1.1,11,1.2,11,1.1,11L1.1,11C1.2,11,1.1,11.1,1.1,11L1.1,11z"/>
	<path d="M4.7,1.7C4.7,1.8,4.7,1.8,4.7,1.7C4.7,1.8,4.7,1.8,4.7,1.7C4.7,1.8,4.7,1.8,4.7,1.7C4.7,1.8,4.7,1.8,4.7,1.7z"/>
	<path d="M0.9,10.7C0.9,10.7,1,10.7,0.9,10.7C1,10.7,1,10.7,0.9,10.7C1,10.7,0.9,10.7,0.9,10.7L0.9,10.7z"/>
	<path d="M15.9,10.9C15.9,10.9,15.8,10.9,15.9,10.9C15.8,11,15.8,10.9,15.9,10.9C15.8,10.9,15.8,10.9,15.9,10.9L15.9,10.9z"/>
	<path d="M1.4,9.7C1.4,9.7,1.3,9.7,1.4,9.7C1.3,9.7,1.3,9.7,1.4,9.7C1.3,9.7,1.3,9.7,1.4,9.7C1.3,9.7,1.4,9.7,1.4,9.7z"/>
	<path d="M3.9,2.2C4,2.2,4,2.1,3.9,2.2C4,2.1,4,2.1,3.9,2.2C4,2.2,4,2.2,3.9,2.2C4,2.2,4,2.2,3.9,2.2z"/>
	<path d="M14.4,13.8C14.4,13.8,14.4,13.7,14.4,13.8C14.4,13.7,14.4,13.7,14.4,13.8L14.4,13.8L14.4,13.8z"/>
	<path d="M3.8,3.5L3.8,3.5L3.8,3.5L3.8,3.5L3.8,3.5z"/>
	<path d="M3.6,3.9L3.6,3.9L3.6,3.9L3.6,3.9L3.6,3.9z"/>
	<path d="M13.5,15.5L13.5,15.5C13.4,15.5,13.4,15.5,13.5,15.5C13.4,15.4,13.5,15.4,13.5,15.5C13.5,15.4,13.5,15.4,13.5,15.5z"/>
	<path d="M16.7,10.2C16.7,10.3,16.7,10.3,16.7,10.2C16.7,10.3,16.7,10.3,16.7,10.2C16.7,10.3,16.7,10.3,16.7,10.2
		C16.7,10.3,16.7,10.3,16.7,10.2z"/>
	<path d="M5.2,1.8L5.2,1.8L5.2,1.8L5.2,1.8L5.2,1.8z"/>
	<path d="M0,10.5C0,10.5,0,10.4,0,10.5C0.1,10.4,0.1,10.5,0,10.5C0.1,10.5,0,10.5,0,10.5L0,10.5z"/>
	<path d="M15.8,13L15.8,13"/>
	<path d="M3.6,3C3.6,2.9,3.6,2.9,3.6,3C3.7,2.9,3.7,2.9,3.6,3L3.6,3L3.6,3z"/>
	<path d="M8.4,16.6L8.4,16.6L8.4,16.6L8.4,16.6L8.4,16.6L8.4,16.6L8.4,16.6z"/>
	<path d="M1.1,11L1.1,11L1.1,11L1.1,11z"/>
	<path d="M13,15.2L13,15.2L13,15.2L13,15.2z"/>
	<path d="M1.7,7.5C1.6,7.5,1.6,7.5,1.7,7.5C1.6,7.5,1.6,7.5,1.7,7.5C1.6,7.5,1.6,7.5,1.7,7.5z"/>
	<path d="M3.7,3.4L3.7,3.4L3.7,3.4L3.7,3.4z"/>
	<path d="M3.7,3L3.7,3L3.7,3L3.7,3L3.7,3z"/>
	<path d="M1.7,7.7v0.1V7.7z"/>
	<polygon points="1.6,7.5 1.6,7.5 1.6,7.5 	"/>
	<polygon points="1.8,7.2 1.8,7.2 1.8,7.2 	"/>
	<path d="M8.4,16.6C8.4,16.7,8.3,16.7,8.4,16.6C8.3,16.7,8.3,16.7,8.4,16.6C8.3,16.7,8.3,16.7,8.4,16.6L8.4,16.6
		C8.3,16.6,8.4,16.6,8.4,16.6L8.4,16.6z"/>
	<path d="M3.6,3.1L3.6,3.1L3.6,3.1z"/>
	<path d="M3.6,3.1L3.6,3.1L3.6,3.1L3.6,3.1L3.6,3.1z"/>
	<path d="M8.6,16.6L8.6,16.6L8.6,16.6L8.6,16.6L8.6,16.6L8.6,16.6L8.6,16.6z"/>
	<path d="M7.4,1.4L7.4,1.4L7.4,1.4z"/>
	<path d="M4.3,15.3L4.3,15.3L4.3,15.3L4.3,15.3L4.3,15.3z"/>
	<polygon points="7.3,1.4 7.3,1.4 7.3,1.4 	"/>
</g>
<path d="M23,14.9C23,14.9,23.1,14.9,23,14.9c0.1,0,0.1,0,0.1,0H23L23,14.9z"/>
<path d="M24,15.3L24,15.3L24,15.3L24,15.3L24,15.3z"/>
</svg>
