<?xml version="1.0" encoding="utf-8"?>
<!-- Generator: Adobe Illustrator 26.0.1, SVG Export Plug-In . SVG Version: 6.00 Build 0)  -->
<svg version="1.1" id="Layer_1" xmlns="http://www.w3.org/2000/svg" xmlns:xlink="http://www.w3.org/1999/xlink" x="0px" y="0px"
	 viewBox="0 0 27.3 14.3" style="enable-background:new 0 0 27.3 14.3;" xml:space="preserve">
<g>
	<path d="M1,8.5c0-0.2-0.1-0.3,0.2-0.4c0.1,0,0.1-0.2,0.2-0.3c0-0.2-0.2-0.4,0.1-0.6c0,0,0-0.1-0.1-0.2C1.3,7,1.2,6.9,1.1,6.9
		c0.1,0,0.1,0,0.2,0c0.1,0,0.3-0.1,0.2-0.2C1.2,6.4,1.3,6.3,1.5,6.2c-0.2-0.1,0-0.2,0-0.3c0.2-0.1,0.2-0.4,0.3-0.5
		c0,0-0.1-0.1-0.1-0.2c0-0.1,0-0.4,0.1-0.4C2,4.6,2.2,4.6,2.3,4.5c0.1-0.1,0.1-0.2,0-0.3c0,0,0.1-0.1,0.1,0c0.2,0.1,0.3,0.1,0.3-0.1
		C2.8,3.8,3.1,3.7,3,3.4c0.3-0.2,0.1-0.5,0-0.8c0.3,0,0.5,0,0.7,0c0.1,0,0.3-0.1,0.4-0.1C3.9,2.4,3.8,2.4,3.8,2.3
		C3.7,2.2,3.7,2.1,3.6,1.9c0.1,0,0.1,0,0.2,0C3.9,2,3.9,2.1,4,2.1C4,2.1,4.1,2,4.1,1.9c0,0,0.1,0,0.2,0c0.1,0,0.1,0.1,0.1,0
		c0-0.1-0.1-0.2-0.1-0.3c0-0.6-0.1-1.1,0.2-1.6c0,0,0.1,0,0.1,0c0,0.1,0,0.2,0.1,0.3c0,0.1,0.2,0.1,0.1,0.2c0,0.2,0,0.4,0.2,0.5
		C5.3,1,5.2,1.3,5.4,1.3c0,0.1,0,0.1-0.1,0.2c0,0.1,0,0.1,0,0.2c0,0,0.1,0,0.2,0c0.1-0.1,0.2-0.2,0.3-0.2c0.1,0,0.2,0.2,0.3,0
		c0,0,0.2,0.1,0.2,0.1c0,0.3,0.1,0.3,0.3,0.3c0,0,0.1,0.1,0.2,0.2c0-0.2,0-0.4,0-0.6c0,0,0.1,0,0.1,0C7,1.4,7,1.5,7,1.5
		c0-0.1,0-0.1,0-0.2c0.1-0.2,0.2-0.2,0.5,0c0,0,0.1,0.1,0.1,0.1c0,0,0,0.1,0,0.1c0,0,0.1-0.1,0.1-0.1c0,0,0,0,0.1,0
		c0.1-0.1,0.2-0.2,0.3-0.2c0.2,0,0.1,0.2,0.1,0.3c0,0.1,0.1,0.1,0.1,0.1c0.2,0,0.3,0,0.4,0.2c0,0,0.1,0.1,0.1,0.1
		c0.2,0,0.4,0,0.4,0.1c0.1,0.1,0.1,0.2,0.3,0.2c0,0,0.1,0.1,0.1,0.1c0.1,0.2,0.3,0.4,0.6,0.3c0.5-0.1,0.8,0.3,1.1,0.6
		c0,0,0,0.1,0,0.2c0,0.2,0,0.4,0,0.6c0,0.1,0.1,0.2,0.2,0.2C11.9,4.2,12,4.2,12,4.4c0,0.3,0.2,0.6,0.4,0.8c0.2,0.3,0.3,0.3,0.6,0
		c0,0,0.1,0,0.1,0c0,0.1,0,0.1,0,0.2c0,0.1-0.1,0.1-0.2,0.2c-0.3,0.4-0.3,0.5-0.2,1c0.1,0.2-0.1,0.4,0.1,0.6
		c0.1,0.2,0.2,0.4,0.2,0.6c0,0,0,0.1-0.1,0.1c0,0-0.1,0-0.1,0.1c0,0.1,0,0.3,0,0.3c-0.1,0.1-0.2,0.3-0.1,0.4c0.1,0.1-0.1,0.2,0,0.3
		c0,0,0.1,0.1,0.1,0.1c-0.4,0.2-0.2,0.5-0.3,0.8c-0.1,0.2-0.3,0.5-0.3,0.8c0,0.2-0.4,0.1-0.3,0.4c0,0,0,0.1,0,0.2
		c-0.4,0.3-0.3,0.8-0.8,1c-0.3,0.1,0.1,0.3-0.1,0.3c-0.1,0-0.3,0.1-0.3,0.2c-0.1,0.1-0.3,0.2-0.3,0.4c0,0-0.1,0.1-0.2,0.1
		c-0.2,0-0.3,0-0.3,0.3c0,0.2-0.1,0-0.2,0c-0.1,0.2-0.3,0.2-0.5,0.3c-0.1,0-0.1,0.2-0.1,0.3c-0.1-0.1-0.2-0.2-0.3-0.2
		c-0.1,0,0.1,0.4-0.2,0.1c-0.1-0.1-0.3-0.1-0.3,0.2c-0.1,0-0.2,0.3-0.4,0.1c0,0-0.1,0-0.2,0c-0.3,0.1-0.5,0.2-0.8,0
		c-0.1,0-0.3,0.1-0.4-0.1c0-0.1-0.3,0-0.4,0.1c-0.1,0-0.2,0.2-0.2-0.1c0,0-0.1-0.1-0.2-0.1c-0.1,0-0.1,0.2-0.2,0
		c-0.2-0.3-0.3,0-0.5,0c0,0-0.1,0-0.1,0c0-0.1,0-0.1,0-0.2c0.1-0.1,0.1-0.2-0.1-0.2c-0.1,0-0.2,0.2-0.2-0.1c0-0.1-0.2-0.3-0.4-0.1
		c0,0-0.1,0-0.2-0.1c-0.1-0.3-0.1-0.3-0.7-0.5c0,0,0,0,0,0c0-0.1-0.1-0.1-0.1-0.2c-0.1,0-0.1,0.1-0.2,0.1c0,0,0-0.1-0.1-0.2
		c-0.1,0-0.2,0-0.2,0c0,0,0-0.1,0-0.1c0-0.1,0-0.1,0-0.2c0,0-0.1,0.1-0.1,0.1c0,0-0.1,0-0.1-0.1c0-0.1,0-0.2,0-0.2
		c-0.1,0-0.1,0-0.2,0.1c0-0.1-0.1-0.2,0-0.3c0.1-0.1,0.1-0.2-0.1-0.2c-0.1,0-0.1-0.3-0.3-0.1c0,0-0.1-0.1-0.1-0.1
		C1.9,11,2,10.9,2,10.8c0-0.1,0-0.2,0-0.2c-0.5,0-0.4-0.5-0.6-0.8c0,0,0,0,0,0c0.1-0.1,0.4,0,0.2-0.3c-0.4,0-0.1-0.2,0-0.3
		c0-0.3-0.2-0.4-0.4-0.6c0,0,0.1-0.1,0.1-0.1c0.1,0,0.2-0.1,0.1-0.2c0,0-0.1,0-0.2,0C1.1,8.4,1,8.5,1,8.5z M3.2,3.6
		c0,0,0-0.1-0.1-0.1c0,0-0.1,0.1-0.1,0.1c0,0.1,0,0.1,0.1,0.1C3.2,3.7,3.2,3.6,3.2,3.6z"/>
	<path d="M27.3,7.8C27.2,7.8,27.2,7.7,27.3,7.8c-0.1-0.1,0-0.1,0-0.1C27.3,7.7,27.3,7.7,27.3,7.8z"/>
	<path d="M15.7,5.7c0.2-0.2,0.2-0.2,0.3-0.7c0-0.1,0.2-0.2,0-0.3c0,0,0.1-0.1,0.1-0.1c0.3,0,0.5-0.3,0.7-0.5
		c0.2-0.2,0.4-0.4,0.4-0.7c0.1-0.3,0.1-0.3,0-0.8c0,0,0-0.1,0-0.1c0,0,0.1,0,0.1,0c0.3,0.2,0.5-0.1,0.8-0.1c0-0.1,0.1-0.2,0-0.2
		c-0.1-0.1-0.2-0.2-0.3-0.3c0.1-0.1,0.1-0.1,0.2-0.2C18,1.9,18.1,2,18.1,2c0.1-0.1,0.2-0.3,0.4-0.1c0,0,0.2,0,0.1-0.1
		c-0.1-0.1-0.1-0.2-0.2-0.3c0.1,0,0.2,0,0.3,0c0.1,0,0.1-0.1,0.2-0.1C19,1.1,19.2,1,19.3,1.1c0.1,0.1,0.6,0,0.3,0.4c0,0,0,0.1,0,0.1
		c0.1,0,0.2,0,0.3,0c0.2-0.2,0.4-0.1,0.6,0.1c0.2,0.2,0.3,0.2,0.5,0.1c0,0,0.1-0.1,0.1-0.2c0-0.1,0-0.1,0-0.2c0.1,0,0.1,0.1,0.2,0.1
		c0,0,0.1,0,0.1-0.1c0.1-0.2,0.3-0.2,0.4,0c0.1,0.1,0.2,0.2,0.3,0.1C22,1.4,22,1.3,22,1.2c0,0,0.1-0.1,0.1-0.1
		c0.1-0.1,0.2,0,0.2,0.1c0,0.1,0,0.2,0,0.2c0,0.1,0.1,0.2,0.3,0.2C23,1.7,23.5,2,23.8,2.2c0.1,0.1,0.3,0.2,0.4,0.3
		c0.2,0.1,0.5,0.1,0.7,0.2c0.3,0.1,0.7,0.4,0.9,0.7c0.1,0.2,0.1,0.3,0.1,0.5c-0.1,0.3-0.1,0.3,0.2,0.4c0.1,0,0.2,0,0.2,0.2
		c-0.1,0.4,0.2,0.7,0.4,0.9c0.2,0.2,0.3,0.1,0.4,0c0,0,0.1,0,0.2-0.1c0,0.1,0,0.1,0,0.2c-0.3,0.2-0.4,0.5-0.3,0.9
		c0,0.2,0.1,0.3,0.1,0.5c0,0.2,0,0.3,0.1,0.5c0.1,0.2,0.1,0.5,0,0.8c-0.1,0.1,0,0.3,0,0.5c0,0.2,0,0.3,0.1,0.4
		C26.9,9,26.8,9,26.8,9.2c0,0.1-0.1,0.1-0.1,0.2c0.1,0.4-0.2,0.7-0.3,1.1c-0.1,0.3-0.2,0.5-0.5,0.7c-0.2,0.2-0.3,0.4-0.5,0.6
		c-0.1,0.2-0.3,0.3-0.4,0.5c-0.2,0.2-0.5,0.4-0.8,0.5c-0.2,0.1-0.2,0.1-0.1,0.3c0,0.1-0.1,0.1-0.1,0.1c-0.1-0.2-0.3,0.1-0.5-0.1
		c0,0-0.1,0-0.1,0c-0.1,0.2-0.3,0.4-0.1,0.7c0,0,0,0.1,0,0.1c-0.1,0-0.1,0-0.1-0.1c-0.1-0.1,0.1-0.3-0.1-0.4c-0.1,0-0.3,0.1-0.4,0.1
		c-0.2-0.2-0.3,0-0.5,0c-0.2,0-0.3,0-0.5,0c-0.1,0-0.3,0.1-0.4,0c-0.3-0.1-0.5-0.1-0.8-0.1c-0.2,0-0.3,0-0.5-0.1c0,0.1,0,0.3,0,0.4
		c0,0-0.1,0-0.1,0c0-0.1,0-0.2,0-0.3c0-0.2-0.1-0.3-0.3-0.3c-0.3,0-0.5-0.1-0.7-0.2c-0.2-0.1-0.5-0.2-0.8-0.3
		c-0.3-0.1-0.4-0.4-0.7-0.4c-0.1,0-0.2-0.1-0.2-0.2c0-0.2-0.1-0.2-0.2-0.1c0-0.1-0.2-0.1-0.1-0.3c0.1-0.1,0.1-0.3-0.1-0.3
		c-0.1,0-0.3-0.2-0.3-0.4c0-0.3-0.2-0.1-0.2-0.1c-0.1,0-0.1,0-0.1-0.1c0.2-0.3,0-0.5-0.1-0.7c-0.1-0.2-0.3-0.5-0.3-0.9
		c0,0-0.1-0.1-0.1-0.1c0-0.5,0-0.5-0.6-0.5c0.1,0,0.1-0.1,0.2-0.1c0.2,0,0.2-0.1,0.1-0.2c0,0,0-0.1,0-0.2c0,0,0-0.1,0-0.1
		c-0.1,0-0.1,0-0.2,0c0.1-0.1,0.2-0.3,0.2-0.4c0-0.1-0.1-0.3,0-0.4c0.1-0.2,0-0.2-0.4-0.4c0.1,0,0.2,0,0.2,0c0.1,0,0.2,0,0.1-0.1
		c-0.1-0.1,0-0.2,0-0.3c0,0,0-0.1,0.1-0.1c0.3,0,0.1-0.1,0-0.2c0,0,0-0.1,0-0.2C15.6,5.8,15.6,5.8,15.7,5.7z M26.4,7.4
		C26.5,7.4,26.5,7.4,26.4,7.4c0-0.4-0.1-0.8-0.1-1.3c0,0,0-0.1,0-0.1C26,5.9,26,5.6,26,5.4c0-0.1,0-0.1-0.1-0.2
		c-0.3-0.2-0.5-0.5-0.7-0.8C25.1,4.2,25,4,24.8,4c-0.3,0-0.2-0.4-0.4-0.4c-0.1,0-0.2-0.3-0.4-0.2c-0.2,0.1-0.1-0.3-0.4-0.3
		c-0.1-0.3-0.4-0.2-0.6-0.3c-0.2-0.1-0.5,0-0.7-0.3c0-0.1-0.3-0.1-0.3,0c-0.2,0.2-0.5,0.2-0.7,0c0,0-0.1,0-0.2,0
		c-0.1,0.1-0.2,0.1-0.3,0c-0.1-0.1-0.3,0-0.4,0.1c-0.1,0.1-0.2,0.1-0.2,0.1c-0.1,0-0.1-0.1-0.2,0c-0.1,0.1-0.3,0.2-0.5,0.3
		C19.3,3,19,2.9,19,3.2c-0.3,0-0.5,0.1-0.7,0.3c-0.2,0.2-0.5,0.3-0.6,0.6c0,0.1-0.2,0.1-0.2,0.3c0,0.1-0.1,0.2-0.2,0.2
		C16.9,5,16.7,5.5,16.5,6c0,0.1-0.1,0.1-0.1,0.2c0,0.2,0,0.5-0.1,0.7c-0.1,0.2-0.1,0.4-0.1,0.6c0,0.2,0,0.4,0,0.6
		c0,0.2,0,0.3,0.1,0.5c0.1,0.2,0,0.4,0,0.6c0.1,0.3,0.1,0.7,0.3,0.9c0.2,0.2,0.3,0.5,0.4,0.7c0.1,0.3,0.4,0.4,0.6,0.6
		c0.2,0.2,0.4,0.4,0.6,0.6c0.4,0.3,0.8,0.6,1.3,0.7c0.5,0.2,1,0.2,1.5,0.4c0.1,0,0.2,0,0.3-0.1c0.1,0,0.1-0.1,0.2-0.1
		c0.4,0,0.5,0,0.9-0.1c0.1,0,0.2-0.1,0.2-0.1c0.8-0.2,0.9-0.2,1.4-0.6c0,0,0.2,0,0.2,0c0.1,0,0.1-0.2,0.1-0.2c0.2,0,0.2-0.1,0.3-0.2
		c0-0.1,0.3-0.1,0.3-0.3c0-0.2,0.2-0.1,0.2-0.2c0.1-0.1,0-0.3,0.1-0.3c0.3,0,0.3-0.3,0.4-0.4c0.3-0.4,0.6-0.8,0.6-1.4
		c0-0.1,0-0.2,0.1-0.2c0.2-0.1,0.2-0.3,0.2-0.5c-0.1-0.2,0.2-0.3,0-0.5C26.4,7.8,26.4,7.6,26.4,7.4z M17.6,3.6
		c-0.2-0.1-0.2-0.1-0.2-0.1c0,0-0.1,0.1-0.1,0.1c0,0,0.1,0.1,0.1,0.1C17.4,3.7,17.5,3.6,17.6,3.6z"/>
	<path d="M15.1,8.5C15.1,8.6,15,8.6,15,8.6c-0.1,0.1-0.3,0.1-0.4,0.2c0,0-0.1,0-0.2,0c-0.1-0.1,0-0.1,0-0.2c0.1-0.2,0.3-0.2,0.5-0.1
		C15,8.5,15,8.5,15.1,8.5z"/>
	<path d="M0.8,8.7c-0.2,0-0.4,0.1-0.6,0.1c0,0,0-0.1,0-0.1c0,0,0,0,0-0.1c0.1-0.1,0.2-0.2,0.3-0.3c0,0,0.1,0,0.2,0
		C0.7,8.5,0.8,8.6,0.8,8.7z"/>
	<path d="M4.8,14c-0.1,0.1-0.1,0.3-0.2,0.4c0,0-0.1,0-0.2,0c0,0,0-0.1,0-0.1c0-0.1,0-0.2,0-0.3c0-0.1,0-0.2,0.1-0.2
		C4.7,13.8,4.8,13.9,4.8,14z"/>
	<path d="M12.4,4.8c-0.1,0-0.1,0-0.1-0.1c0-0.1,0-0.2,0-0.3c0.1,0,0.2,0,0.3,0c0,0.1,0,0.1,0,0.2C12.5,4.7,12.4,4.8,12.4,4.8z"/>
	<path d="M26.7,4.4c0,0,0.1,0.1,0.1,0.1c-0.1,0.2-0.2,0.3-0.4,0.2C26.5,4.6,26.6,4.5,26.7,4.4z"/>
	<path d="M15.3,8.1c-0.1,0.1-0.2,0.2-0.2,0.4c0-0.2,0-0.4,0-0.6C15.2,8,15.3,8.1,15.3,8.1z"/>
	<path d="M23.5,1.4c0,0.1,0,0.1,0,0.2c0,0.1,0,0.1-0.1,0.2c0,0-0.1,0-0.1-0.1c0-0.1,0-0.1,0.1-0.2C23.4,1.5,23.5,1.5,23.5,1.4z"/>
	<path d="M9.5,1.6C9.4,1.7,9.4,1.8,9.4,1.8c-0.1,0-0.1-0.1-0.1-0.1c0,0,0.1-0.1,0.1-0.1C9.4,1.6,9.4,1.6,9.5,1.6z"/>
	<path d="M15.6,5.9c-0.1,0-0.1,0-0.2,0c0-0.1,0.1-0.2,0.1-0.2c0.1,0,0.2,0,0.2,0.1C15.6,5.8,15.6,5.8,15.6,5.9z"/>
	<path d="M15.3,7.1c-0.1,0.1-0.1,0.1-0.2,0.2c0,0-0.1-0.1-0.1-0.1C15.1,7.1,15.2,7.1,15.3,7.1C15.3,7.1,15.3,7.1,15.3,7.1z"/>
	<path d="M3.3,2c0,0.1,0.1,0.1,0.1,0.2c0,0,0,0.1-0.1,0.1C3.2,2.2,3.2,2.1,3.1,2.1C3.2,2.1,3.2,2,3.3,2z"/>
	<path d="M1.2,7.1C1.1,7.2,1.1,7.2,1,7.3C1,7.2,1,7.2,1,7.2C1,7.1,1.1,7.1,1.2,7.1C1.1,7.1,1.2,7.1,1.2,7.1z"/>
	<path d="M15.8,9.3c-0.1,0.1-0.1,0.1-0.1,0.1c-0.1-0.1-0.1-0.1-0.2-0.2c0,0,0.1-0.1,0.1-0.1C15.7,9.2,15.8,9.3,15.8,9.3z"/>
	<path d="M23.3,1.3C23.3,1.3,23.2,1.3,23.3,1.3c-0.1-0.1-0.1-0.2-0.1-0.2c0,0,0.1,0,0.1,0C23.3,1.2,23.3,1.2,23.3,1.3z"/>
	<path d="M7.7,1.4c0,0,0-0.1,0-0.1c0,0,0.1-0.1,0.1-0.1c0,0,0,0.1,0,0.1c0,0,0,0.1,0,0.1C7.7,1.4,7.7,1.4,7.7,1.4z"/>
	<path d="M0.6,8.1C0.5,8.1,0.5,8.1,0.6,8.1C0.5,8,0.5,8,0.5,7.9c0,0,0.1,0,0.1,0C0.6,8,0.6,8.1,0.6,8.1z"/>
	<path d="M15.5,9.8c0.1,0,0.1,0.1,0.2,0.1c0,0-0.1,0.1-0.1,0.1c0,0-0.1,0-0.1,0C15.5,9.8,15.5,9.8,15.5,9.8z"/>
	<path d="M21.9,1.3C21.9,1.3,21.8,1.3,21.9,1.3C21.8,1.3,21.8,1.3,21.9,1.3C21.8,1.2,21.8,1.2,21.9,1.3C21.9,1.2,21.9,1.2,21.9,1.3z
		"/>
	<path d="M1.4,5.7C1.4,5.7,1.3,5.7,1.4,5.7C1.4,5.7,1.4,5.6,1.4,5.7C1.4,5.7,1.4,5.7,1.4,5.7C1.4,5.7,1.4,5.7,1.4,5.7z"/>
	<path d="M3.7,1.8C3.7,1.8,3.7,1.8,3.7,1.8C3.6,1.8,3.6,1.7,3.7,1.8C3.6,1.7,3.6,1.7,3.7,1.8C3.7,1.7,3.7,1.7,3.7,1.8z"/>
	<path d="M17.4,2C17.4,2.1,17.4,2.1,17.4,2c0,0.1,0,0.1,0,0.1C17.4,2.1,17.4,2.1,17.4,2C17.4,2.1,17.4,2,17.4,2z"/>
	<path d="M17.6,2.2C17.7,2.2,17.7,2.2,17.6,2.2c0,0.1,0,0.1,0,0.1C17.6,2.2,17.6,2.2,17.6,2.2C17.6,2.2,17.6,2.2,17.6,2.2z"/>
	<path d="M3.5,2.4C3.5,2.4,3.5,2.3,3.5,2.4C3.5,2.3,3.5,2.3,3.5,2.4C3.5,2.3,3.6,2.3,3.5,2.4C3.6,2.3,3.6,2.4,3.5,2.4z"/>
	<path d="M1.8,4.5C1.8,4.5,1.8,4.5,1.8,4.5C1.9,4.4,1.9,4.5,1.8,4.5C1.9,4.5,1.9,4.5,1.8,4.5C1.8,4.5,1.8,4.5,1.8,4.5z"/>
	<path d="M0,8.8C0,8.8,0,8.8,0,8.8C0,8.8,0.1,8.8,0,8.8C0.1,8.8,0.1,8.8,0,8.8C0.1,8.8,0.1,8.8,0,8.8z"/>
	<path d="M15.2,8.8C15.2,8.8,15.1,8.8,15.2,8.8C15.1,8.8,15.1,8.8,15.2,8.8C15.1,8.8,15.2,8.7,15.2,8.8C15.2,8.8,15.2,8.8,15.2,8.8z
		"/>
	<path d="M1.7,4.7C1.6,4.8,1.6,4.8,1.7,4.7C1.6,4.8,1.6,4.7,1.7,4.7C1.6,4.7,1.6,4.7,1.7,4.7C1.6,4.7,1.6,4.7,1.7,4.7z"/>
	<path d="M1,8.5c0,0-0.1,0.1-0.1,0.1C0.9,8.6,0.9,8.5,1,8.5z"/>
	<path d="M14.2,11.3C14.2,11.3,14.2,11.4,14.2,11.3C14.2,11.3,14.1,11.3,14.2,11.3C14.1,11.3,14.2,11.3,14.2,11.3
		C14.2,11.3,14.2,11.3,14.2,11.3z"/>
	<path d="M9.2,1.3C9.1,1.3,9.1,1.3,9.2,1.3C9.1,1.2,9.1,1.2,9.2,1.3C9.2,1.2,9.2,1.2,9.2,1.3C9.2,1.3,9.2,1.3,9.2,1.3z"/>
	<path d="M1.4,5.7c0,0,0.1,0.1,0.1,0.1C1.5,5.8,1.5,5.8,1.4,5.7z"/>
	<path d="M9.2,13.7C9.2,13.7,9.2,13.7,9.2,13.7c-0.1,0-0.1,0-0.1,0C9.1,13.7,9.1,13.7,9.2,13.7C9.2,13.7,9.2,13.7,9.2,13.7z"/>
	<path d="M13.5,10.1C13.5,10.1,13.5,10.1,13.5,10.1c-0.1,0-0.1,0-0.1,0C13.4,10.1,13.5,10.1,13.5,10.1
		C13.5,10.1,13.5,10.1,13.5,10.1z"/>
</g>
</svg>
